<?xml version="1.0" encoding="utf-8"?>
<!-- Generator: Adobe Illustrator 16.0.3, SVG Export Plug-In . SVG Version: 6.00 Build 0)  -->
<!DOCTYPE svg PUBLIC "-//W3C//DTD SVG 1.1//EN" "http://www.w3.org/Graphics/SVG/1.1/DTD/svg11.dtd">
<svg version="1.1" id="Layer_1" xmlns="http://www.w3.org/2000/svg" xmlns:xlink="http://www.w3.org/1999/xlink" x="0px" y="0px"
	 width="399.239px" height="100.496px" viewBox="0 0 399.239 100.496" enable-background="new 0 0 399.239 100.496"
	 xml:space="preserve">
<g id="wide_black_on_white">
	<g id="logo_5_">
		<g id="ICON">
			<circle id="molecule" fill="#DD0332" cx="49.039" cy="49.972" r="33.48"/>
			<path id="atom_path" d="M50.248,100.496c25.951,0,47.299-19.672,49.959-44.905c2.623-0.394,4.625-2.625,4.625-5.336
				c0-2.725-2.002-4.953-4.625-5.348C97.543,19.671,76.199,0.001,50.248,0.001C22.494,0.001,0,22.501,0,50.255
				C0,77.994,22.494,100.496,50.248,100.496z M50.248,1.983c24.863,0,45.344,18.811,47.969,42.982
				c-2.42,0.545-4.23,2.692-4.23,5.289c0,2.581,1.811,4.725,4.23,5.274c-2.625,24.162-23.092,42.988-47.969,42.988
				c-26.66,0-48.264-21.607-48.264-48.266C1.984,23.593,23.588,1.983,50.248,1.983z"/>
			<path id="helmet_shadow" d="M85.22,67.834H49.677c-3.537,0-6.25-1.286-8.133-3.864c-1.885-2.566-2.828-6.17-2.828-11.672
				s0.943-9.102,2.828-11.68c1.883-2.572,4.596-3.859,8.133-3.859H85.22c0.346,0,0.67-0.012,0.992-0.029
				c-6.039-13.635-19.771-23.157-35.748-23.157c-7.176,0-10.822,5.657-11.297,10.336c-0.768,7.537-3.51,11.828-8.223,12.881
				c-1.295,0.351-5.066,0.879-11.313,0.879c-6.385,0-8.203,10.552-8.203,14.632c0,4.077,1.818,14.629,8.203,14.629
				c6.246,0,10.018,0.528,11.313,0.879c4.713,1.053,7.455,5.34,8.223,12.881c0.475,4.678,4.121,10.336,11.297,10.336
				c15.977,0,29.709-9.529,35.748-23.158C85.89,67.849,85.566,67.834,85.22,67.834z"/>
			<path id="white_helmet" fill="#FFFFFF" d="M85.22,65.862H49.677c-3.537,0-6.25-1.289-8.133-3.865
				c-1.885-2.568-2.828-6.17-2.828-11.673c0-5.502,0.943-9.101,2.828-11.679c1.883-2.571,4.596-3.86,8.133-3.86H85.22
				c0.346,0,0.67-0.012,0.992-0.028c-6.039-13.634-19.771-23.156-35.748-23.156c-7.176,0-10.822,5.656-11.297,10.336
				c-0.768,7.537-3.51,11.826-8.223,12.879c-1.295,0.352-5.066,0.879-11.313,0.879c-6.385,0-8.203,10.553-8.203,14.631
				c0,4.079,1.818,14.631,8.203,14.631c6.246,0,10.018,0.527,11.313,0.879c4.713,1.053,7.455,5.34,8.223,12.879
				c0.475,4.681,4.121,10.336,11.297,10.336c15.977,0,29.709-9.526,35.748-23.156C85.89,65.873,85.566,65.862,85.22,65.862z"/>
		</g>
		<g id="CONSID">
			<path d="M225.383,31.208c-4.262-4.375-10.295-6.563-18.098-6.563c-8.129,0-14.485,2.34-19.073,7.018
				c-4.586,4.676-6.879,11.037-6.879,19.074c0,7.705,2.131,13.82,6.393,18.335c4.258,4.518,10.279,6.777,18.059,6.777
				c8.197,0,14.58-2.443,19.145-7.335c4.563-4.887,6.846-11.346,6.846-19.383C231.774,41.56,229.639,35.587,225.383,31.208z
				 M219.95,67.571c-2.779,3.66-7.08,5.496-12.908,5.496c-5.922,0-10.417-2.02-13.481-6.055c-3.062-4.037-4.597-9.843-4.597-17.431
				c0-7.44,1.353-12.996,4.06-16.659c2.705-3.662,7.041-5.494,13.012-5.494c6.152,0,10.703,1.979,13.648,5.93
				c2.951,3.953,4.428,9.611,4.428,16.957C224.11,58.157,222.723,63.907,219.95,67.571z"/>
			<path d="M393.11,31.108c-4.088-3.707-10.195-5.559-18.322-5.559c-2.277,0-4.492,0.063-6.656,0.194
				c-2.156,0.129-4.396,0.192-6.719,0.192c-2.836,0-5.748-0.045-8.742-0.131l0.066,1.5l4.32,1.357
				c0.535,0.186,0.811,0.584,0.836,1.186c0.021,0.767,0.041,1.625,0.053,2.578c0.012,0.951,0.014,2.021,0.014,3.203v28.254
				c0,1.395-0.002,2.666-0.014,3.815c-0.012,1.146-0.029,2.188-0.053,3.112c-0.025,0.535-0.338,0.896-0.939,1.08l-4.285,1.292
				l0.139,1.497c2.947-0.086,5.828-0.131,8.639-0.131c2.135,0,4.088,0.033,5.85,0.101c1.77,0.063,3.775,0.094,6.029,0.094
				c8.197,0,14.564-2.373,19.105-7.123s6.811-11.42,6.811-20.019C399.239,40.313,397.196,34.812,393.11,31.108z M386.768,66.481
				c-3.203,3.615-7.869,5.42-14.002,5.42c-1.324,0-2.643-0.029-3.953-0.086c-1.313-0.061-2.656-0.182-4.021-0.369V28.851
				c1.604-0.117,3.035-0.203,4.301-0.25c1.268-0.047,2.418-0.072,3.471-0.072c6.594,0,11.406,1.746,14.451,5.244
				c3.043,3.494,4.563,8.863,4.563,16.111C391.577,57.341,389.975,62.873,386.768,66.481z"/>
			<path d="M252.252,74.685l-0.07-1.566l-4.146-1.223c-0.555-0.137-0.844-0.533-0.867-1.185c-0.049-1.809-0.068-4.086-0.068-6.827
				V35.729l31.314,39.084l2.926-0.279V35.626c0-2.324,0.021-4.25,0.07-5.779c0.021-0.604,0.303-1,0.834-1.188l4.391-1.352
				l-0.139-1.5c-2.904,0.086-5.285,0.131-7.145,0.131c-1.834,0-4.236-0.045-7.213-0.131l0.072,1.604l4.111,1.18
				c0.578,0.188,0.879,0.549,0.9,1.084c0.051,1.621,0.072,3.56,0.072,5.81v26.834l-29.264-36.511
				c-1.066,0.086-2.123,0.131-3.168,0.131c-1.742,0-4.109-0.045-7.105-0.131l0.07,1.5l4.316,1.356
				c0.535,0.187,0.811,0.584,0.838,1.187c0.045,1.533,0.068,3.461,0.068,5.781v28.254c0,2.738-0.023,5.051-0.068,6.931
				c-0.027,0.534-0.34,0.896-0.941,1.079l-4.283,1.292l0.141,1.498c2.99-0.086,5.396-0.134,7.209-0.134
				C246.967,74.553,249.346,74.599,252.252,74.685z"/>
			<path d="M340.565,32.343c0.012-0.967,0.027-1.854,0.051-2.666c0.047-0.582,0.348-0.942,0.906-1.08l4.316-1.289l-0.139-1.5
				c-2.973,0.086-5.852,0.132-8.639,0.132c-2.764,0-5.646-0.046-8.639-0.132l0.068,1.5l4.318,1.357
				c0.531,0.186,0.813,0.584,0.836,1.186c0.021,0.767,0.039,1.625,0.053,2.578c0.014,0.951,0.016,2.021,0.016,3.203v28.254
				c0,1.395-0.002,2.666-0.016,3.815c-0.014,1.146-0.029,2.188-0.053,3.113c-0.045,0.561-0.359,0.92-0.939,1.079l-4.283,1.292
				l0.139,1.498c2.951-0.087,5.83-0.132,8.639-0.132c2.762,0,5.646,0.045,8.639,0.132l-0.066-1.498l-3.939-1.218
				c-0.789-0.211-1.193-0.606-1.219-1.188c-0.021-0.932-0.039-1.959-0.051-3.104c-0.012-1.138-0.021-2.4-0.021-3.795V35.487
				C340.545,34.358,340.553,33.306,340.565,32.343z"/>
			<path d="M313.151,70.31c-1.938,1.539-4.639,2.303-8.1,2.303c-2.574,0-5.096-0.488-7.559-1.461l-2.438-9.895l-1.568,0.245
				l-1.707,11.847l0.209,0.28c4.479,1.265,8.568,1.896,12.262,1.896c5.734,0,10.225-1.219,13.467-3.658
				c3.236-2.438,4.854-5.974,4.854-10.599c0-1.948-0.365-3.655-1.094-5.12c-0.732-1.459-1.707-2.716-2.926-3.763
				c-1.225-1.043-2.588-1.959-4.096-2.736c-1.51-0.775-3.066-1.514-4.67-2.213c-1.459-0.65-2.879-1.312-4.25-1.986
				c-1.371-0.672-2.592-1.439-3.672-2.299c-1.08-0.857-1.939-1.855-2.576-2.998c-0.639-1.137-0.961-2.463-0.961-3.973
				c0-2.646,0.91-4.713,2.736-6.201c1.818-1.484,4.266-2.232,7.332-2.232c2.043,0,4.283,0.412,6.725,1.221l2.26,8.672l1.396-0.239
				l2.057-10.888l-0.244-0.246c-4.02-0.868-7.859-1.303-11.531-1.303c-5.199,0-9.375,1.154-12.52,3.453
				c-3.146,2.299-4.721,5.551-4.721,9.758c0,2.092,0.373,3.92,1.113,5.49c0.742,1.568,1.734,2.895,2.98,3.975
				c1.242,1.08,2.629,2.027,4.16,2.841c1.535,0.813,3.109,1.563,4.736,2.265c1.439,0.652,2.83,1.309,4.18,1.971
				c1.348,0.66,2.549,1.4,3.607,2.211c1.057,0.814,1.896,1.785,2.523,2.91c0.629,1.129,0.941,2.438,0.941,3.924
				C316.061,66.595,315.09,68.782,313.151,70.31z"/>
			<path d="M175.416,71.019l-0.383-1.564c-4.088,1.414-7.979,2.123-11.668,2.123c-6.574,0-11.719-2.02-15.435-6.059
				c-3.715-4.035-5.573-9.445-5.573-16.223c0-6.341,1.627-11.49,4.879-15.464c3.25-3.965,7.721-5.952,13.41-5.952
				c2.346,0,4.961,0.36,7.836,1.079l2.543,9.16l1.393-0.211l2.162-11.242l-0.244-0.278c-4.109-0.945-8.127-1.422-12.051-1.422
				c-8.176,0-14.795,2.321-19.855,6.969c-5.064,4.646-7.594,10.947-7.594,18.91c0,7.477,2.299,13.506,6.896,18.08
				c4.6,4.573,10.645,6.86,18.147,6.86C165.664,75.785,170.842,74.194,175.416,71.019z"/>
		</g>
	</g>
</g>
<g id="tall_white_on_colored">
</g>
<g id="wide_white_on_colored">
	<g id="Layer_8">
	</g>
</g>
<g id="wide_black_inverted">
</g>
<g id="wide_white_on_black">
</g>
<g id="tall_black_on_white">
</g>
<g id="tall_black_inverted">
</g>
<g id="tall_white_on_black">
</g>
<g id="UI_kit">
</g>
</svg>
