<svg xmlns="http://www.w3.org/2000/svg" viewBox="0 0 16 16"><title>nuget-key</title><defs><style>@media screen and (-ms-high-contrast:active){.high-contrast-visible{fill: windowText;}}</style></defs><path d="M5.242,7.055a5.484,5.484,0,0,1-.18-.766A4.947,4.947,0,0,1,5,5.5a5.446,5.446,0,0,1,.75-2.773A5.613,5.613,0,0,1,7.727.75a5.485,5.485,0,0,1,5.547,0A5.614,5.614,0,0,1,15.25,2.727a5.485,5.485,0,0,1,0,5.547,5.614,5.614,0,0,1-1.977,1.977A5.445,5.445,0,0,1,10.5,11,5.347,5.347,0,0,1,8,10.383V12H6v2H4v2H0V12.289ZM1,15H3V13H5V11H7V9h.7a4.279,4.279,0,0,0,1.316.742A4.445,4.445,0,0,0,10.5,10a4.347,4.347,0,0,0,1.75-.355A4.525,4.525,0,0,0,14.645,7.25,4.347,4.347,0,0,0,15,5.5a4.349,4.349,0,0,0-.355-1.75A4.525,4.525,0,0,0,12.25,1.355a4.485,4.485,0,0,0-3.5,0A4.525,4.525,0,0,0,6.355,3.75,4.349,4.349,0,0,0,6,5.5a3.88,3.88,0,0,0,.109.926,7.332,7.332,0,0,0,.281.895L1,12.711ZM12.391,3.078a1.019,1.019,0,0,1,.531.531,1.016,1.016,0,0,1,0,.781,1.019,1.019,0,0,1-.531.531,1.016,1.016,0,0,1-.781,0,1.019,1.019,0,0,1-.531-.531,1.016,1.016,0,0,1,0-.781,1.019,1.019,0,0,1,.531-.531,1.015,1.015,0,0,1,.781,0Z" fill="#000" class="high-contrast-visible" /></svg>