<svg xmlns="http://www.w3.org/2000/svg" viewBox="0 0 16 16"><title>nuget-key-legacy</title><defs><style>@media screen and (-ms-high-contrast:active){.high-contrast-visible{fill: windowText;}}</style></defs><path d="M12.922,3.609a1.016,1.016,0,0,1,0,.781,1.019,1.019,0,0,1-.531.531,1.016,1.016,0,0,1-.781,0c-.017-.008-.029-.023-.046-.031L11.5,4.764l-.031.062a.993.993,0,0,1-.176-.119,1.007,1.007,0,0,1-.215-.316,1.016,1.016,0,0,1,0-.781,1.019,1.019,0,0,1,.531-.531,1.016,1.016,0,0,1,.781,0,1.019,1.019,0,0,1,.531.531Zm2.883.43a5.432,5.432,0,0,0-.555-1.312A5.613,5.613,0,0,0,13.273.75a5.485,5.485,0,0,0-5.547,0A5.613,5.613,0,0,0,5.75,2.727,5.446,5.446,0,0,0,5,5.5a4.947,4.947,0,0,0,.063.789,5.494,5.494,0,0,0,.18.766L0,12.289V16H4V14H6V12H7.882L8,11.764V10.383a5.4,5.4,0,0,0,.563.255l.448-.9A4.281,4.281,0,0,1,7.7,9H7v2H5v2H3v2H1V12.711L6.391,7.32a7.344,7.344,0,0,1-.281-.895A3.878,3.878,0,0,1,6,5.5a4.349,4.349,0,0,1,.356-1.75A4.525,4.525,0,0,1,8.75,1.355a4.485,4.485,0,0,1,3.5,0A4.525,4.525,0,0,1,14.644,3.75,4.349,4.349,0,0,1,15,5.5a4.347,4.347,0,0,1-.356,1.75,4.575,4.575,0,0,1-.965,1.43c-.048.048-.107.084-.157.13l.465.93c.136-.113.273-.226.4-.352a5.559,5.559,0,0,0,.863-1.113A5.522,5.522,0,0,0,15.8,4.039Z" fill="#000" class="high-contrast-visible" /><path d="M11,14h1v1H11Zm5,2H7l4.5-9Zm-7.586-.875h6.172L11.5,8.953ZM11,11v2.5h1V11Z" fill="#ffb900"/></svg>