<svg width="96" height="97" viewBox="0 0 96 97" fill="none" xmlns="http://www.w3.org/2000/svg">
<g id="Book Open">
<path id="Shape" d="M48 76.7149C45.9945 78.8393 43.1521 80.165 40 80.165H15C11.134 80.165 8 77.031 8 73.165V23.165C8 19.299 11.134 16.165 15 16.165H40C43.1521 16.165 45.9945 17.4908 48 19.6152C50.0055 17.4908 52.8479 16.165 56 16.165H81C84.866 16.165 88 19.299 88 23.165V73.165C88 77.031 84.866 80.165 81 80.165H56C52.8479 80.165 50.0055 78.8393 48 76.7149ZM14 23.165V73.165C14 73.7173 14.4477 74.165 15 74.165H40C42.7614 74.165 45 71.9265 45 69.165V27.165C45 24.4036 42.7614 22.165 40 22.165H15C14.4477 22.165 14 22.6128 14 23.165ZM51 69.165C51 71.9265 53.2386 74.165 56 74.165H81C81.5523 74.165 82 73.7173 82 73.165V23.165C82 22.6128 81.5523 22.165 81 22.165H56C53.2386 22.165 51 24.4036 51 27.165V69.165Z" fill="white"/>
</g>
</svg>
