<svg width="574" height="397" viewBox="0 0 574 397" fill="none" xmlns="http://www.w3.org/2000/svg">
<path d="M374.376 172.485L323.998 143.398L228.827 198.339V211.267L279.205 240.353L374.376 185.412V172.485Z" stroke="#6DA7FF" stroke-width="3.8782" stroke-linejoin="round"/>
<path d="M279.205 240.353L228.827 211.267V198.339L279.217 227.426L279.205 240.353Z" stroke="#6DA7FF" stroke-width="3.8782" stroke-linejoin="round"/>
<path d="M374.375 185.412L279.204 240.353L279.217 227.426L374.375 172.485V185.412Z" stroke="#6DA7FF" stroke-width="3.8782" stroke-linejoin="round"/>
<path d="M363.18 185.412L374.272 191.811V198.391" stroke="#6DA7FF" stroke-width="3.8782" stroke-linecap="round" stroke-linejoin="round"/>
<path d="M352.024 191.837L363.18 198.339L363.271 204.738" stroke="#6DA7FF" stroke-width="3.8782" stroke-linecap="round" stroke-linejoin="round"/>
<path d="M340.79 197.693L351.882 204.739L352.024 211.293" stroke="#6DA7FF" stroke-width="3.8782" stroke-linecap="round" stroke-linejoin="round"/>
<path d="M329.686 204.739L340.79 211.267L340.829 217.756" stroke="#6DA7FF" stroke-width="3.8782" stroke-linecap="round" stroke-linejoin="round"/>
<path d="M318.4 211.267L329.453 217.653L329.686 224.246" stroke="#6DA7FF" stroke-width="3.8782" stroke-linecap="round" stroke-linejoin="round"/>
<path d="M307.192 217.73L318.4 224.194V230.658" stroke="#6DA7FF" stroke-width="3.8782" stroke-linecap="round" stroke-linejoin="round"/>
<path d="M295.997 224.194L307.192 230.658V237.121" stroke="#6DA7FF" stroke-width="3.8782" stroke-linecap="round" stroke-linejoin="round"/>
<path d="M284.802 230.658L295.997 237.121V243.585" stroke="#6DA7FF" stroke-width="3.8782" stroke-linecap="round" stroke-linejoin="round"/>
<path d="M234.424 201.571L223.229 195.108V201.571" stroke="#6DA7FF" stroke-width="3.8782" stroke-linecap="round" stroke-linejoin="round"/>
<path d="M240.138 191.915L234.424 188.605V195.069" stroke="#6DA7FF" stroke-width="3.8782" stroke-linecap="round" stroke-linejoin="round"/>
<path d="M251.333 185.477L245.619 182.18V188.644" stroke="#6DA7FF" stroke-width="3.8782" stroke-linecap="round" stroke-linejoin="round"/>
<path d="M262.554 179.013L256.84 175.717V182.18" stroke="#6DA7FF" stroke-width="3.8782" stroke-linecap="round" stroke-linejoin="round"/>
<path d="M268.126 175.717L268.009 169.253L273.62 172.485" stroke="#6DA7FF" stroke-width="3.8782" stroke-linecap="round" stroke-linejoin="round"/>
<path d="M279.204 169.253V162.789L284.802 166.021" stroke="#6DA7FF" stroke-width="3.8782" stroke-linecap="round" stroke-linejoin="round"/>
<path d="M290.412 162.789V156.325L295.997 159.557" stroke="#6DA7FF" stroke-width="3.8782" stroke-linecap="round" stroke-linejoin="round"/>
<path d="M301.594 156.325L301.607 149.862L307.205 153.094" stroke="#6DA7FF" stroke-width="3.8782" stroke-linecap="round" stroke-linejoin="round"/>
<path d="M312.802 149.862V143.398L318.4 146.63" stroke="#6DA7FF" stroke-width="3.8782" stroke-linecap="round" stroke-linejoin="round"/>
<path d="M234.54 208.035L223.488 214.421L223.255 221.014" stroke="#6DA7FF" stroke-width="3.8782" stroke-linecap="round" stroke-linejoin="round"/>
<path d="M245.736 214.499L234.541 220.962V227.426" stroke="#6DA7FF" stroke-width="3.8782" stroke-linecap="round" stroke-linejoin="round"/>
<path d="M256.931 220.962L245.736 227.426V233.89" stroke="#6DA7FF" stroke-width="3.8782" stroke-linecap="round" stroke-linejoin="round"/>
<path d="M268.126 227.426L256.931 233.89V240.353" stroke="#6DA7FF" stroke-width="3.8782" stroke-linecap="round" stroke-linejoin="round"/>
<path d="M329.686 146.565L335.193 143.398V149.862" stroke="#6DA7FF" stroke-width="3.8782" stroke-linecap="round" stroke-linejoin="round"/>
<path d="M340.79 153.094L346.414 149.875V156.325" stroke="#6DA7FF" stroke-width="3.8782" stroke-linecap="round" stroke-linejoin="round"/>
<path d="M351.985 159.557L357.648 156.364L357.583 162.789" stroke="#6DA7FF" stroke-width="3.8782" stroke-linecap="round" stroke-linejoin="round"/>
<path d="M363.181 166.021L368.727 162.815L368.778 169.253" stroke="#6DA7FF" stroke-width="3.8782" stroke-linecap="round" stroke-linejoin="round"/>
<path d="M446.717 136.741L424.327 123.813L385.196 146.41V152.926L407.638 165.763L446.717 143.204V136.741Z" stroke="#6DA7FF" stroke-width="3.8782" stroke-linecap="round" stroke-linejoin="round"/>
<path d="M446.717 143.204L407.638 165.763V159.299L446.717 136.741V143.204Z" stroke="#6DA7FF" stroke-width="3.8782" stroke-linecap="round" stroke-linejoin="round"/>
<path d="M407.638 165.763L385.196 152.926V146.41L407.638 159.299V165.763Z" stroke="#6DA7FF" stroke-width="3.8782" stroke-linecap="round" stroke-linejoin="round"/>
<path d="M402.04 110.86L379.65 97.9329L340.506 120.53V127.045L362.948 139.895L402.04 117.324V110.86Z" stroke="#6DA7FF" stroke-width="3.8782" stroke-linecap="round" stroke-linejoin="round"/>
<path d="M402.04 117.324L362.948 139.895V133.431L402.04 110.86V117.324Z" stroke="#6DA7FF" stroke-width="3.8782" stroke-linecap="round" stroke-linejoin="round"/>
<path d="M362.948 139.895L340.506 127.045V120.53L362.948 133.431V139.895Z" stroke="#6DA7FF" stroke-width="3.8782" stroke-linecap="round" stroke-linejoin="round"/>
<path d="M362.56 256.512C359.484 258.283 359.484 261.192 362.56 262.976C364.296 263.852 366.213 264.309 368.158 264.309C370.102 264.309 372.019 263.852 373.755 262.976C376.832 261.192 376.832 258.283 373.755 256.512C372.019 255.636 370.102 255.18 368.158 255.18C366.213 255.18 364.296 255.636 362.56 256.512Z" stroke="#6DA7FF" stroke-width="3.8782" stroke-linejoin="round"/>
<path d="M324.399 234.536L362.612 256.513" stroke="#6DA7FF" stroke-width="3.8782" stroke-linecap="round" stroke-linejoin="round"/>
<path d="M232.873 324.226C229.796 325.997 229.796 328.906 232.873 330.69C234.609 331.566 236.526 332.022 238.471 332.022C240.415 332.022 242.332 331.566 244.068 330.69C247.145 328.906 247.145 325.997 244.068 324.226C242.332 323.35 240.415 322.894 238.471 322.894C236.526 322.894 234.609 323.35 232.873 324.226Z" stroke="#6DA7FF" stroke-width="3.8782" stroke-linejoin="round"/>
<path d="M188.196 298.371L232.886 324.226" stroke="#6DA7FF" stroke-width="3.8782" stroke-linecap="round" stroke-linejoin="round"/>
<path d="M302.112 247.36L334.728 266.053L256.479 311.234L211.582 285.444" stroke="#6DA7FF" stroke-width="3.8782" stroke-linecap="round" stroke-linejoin="round"/>
<path d="M200.387 291.907L256.478 324.29L357.131 266.053L313.204 240.844" stroke="#6DA7FF" stroke-width="3.8782" stroke-linecap="round" stroke-linejoin="round"/>
<path d="M335.594 227.917L390.432 259.744L245.167 343.617L177.997 304.835" stroke="#6DA7FF" stroke-width="3.8782" stroke-linecap="round" stroke-linejoin="round"/>
<path d="M250.946 243.327L211.582 266.053" stroke="#6DA7FF" stroke-width="3.8782" stroke-linecap="round" stroke-linejoin="round"/>
<path d="M239.686 237.031L201.266 259.227" stroke="#6DA7FF" stroke-width="3.8782" stroke-linecap="round" stroke-linejoin="round"/>
<path d="M228.439 230.529L201.266 246.313" stroke="#6DA7FF" stroke-width="3.8782" stroke-linecap="round" stroke-linejoin="round"/>
<path d="M217.27 224.104L201.266 233.166" stroke="#6DA7FF" stroke-width="3.8782" stroke-linecap="round" stroke-linejoin="round"/>
<path d="M77.2926 291.933L21.3301 324.29L66.4077 349.874" stroke="#6DA7FF" stroke-width="3.8782" stroke-linecap="round" stroke-linejoin="round"/>
<path d="M122.073 317.788L66.4077 349.874" stroke="#6DA7FF" stroke-width="3.8782" stroke-linecap="round" stroke-linejoin="round"/>
<path d="M166.801 311.234L245.167 356.544L390.406 272.685" stroke="#6DA7FF" stroke-width="3.8782" stroke-linecap="round" stroke-linejoin="round"/>
<path d="M217.102 152.977L233.946 162.569L194.854 185.412L217.361 198.391" stroke="#6DA7FF" stroke-width="3.8782" stroke-linecap="round" stroke-linejoin="round"/>
<path d="M228.374 146.475L250.958 159.57L211.711 181.818L228.155 191.837" stroke="#6DA7FF" stroke-width="3.8782" stroke-linecap="round" stroke-linejoin="round"/>
<path d="M239.751 139.908L267.467 156.171L228.129 178.949L239.311 185.412" stroke="#6DA7FF" stroke-width="3.8782" stroke-linecap="round" stroke-linejoin="round"/>
<path d="M250.946 133.444L284.35 152.977L245.348 175.742" stroke="#6DA7FF" stroke-width="3.8782" stroke-linecap="round" stroke-linejoin="round"/>
<path d="M261.947 127.071L295.506 146.41" stroke="#6DA7FF" stroke-width="3.8782" stroke-linecap="round" stroke-linejoin="round"/>
<path d="M26.1518 308.028C23.101 306.205 23.0751 303.284 26.1518 301.564C27.8733 300.694 29.7752 300.241 31.7041 300.241C33.6331 300.241 35.535 300.694 37.2564 301.564C40.3331 303.348 40.3461 306.27 37.2564 308.028C35.5412 308.919 33.6368 309.384 31.7041 309.384C29.7714 309.384 27.8671 308.919 26.1518 308.028Z" stroke="#6DA7FF" stroke-width="3.8782" stroke-linecap="round" stroke-linejoin="round"/>
<path d="M66.0327 285.444L38.0967 301.629" stroke="#6DA7FF" stroke-width="3.8782" stroke-linecap="round" stroke-linejoin="round"/>
<path d="M54.4629 317.568C51.412 315.746 51.3862 312.824 54.4629 311.105C56.1843 310.234 58.0863 309.781 60.0152 309.781C61.9441 309.781 63.846 310.234 65.5675 311.105C68.6442 312.889 68.6571 315.81 65.5675 317.568C63.8522 318.459 61.9479 318.924 60.0152 318.924C58.0825 318.924 56.1781 318.459 54.4629 317.568Z" stroke="#6DA7FF" stroke-width="3.8782" stroke-linecap="round" stroke-linejoin="round"/>
<path d="M88.4876 298.371L66.4077 311.156" stroke="#6DA7FF" stroke-width="3.8782" stroke-linecap="round" stroke-linejoin="round"/>
<path d="M121.543 162.918C118.492 161.096 118.466 158.174 121.543 156.455C123.264 155.585 125.166 155.131 127.095 155.131C129.024 155.131 130.926 155.585 132.648 156.455C135.724 158.239 135.737 161.16 132.648 162.918C130.932 163.809 129.028 164.274 127.095 164.274C125.163 164.274 123.258 163.809 121.543 162.918Z" stroke="#6DA7FF" stroke-width="3.8782" stroke-linecap="round" stroke-linejoin="round"/>
<path d="M161.436 140.322L133.5 156.507" stroke="#6DA7FF" stroke-width="3.8782" stroke-linecap="round" stroke-linejoin="round"/>
<path d="M138.995 127.187L43.6426 182.025L88.4358 207.88" stroke="#6DA7FF" stroke-width="3.8782" stroke-linecap="round" stroke-linejoin="round"/>
<path d="M149.815 133.444L66.0459 182.025L99.6182 201.416" stroke="#6DA7FF" stroke-width="3.8782" stroke-linecap="round" stroke-linejoin="round"/>
<path d="M172.399 146.475L99.6699 188.463L110.826 194.952" stroke="#6DA7FF" stroke-width="3.8782" stroke-linecap="round" stroke-linejoin="round"/>
<path d="M183.517 152.977L144.644 175.174L211.711 214.266L200.516 220.73" stroke="#6DA7FF" stroke-width="3.8782" stroke-linecap="round" stroke-linejoin="round"/>
<path d="M345.819 298.32L379.56 317.788" stroke="#6DA7FF" stroke-width="3.8782" stroke-linecap="round" stroke-linejoin="round"/>
<path d="M390.703 324.226L379.508 330.69L334.779 304.861" stroke="#6DA7FF" stroke-width="3.8782" stroke-linecap="round" stroke-linejoin="round"/>
<path d="M401.898 330.69L379.508 343.617L323.649 311.234" stroke="#6DA7FF" stroke-width="3.8782" stroke-linecap="round" stroke-linejoin="round"/>
<path d="M413.093 337.153L379.56 356.505L301.259 311.234" stroke="#6DA7FF" stroke-width="3.8782" stroke-linecap="round" stroke-linejoin="round"/>
<path d="M424.288 343.617L379.508 369.472L278.752 311.402" stroke="#6DA7FF" stroke-width="3.8782" stroke-linecap="round" stroke-linejoin="round"/>
<path d="M435.483 350.081L379.508 382.399L289.805 330.69" stroke="#6DA7FF" stroke-width="3.8782" stroke-linecap="round" stroke-linejoin="round"/>
<path d="M99.618 304.835L77.2925 317.788L99.618 330.69" stroke="#6DA7FF" stroke-width="3.8782" stroke-linecap="round" stroke-linejoin="round"/>
<path d="M110.878 311.156L99.6826 317.724L110.826 324.226" stroke="#6DA7FF" stroke-width="3.8782" stroke-linecap="round" stroke-linejoin="round"/>
<path d="M334.663 136.741L340.506 133.444" stroke="#6DA7FF" stroke-width="3.8782" stroke-linecap="round" stroke-linejoin="round"/>
<path d="M358.152 214.899L401.381 240.263" stroke="#6DA7FF" stroke-width="3.8782" stroke-linecap="round" stroke-linejoin="round"/>
<path d="M369.076 208.462L412.822 233.58" stroke="#6DA7FF" stroke-width="3.8782" stroke-linecap="round" stroke-linejoin="round"/>
<path d="M380.374 202.062L423.991 227.219" stroke="#6DA7FF" stroke-width="3.8782" stroke-linecap="round" stroke-linejoin="round"/>
<path d="M362.457 146.63L351.301 139.882" stroke="#6DA7FF" stroke-width="3.8782" stroke-linecap="round" stroke-linejoin="round"/>
<path d="M384.86 133.405L390.457 136.741" stroke="#6DA7FF" stroke-width="3.8782" stroke-linecap="round" stroke-linejoin="round"/>
<path d="M396.055 126.942L401.652 130.458" stroke="#6DA7FF" stroke-width="3.8782" stroke-linecap="round" stroke-linejoin="round"/>
<path d="M362.457 159.558L373.91 152.939L413.093 175.562L435.483 162.634" stroke="#6DA7FF" stroke-width="3.8782" stroke-linecap="round" stroke-linejoin="round"/>
<path d="M379.198 162.815L412.822 181.87L452.392 159.467L441.146 153.21" stroke="#6DA7FF" stroke-width="3.8782" stroke-linecap="round" stroke-linejoin="round"/>
<path d="M347.151 221.531L390.393 246.907" stroke="#6DA7FF" stroke-width="3.8782" stroke-linecap="round" stroke-linejoin="round"/>
<path d="M362.457 146.63L351.301 152.874" stroke="#6DA7FF" stroke-width="3.8782" stroke-linecap="round" stroke-linejoin="round"/>
<path d="M334.663 136.741L345.871 143.204" stroke="#6DA7FF" stroke-width="3.8782" stroke-linecap="round" stroke-linejoin="round"/>
<path d="M340.506 146.578L345.871 143.204" stroke="#6DA7FF" stroke-width="3.8782" stroke-linecap="round" stroke-linejoin="round"/>
<path d="M429.782 159.286L435.483 162.634" stroke="#6DA7FF" stroke-width="3.8782" stroke-linecap="round" stroke-linejoin="round"/>
<path d="M379.198 162.815L374.272 165.659" stroke="#6DA7FF" stroke-width="3.8782" stroke-linecap="round" stroke-linejoin="round"/>
<path d="M194.104 340.062C191.027 341.833 191.027 344.742 194.104 346.526C195.84 347.402 197.757 347.858 199.701 347.858C201.646 347.858 203.563 347.402 205.299 346.526C208.376 344.742 208.376 341.833 205.299 340.062C203.563 339.186 201.646 338.729 199.701 338.729C197.757 338.729 195.84 339.186 194.104 340.062Z" stroke="#6DA7FF" stroke-width="3.8782" stroke-linejoin="round"/>
<path d="M149.427 314.207L194.104 340.062" stroke="#6DA7FF" stroke-width="3.8782" stroke-linecap="round" stroke-linejoin="round"/>
<path d="M79.3481 147.38C76.2973 145.557 76.2714 142.636 79.3481 140.916C81.0696 140.046 82.9715 139.593 84.9004 139.593C86.8294 139.593 88.7313 140.046 90.4527 140.916C93.5294 142.7 93.5424 145.622 90.4527 147.38C88.7375 148.271 86.8331 148.735 84.9004 148.735C82.9677 148.735 81.0634 148.271 79.3481 147.38Z" stroke="#6DA7FF" stroke-width="3.8782" stroke-linecap="round" stroke-linejoin="round"/>
<path d="M127.089 120.245L91.3057 140.981" stroke="#6DA7FF" stroke-width="3.8782" stroke-linecap="round" stroke-linejoin="round"/>
<path d="M513.694 304.783V246.533L452.043 211.021L390.406 246.61V304.783L451.979 340.333L513.694 304.783Z" stroke="#074199" stroke-width="3.8782" stroke-linejoin="round"/>
<path d="M513.694 304.783L451.979 340.334L452.03 282.122L513.694 246.533V304.783Z" stroke="#074199" stroke-width="3.8782" stroke-linejoin="round"/>
<path d="M451.979 340.333L390.406 304.783V246.61L452.03 282.122L451.979 340.333Z" stroke="#074199" stroke-width="3.8782" stroke-linejoin="round"/>
<path d="M485.564 308.015L479.966 311.247V266.001L418.393 230.451L423.991 227.219L485.564 262.769V308.015Z" fill="#074199" stroke="#074199" stroke-width="1.29273" stroke-linejoin="round"/>
<path d="M418.393 308.015L423.991 311.247V265.962L485.564 230.451L479.966 227.219L418.393 262.731V308.015Z" fill="#074199" stroke="#074199" stroke-width="1.29273" stroke-linejoin="round"/>
<path d="M507.954 301.552L519.149 308.015V314.479" stroke="#074199" stroke-width="3.8782" stroke-linecap="round" stroke-linejoin="round"/>
<path d="M496.759 308.015L507.954 314.479V320.942" stroke="#074199" stroke-width="3.8782" stroke-linecap="round" stroke-linejoin="round"/>
<path d="M485.564 314.479L496.759 320.942V327.406" stroke="#074199" stroke-width="3.8782" stroke-linecap="round" stroke-linejoin="round"/>
<path d="M474.369 320.943L485.564 327.406V333.87" stroke="#074199" stroke-width="3.8782" stroke-linecap="round" stroke-linejoin="round"/>
<path d="M463.174 327.406L474.369 333.87V340.334" stroke="#074199" stroke-width="3.8782" stroke-linecap="round" stroke-linejoin="round"/>
<path d="M452.03 333.831L463.174 340.334V346.797" stroke="#074199" stroke-width="3.8782" stroke-linecap="round" stroke-linejoin="round"/>
<path d="M396.055 301.552L384.86 308.015V314.479" stroke="#074199" stroke-width="3.8782" stroke-linecap="round" stroke-linejoin="round"/>
<path d="M407.25 308.015L396.055 314.479V320.942" stroke="#074199" stroke-width="3.8782" stroke-linecap="round" stroke-linejoin="round"/>
<path d="M418.445 314.479L407.25 320.942V327.406" stroke="#074199" stroke-width="3.8782" stroke-linecap="round" stroke-linejoin="round"/>
<path d="M429.64 320.943L418.445 327.406V333.87" stroke="#074199" stroke-width="3.8782" stroke-linecap="round" stroke-linejoin="round"/>
<path d="M440.835 327.406L429.64 333.87V340.334" stroke="#074199" stroke-width="3.8782" stroke-linecap="round" stroke-linejoin="round"/>
<path d="M451.979 333.831L440.835 340.334V346.797" stroke="#074199" stroke-width="3.8782" stroke-linecap="round" stroke-linejoin="round"/>
<path d="M513.694 298.242L519.149 295.088V301.552" stroke="#074199" stroke-width="3.8782" stroke-linecap="round" stroke-linejoin="round"/>
<path d="M200.516 272.517V214.266L138.878 178.755L77.2275 214.344V272.517L138.813 308.067L200.516 272.517Z" stroke="#074199" stroke-width="3.8782" stroke-linejoin="round"/>
<path d="M200.516 272.517L138.813 308.067L138.865 249.855L200.516 214.266V272.517Z" stroke="#074199" stroke-width="3.8782" stroke-linejoin="round"/>
<path d="M138.813 308.067L77.2275 272.517V214.344L138.865 249.855L138.813 308.067Z" stroke="#074199" stroke-width="3.8782" stroke-linejoin="round"/>
<path d="M172.399 275.749L166.801 278.98V233.735L105.215 198.184L110.826 194.953L172.399 230.503V275.749Z" fill="#074199" stroke="#074199" stroke-width="1.29273" stroke-linejoin="round"/>
<path d="M105.215 275.749L110.826 278.98V233.696L172.399 198.184L166.801 194.953L105.215 230.477V275.749Z" fill="#074199" stroke="#074199" stroke-width="1.29273" stroke-linejoin="round"/>
<path d="M194.789 269.285L205.984 275.749V282.212" stroke="#074199" stroke-width="3.8782" stroke-linecap="round" stroke-linejoin="round"/>
<path d="M183.594 275.749L194.789 282.212V288.676" stroke="#074199" stroke-width="3.8782" stroke-linecap="round" stroke-linejoin="round"/>
<path d="M172.399 282.212L183.594 288.676V295.14" stroke="#074199" stroke-width="3.8782" stroke-linecap="round" stroke-linejoin="round"/>
<path d="M161.204 288.676L172.399 295.14V301.603" stroke="#074199" stroke-width="3.8782" stroke-linecap="round" stroke-linejoin="round"/>
<path d="M150.009 295.14L161.204 301.603V308.067" stroke="#074199" stroke-width="3.8782" stroke-linecap="round" stroke-linejoin="round"/>
<path d="M138.865 301.564L150.009 308.067V314.531" stroke="#074199" stroke-width="3.8782" stroke-linecap="round" stroke-linejoin="round"/>
<path d="M82.8899 269.285L71.6948 275.749V282.212" stroke="#074199" stroke-width="3.8782" stroke-linecap="round" stroke-linejoin="round"/>
<path d="M94.0852 275.749L82.8901 282.212V288.676" stroke="#074199" stroke-width="3.8782" stroke-linecap="round" stroke-linejoin="round"/>
<path d="M105.28 282.212L94.085 288.676V295.14" stroke="#074199" stroke-width="3.8782" stroke-linecap="round" stroke-linejoin="round"/>
<path d="M116.475 288.676L105.28 295.14V301.603" stroke="#074199" stroke-width="3.8782" stroke-linecap="round" stroke-linejoin="round"/>
<path d="M127.67 295.14L116.475 301.603V308.067" stroke="#074199" stroke-width="3.8782" stroke-linecap="round" stroke-linejoin="round"/>
<path d="M138.814 301.564L127.67 308.067V314.531" stroke="#074199" stroke-width="3.8782" stroke-linecap="round" stroke-linejoin="round"/>
<path d="M200.516 265.975L205.984 262.821V269.285" stroke="#074199" stroke-width="3.8782" stroke-linecap="round" stroke-linejoin="round"/>
<path d="M262.27 107.693V49.4423L200.632 13.9309L138.995 49.5199V107.693L200.568 143.243L262.27 107.693Z" stroke="#074199" stroke-width="3.8782" stroke-linejoin="round"/>
<path d="M262.27 107.693L200.567 143.243L200.619 85.0443L262.27 49.4424V107.693Z" stroke="#074199" stroke-width="3.8782" stroke-linejoin="round"/>
<path d="M200.568 143.243L138.995 107.693V49.5198L200.619 85.0441L200.568 143.243Z" stroke="#074199" stroke-width="3.8782" stroke-linejoin="round"/>
<path d="M234.153 110.925L228.555 114.157V68.9109L166.982 33.3607L172.58 30.1289L234.153 65.6791V110.925Z" fill="#074199" stroke="#074199" stroke-width="1.29273" stroke-linejoin="round"/>
<path d="M166.982 110.925L172.58 114.157V68.8722L234.153 33.3607L228.555 30.1289L166.982 65.6532V110.925Z" fill="#074199" stroke="#074199" stroke-width="1.29273" stroke-linejoin="round"/>
<path d="M256.543 104.461L267.738 110.925V117.389" stroke="#074199" stroke-width="3.8782" stroke-linecap="round" stroke-linejoin="round"/>
<path d="M245.348 110.925L256.543 117.388V123.852" stroke="#074199" stroke-width="3.8782" stroke-linecap="round" stroke-linejoin="round"/>
<path d="M234.153 117.388L245.348 123.852V130.316" stroke="#074199" stroke-width="3.8782" stroke-linecap="round" stroke-linejoin="round"/>
<path d="M222.958 123.852L234.153 130.316V136.78" stroke="#074199" stroke-width="3.8782" stroke-linecap="round" stroke-linejoin="round"/>
<path d="M211.763 130.316L222.958 136.78V143.243" stroke="#074199" stroke-width="3.8782" stroke-linecap="round" stroke-linejoin="round"/>
<path d="M200.619 136.741L211.763 143.243V149.707" stroke="#074199" stroke-width="3.8782" stroke-linecap="round" stroke-linejoin="round"/>
<path d="M144.644 104.461L133.449 110.925V117.389" stroke="#074199" stroke-width="3.8782" stroke-linecap="round" stroke-linejoin="round"/>
<path d="M155.839 110.925L144.644 117.388V123.852" stroke="#074199" stroke-width="3.8782" stroke-linecap="round" stroke-linejoin="round"/>
<path d="M167.034 117.388L155.839 123.852V130.316" stroke="#074199" stroke-width="3.8782" stroke-linecap="round" stroke-linejoin="round"/>
<path d="M178.229 123.852L167.034 130.316V136.78" stroke="#074199" stroke-width="3.8782" stroke-linecap="round" stroke-linejoin="round"/>
<path d="M189.424 130.316L178.229 136.78V143.243" stroke="#074199" stroke-width="3.8782" stroke-linecap="round" stroke-linejoin="round"/>
<path d="M200.568 136.741L189.424 143.243V149.707" stroke="#074199" stroke-width="3.8782" stroke-linecap="round" stroke-linejoin="round"/>
<path d="M524.98 298.487L564.33 279.777L564.304 204.969" stroke="#074199" stroke-width="3.54305" stroke-linecap="round" stroke-linejoin="round"/>
<path d="M558.552 194.518C555.475 196.302 555.475 199.21 558.552 200.981C560.288 201.857 562.205 202.314 564.149 202.314C566.094 202.314 568.011 201.857 569.747 200.981C572.823 199.21 572.823 196.302 569.747 194.518C568.011 193.641 566.094 193.185 564.149 193.185C562.205 193.185 560.288 193.641 558.552 194.518Z" stroke="#074199" stroke-width="3.8782" stroke-linecap="round" stroke-linejoin="round"/>
<path d="M10.1867 162.557L9.85059 220.73L71.3589 256.513" stroke="#074199" stroke-width="3.8782" stroke-linecap="round" stroke-linejoin="round"/>
<path d="M4.20122 152.9C1.1633 154.684 1.18915 157.593 4.26586 159.364C6.00172 160.24 7.91899 160.696 9.8634 160.696C11.8078 160.696 13.7251 160.24 15.4609 159.364C18.5377 157.593 18.5118 154.684 15.3963 152.9C13.6604 152.024 11.7432 151.567 9.79876 151.567C7.85435 151.567 5.93708 152.024 4.20122 152.9Z" stroke="#074199" stroke-width="3.8782" stroke-linecap="round" stroke-linejoin="round"/>
<path d="M301.052 99.3288C297.975 101.1 297.975 104.009 301.052 105.793C302.788 106.669 304.705 107.125 306.649 107.125C308.594 107.125 310.511 106.669 312.247 105.793C315.324 104.021 315.324 101.113 312.247 99.3288C310.511 98.4527 308.594 97.9963 306.649 97.9963C304.705 97.9963 302.788 98.4527 301.052 99.3288Z" stroke="#074199" stroke-width="3.8782" stroke-linecap="round" stroke-linejoin="round"/>
<path d="M306.662 107.641V139.727L273.193 120.853" stroke="#074199" stroke-width="3.8782" stroke-linecap="round" stroke-linejoin="round"/>
</svg>
