<?xml version="1.0" encoding="UTF-8"?>
<svg width="225px" height="225px" viewBox="0 0 225 225" version="1.1" xmlns="http://www.w3.org/2000/svg" xmlns:xlink="http://www.w3.org/1999/xlink">
    <defs>
        <circle id="path-1" cx="112.5" cy="112.5" r="112.5"></circle>
    </defs>
    <g id="Main" stroke="none" stroke-width="1" fill="none" fill-rule="evenodd">
        <g transform="translate(-1313.000000, -1147.000000)" id="PurpleCircle">
            <g transform="translate(1313.000000, 1147.000000)">
                <mask id="mask-2" fill="white">
                    <use xlink:href="#path-1"></use>
                </mask>
                <use id="Mask" fill="#854CC7" xlink:href="#path-1"></use>
                <g id="Page-1">
                    <g transform="translate(43.000000, 35.000000)">
                        <path d="M106.784984,91 C125.043123,91 140,76.0941937 140,57.6658971 C140,40.5821694 127.102049,26.5027127 110.599232,24.5383816 C110.082756,10.9771442 98.8354355,0 85.2151154,0 C75.3148213,0 66.9604666,5.49032283 62.6227628,13.5612374 C59.9461588,12.5283004 57.3602872,12.0100812 54.578992,12.0100812 C41.2692557,12.0100812 30.6361234,22.9872254 30.6361234,36.3418754 L30.6361234,36.5484628 C29.2995663,36.3418754 28.2666135,36.3418754 27.2371504,36.3418754 C12.175582,36.3418754 0,48.558544 0,63.6709377 C0,78.7833314 12.175582,91 27.2371504,91 L106.784984,91 Z" id="Fill-2" stroke="none" fill="#FFFFFF" fill-rule="evenodd"></path>
                        <path d="M107,47.5546567 C107,42.8612321 110.758971,39 115.452396,39 C120.138768,39 124,42.8612321 124,47.5546567 C124,52.2410288 120.138768,56 115.452396,56 C110.758971,56 107,52.2410288 107,47.5546567 Z" id="Fill-3" stroke="none" fill="#C7B8FF" fill-rule="evenodd"></path>
                        <path d="M114.800918,55 C119.296207,55 123,51.3942981 123,46.8990094 C123,44.5955545 121.998792,42.4984296 120.500362,41 L120.500362,41 L109,52.5916888 C110.49843,54.1002658 112.494081,55 114.800918,55 Z" id="Fill-4" stroke="none" fill="#B4A0FF" fill-rule="evenodd"></path>
                        <path d="M58,28.4686099 C58,28.1995516 58.2484211,28 58.5031579,28 C58.7515789,28 59,28.1995516 59,28.4686099 C59,28.8004484 58.7515789,29 58.5031579,29 C58.2484211,29 58,28.8004484 58,28.4686099 Z" id="Fill-5" stroke="none" fill="#C7B8FF" fill-rule="evenodd"></path>
                        <path d="M41,35.5036998 C41,33.5280127 42.6134235,32 44.5509886,32 C46.3865765,32 48,33.5280127 48,35.5036998 C48,37.3609937 46.3865765,39 44.5509886,39 C42.6134235,39 41,37.3609937 41,35.5036998 Z" id="Fill-6" stroke="none" fill="#C7B8FF" fill-rule="evenodd"></path>
                        <path d="M16,71.5010571 C16,71.2515856 16.1881607,71 16.5010571,71 C16.7505285,71 17,71.2515856 17,71.5010571 C17,71.8118393 16.7505285,72 16.5010571,72 C16.1881607,72 16,71.8118393 16,71.5010571 Z" id="Fill-7" stroke="none" fill="#C7B8FF" fill-rule="evenodd"></path>
                        <path d="M90,19.4578896 C90,18.6853824 90.6833977,18 91.453668,18 C92.3079151,18 93,18.6853824 93,19.4578896 C93,20.3146176 92.3079151,21 91.453668,21 C90.6833977,21 90,20.3146176 90,19.4578896 Z" id="Fill-8" stroke="none" fill="#C7B8FF" fill-rule="evenodd"></path>
                        <path d="M76,78.9530792 C76,78.4340176 76.4352941,78 76.9558824,78 C77.5647059,78 78,78.4340176 78,78.9530792 C78,79.5601173 77.5647059,80 76.9558824,80 C76.4352941,80 76,79.5601173 76,78.9530792 Z" id="Fill-9" stroke="none" fill="#C7B8FF" fill-rule="evenodd"></path>
                        <path d="M107,59.4609375 C107,59.2291667 107.23057,59 107.536269,59 C107.772021,59 108,59.2291667 108,59.4609375 C108,59.7682292 107.772021,60 107.536269,60 C107.23057,60 107,59.7682292 107,59.4609375 Z" id="Fill-10" stroke="none" fill="#C7B8FF" fill-rule="evenodd"></path>
                        <path d="M109,81.9984592 C109,81.4530046 109.453005,81 109.998459,81 C110.546995,81 111,81.4530046 111,81.9984592 C111,82.5469954 110.546995,83 109.998459,83 C109.453005,83 109,82.5469954 109,81.9984592 Z" id="Fill-11" stroke="none" fill="#C7B8FF" fill-rule="evenodd"></path>
                        <path d="M38,67.0469208 C38,66.4340176 38.4509202,66 39.0030675,66 C39.5460123,66 40,66.4340176 40,67.0469208 C40,67.5659824 39.5460123,68 39.0030675,68 C38.4509202,68 38,67.5659824 38,67.0469208 Z" id="Fill-12" stroke="none" fill="#C7B8FF" fill-rule="evenodd"></path>
                        <path d="M22,55.0427099 C22,54.4329897 22.4553846,54 23,54 C23.5446154,54 24,54.4329897 24,55.0427099 C24,55.5640648 23.5446154,56 23,56 C22.4553846,56 22,55.5640648 22,55.0427099 Z" id="Fill-13" stroke="none" fill="#C7B8FF" fill-rule="evenodd"></path>
                        <path d="M46,23 C46,22.4553846 46.4530046,22 46.9984592,22 C47.5469954,22 48,22.4553846 48,23 C48,23.5446154 47.5469954,24 46.9984592,24 C46.4530046,24 46,23.5446154 46,23 Z" id="Fill-14" stroke="none" fill="#C7B8FF" fill-rule="evenodd"></path>
                        <path d="M24,61.4609375 C24,61.2291667 24.2317708,61 24.5390625,61 C24.7682292,61 25,61.2291667 25,61.4609375 C25,61.7682292 24.7682292,62 24.5390625,62 C24.2317708,62 24,61.7682292 24,61.4609375 Z" id="Fill-15" stroke="none" fill="#C7B8FF" fill-rule="evenodd"></path>
                        <path d="M98,75.9980456 C98,74.3837134 99.3810143,73 100.992198,73 C102.615085,73 104,74.3837134 104,75.9980456 C104,77.6162866 102.615085,79 100.992198,79 C99.3810143,79 98,77.6162866 98,75.9980456 Z" id="Fill-16" stroke="none" fill="#C7B8FF" fill-rule="evenodd"></path>
                        <path d="M21,154 L94,154" id="Stroke-17" stroke="#5C2D91" stroke-width="14.788" fill="none" stroke-linecap="round"></path>
                        <path d="M43.1921634,75.4211137 C44.8627871,76.3181327 45.5302823,78.4504533 44.530925,80.1418663 C43.6371602,81.8256774 41.5215397,82.4984417 39.850916,81.6014227 C38.1727499,80.7044037 37.5052547,78.5606803 38.3952483,76.8806701 C39.2965555,75.0828311 41.412176,74.5240947 43.1921634,75.4211137 Z" id="Fill-18" stroke="none" fill="#5C2D91" fill-rule="evenodd"></path>
                        <path d="M54.3876185,64.7309446 C53.2377983,66.8238499 50.5136089,67.6716538 48.3201058,66.4052688 C46.1195269,65.2523973 45.3871798,62.5316204 46.5440759,60.3216544 C47.7964954,58.1223302 50.5136089,57.3880397 52.7071121,58.5409112 C54.9112289,59.8002017 55.6435759,62.5316204 54.3876185,64.7309446 Z" id="Fill-19" stroke="none" fill="#5C2D91" fill-rule="evenodd"></path>
                        <polygon id="Fill-20" stroke="none" fill="#5C2D91" fill-rule="evenodd" points="46.0035587 60 38 76.9783413 43.7900356 80 54 64.3775313"></polygon>
                        <path d="M66.9942146,118.333124 C67.0960741,116.675312 65.8421486,115.126151 64.0824379,115.021005 C62.3192148,114.814216 60.7632231,116.160093 60.6578512,117.919547 L59,147.146804 C59,148.079104 62.5264462,148.387534 62.6283057,147.353592 L66.9942146,118.333124 Z" id="Fill-21" stroke="none" fill="#F7CAA7" fill-rule="evenodd"></path>
                        <path d="M67.9936204,118.727327 C67.8774254,120.702707 66.1538665,122.207758 64.2095372,121.976513 C62.2652078,121.862851 60.894107,120.126554 61.0064289,118.264837 C61.1226238,116.297296 62.8384364,114.792244 64.7827658,115.023489 C66.7232219,115.141071 68.1059422,116.873448 67.9936204,118.727327 Z" id="Fill-22" stroke="none" fill="#F7CAA7" fill-rule="evenodd"></path>
                        <path d="M66.7152598,117.798674 C66.8122845,119.556603 65.4204826,120.994275 63.8413227,120.994275 C62.1617926,121.098706 60.7800277,119.761984 60.6796574,118.004056 L58.0031153,95.2623802 C57.9060907,92.3765927 60.0874725,90.0129623 62.8543479,90.0129623 C65.5208529,89.8075805 67.8996297,92.0702607 68,94.8516167 L66.7152598,117.798674 Z" id="Fill-23" stroke="none" fill="#613D30" fill-rule="evenodd"></path>
                        <path d="M49.0212802,118.333124 C48.8117811,116.675312 50.1753006,115.126151 51.9578184,115.021005 C53.6444636,114.814216 55.2174823,116.160093 55.4269814,117.919547 L57,147.146804 C57,148.079104 53.5414895,148.387534 53.4349645,147.353592 L49.0212802,118.333124 Z" id="Fill-24" stroke="none" fill="#F7CAA7" fill-rule="evenodd"></path>
                        <path d="M49.0231564,118.727327 C49.1390735,120.702707 50.8507831,122.207758 52.790463,121.976513 C54.6258174,121.862851 56.1095566,120.126554 55.9936395,118.264837 C55.7656692,116.297296 54.0539596,114.792244 52.2186051,115.023489 C50.2789253,115.141071 48.7951861,116.873448 49.0231564,118.727327 Z" id="Fill-25" stroke="none" fill="#F7CAA7" fill-rule="evenodd"></path>
                        <path d="M48.8877727,117.697779 C48.7906202,119.452194 50.077053,120.99427 51.7587959,120.99427 C53.3500865,121.098699 54.8341744,119.762002 54.8341744,118.108535 L57.9966551,95.3672734 C58.0971577,92.4815386 55.9196021,90.1179511 53.249584,90.0135216 C50.4723631,89.8081437 48.0971525,91.9663531 48,94.8520879 L48.8877727,117.697779 Z" id="Fill-26" stroke="none" fill="#613D30" fill-rule="evenodd"></path>
                        <path d="M57.3869093,119.552033 L57.6974536,147 L52.3758524,147 L48.1023385,120.082854 L48,91.9072065 L59.0525563,89 C61.9780254,97.4192981 57.1751745,109.891812 57.3869093,119.552033 Z" id="Fill-27" stroke="none" fill="#401467" fill-rule="evenodd"></path>
                        <polygon id="Fill-28" stroke="none" fill="#401467" fill-rule="evenodd" points="58.7402471 147 63.8146944 147 69 119.30067 68.5780234 89 58 89 59.4876463 119.509202"></polygon>
                        <path d="M59,149.064873 L59,151.690564 C59.2278334,152.294132 59.7680192,152.495322 60.6389309,152.597621 L69.1091901,153 C70.5202876,153 74.8711713,152.597621 74.8711713,152.597621 C76.7158872,152.294132 75.8449755,151.489375 75.411357,151.387075 C73.8936923,151.288185 70.4100456,150.173119 67.5915255,149.467251 C65.1955996,148.761384 59,149.064873 59,149.064873 Z" id="Fill-29" stroke="none" fill="#625496" fill-rule="evenodd"></path>
                        <path d="M59.2413797,147.082342 C59.2413797,147.730101 58.9169483,148.377859 59.0203385,148.784081 C59.127294,149.352242 68.8281506,150 68.8281506,150 C69.0384963,150 70.4075257,149.755718 69.8798789,149.676121 C67.5660767,149.190302 62.8208212,147.730101 63.0311668,147 L59.2413797,147.082342 Z" id="Fill-30" stroke="none" fill="#F7CAA7" fill-rule="evenodd"></path>
                        <path d="M57.8896972,149 L58,151.409137 C57.8896972,151.962207 57.2389106,152.146564 56.3711951,152.23718 L47.8925851,152.883991 C46.4807091,153.068348 42.1311013,152.977732 42.1311013,152.977732 C40.2853675,152.699634 41.153083,151.962207 41.5869407,151.868466 C42.9988168,151.68411 46.4807091,150.477979 49.3044612,149.740552 C51.6943556,149 57.8896972,149 57.8896972,149 Z" id="Fill-31" stroke="none" fill="#625496" fill-rule="evenodd"></path>
                        <path d="M57.678836,147 C57.678836,147.900931 58,148.700254 58,149.099915 C58,149.801016 48.1882608,151 48.1882608,151 C47.9753544,151 46.5896582,150.901778 47.12012,150.701948 C49.4656994,150.000847 54.055818,147.900931 53.951169,147.101609 L57.678836,147 Z" id="Fill-32" stroke="none" fill="#F7CAA7" fill-rule="evenodd"></path>
                        <path d="M85.6935323,39.5963063 C86.2054726,36.166654 85.7945274,34.9907733 84.7671642,32.1926125 C84.1507463,30.4796011 83.5308458,30.1565968 83.4298507,31.1219804 C83.2243781,29.1948424 81.7825871,28.5524631 81.8870647,29.8372218 C81.681592,29.4089689 81.1661692,28.7665896 80.6542289,29.0859646 C80.2432836,29.300091 80.6542289,30.2654746 80.8597015,30.5884789 C80.3442786,30.5884789 79.7174129,31.0167318 80.3442786,32.3014904 C80.7552239,33.266874 80.6542289,34.1233797 80.6542289,34.1233797 C79.8218905,33.266874 79.2054726,33.266874 79,33.8003755 C79.6164179,34.9907733 80.1318408,36.9179112 81.0651741,38.4204255 C81.1661692,38.7398005 81.3716418,38.953927 81.5771144,39.1680534 L82.29801,47 L86,44.6446092 L85.6935323,39.5963063 Z" id="Fill-33" stroke="none" fill="#F7CAA7" fill-rule="evenodd"></path>
                        <path d="M82.1543461,57.616422 C81.5952221,55.7267603 82.6031667,53.8333267 84.4022527,53.1544063 C86.1975352,52.5961829 88.2286386,53.5994764 88.7915662,55.3910718 C89.4647971,57.2845054 88.4530489,59.1779389 86.5360524,59.8455439 C84.7369664,60.4037674 82.7172736,59.4004739 82.1543461,57.616422 Z" id="Fill-34" stroke="none" fill="#001F50" fill-rule="evenodd"></path>
                        <polygon id="Fill-35" stroke="none" fill="#5C2D91" fill-rule="evenodd" points="69.6928471 66 87 59.2397186 85.0329593 53 67 57.474026"></polygon>
                        <path d="M84.9483266,53.0258347 C86.8554056,52.8031078 88.6378636,54.0413181 88.9739627,55.9363837 C89.1967699,57.8314494 87.9694419,59.6132641 86.0661393,59.9492419 C84.1703895,60.2814447 82.3841551,58.9450836 82.0518324,57.050018 C81.7157334,55.1549523 83.0525768,53.3618125 84.9483266,53.0258347 Z" id="Fill-36" stroke="none" fill="#5C2D91" fill-rule="evenodd"></path>
                        <polygon id="Fill-37" stroke="none" fill="#5C2D91" fill-rule="evenodd" points="81 41.6221441 82.3856563 57 89 55.9630931 86.8673884 41"></polygon>
                        <path d="M57.9976467,56 L49.1007501,57.2380542 L47.3010737,67.0378632 L48.4005001,80.9563821 L47,90.7457287 C54.2020885,91.9837829 62.1010443,88.2765953 68.2037064,88.6881176 L67.9026327,80.9563821 L70,63.9374966 L67.2023827,57.2380542 L57.9976467,56 Z" id="Fill-38" stroke="none" fill="#5C2D91" fill-rule="evenodd"></path>
                        <path d="M63,52 L56.0513856,52.5308601 C56.0513856,52.5308601 55.935768,57.2327643 56.0513856,58.8325673 C56.0513856,60.1109652 56.3905304,63 59.3503395,63 C62.2060929,63 62.433474,60.1109652 62.5452377,58.8325673 C62.6608552,57.1244255 63,52 63,52 Z" id="Fill-39" stroke="none" fill="#F7CAA7" fill-rule="evenodd"></path>
                        <path d="M57.0194084,54 C56.6733274,56.9043385 61.0479474,57.2133854 62.7705755,56.9043385 L63,54.6216057 L57.0194084,54 Z" id="Fill-40" stroke="none" fill="#DEB695" fill-rule="evenodd"></path>
                        <path d="M61.9534072,44.9397168 C58.4966179,38.6057261 50.4040077,40.6813467 49.2176756,45.7297917 C48.0313434,50.7815845 51.911562,53.4497613 55.5873665,54.5444838 C58.3871103,55.5354253 61.5226774,54.6449171 63.033882,54.3469651 C64.6509439,54.0523609 64.4319288,53.3493281 64.4319288,53.3493281 C64.2165639,52.4621676 63.4646118,49.5931243 63.8953416,49.1010013 C65.6182609,48.4080119 64.8663089,48.0129744 64.6509439,47.8154557 C64.5414364,47.6078936 62.2782797,45.9273105 62.1687721,45.4351875 C62.0629148,45.3347543 62.0629148,45.1372355 61.9534072,44.9397168 L61.9534072,44.9397168 Z" id="Fill-41" stroke="none" fill="#F7CAA7" fill-rule="evenodd"></path>
                        <path d="M54.8049304,48.0388383 C54.4147913,47.9314201 54.1238401,48.0388383 54.0246522,48.4613499 C53.9287705,48.8838615 54.1238401,49.5176288 54.4147913,50.0475586 C54.6098609,50.4700702 54.8049304,50.7887442 55,51 C54.8049304,50.3662326 54.3189097,48.6726057 54.8049304,48.0388383 Z" id="Fill-42" stroke="none" fill="#DEB695" fill-rule="evenodd"></path>
                        <path d="M60.9051802,45.3184739 C60.8074886,44.8791501 59.4128565,43.4494861 59.3151649,43.5611786 C59.2141046,43.5611786 60.8074886,45.3184739 60.5076764,45.5381358 C59.7126687,46.0891522 56.0239681,45.098812 57.4152314,48.7362644 C57.6139833,49.2872807 56.6202238,49.0676188 55.9229078,48.9559263 C55.525404,48.8442338 55.2289605,48.9559263 55.1279002,49.3952502 C55.0302086,49.834574 55.2289605,50.4935597 55.525404,51.0445761 C55.7241559,51.4838999 55.9229078,51.8152543 56.1216597,52.0349162 C56.6202238,52.5822095 57.0177276,55.2330448 55.6264643,56 L55.6264643,56 C55.6264643,56 52.1365156,54.6708592 50.7418835,52.693902 C48.6533042,49.7266046 47.7606049,44.9908426 52.0354553,41.5804982 C55.8252162,38.4940621 60.9051802,40.1433881 62,44.6594882 L60.9051802,45.3184739 Z" id="Fill-43" stroke="none" fill="#353535" fill-rule="evenodd"></path>
                        <path d="M60.5298329,47.6679245 C60.6372315,47.6679245 60.8484487,47.7773585 60.9522673,47.7773585 C60.9522673,47.7773585 61.0596659,47.6679245 60.9522673,47.554717 C60.9522673,47.2226415 60.7410501,47 60.4224344,47 C60.1073986,47.109434 60,47.3320755 60,47.6679245 C60,47.7773585 60.1073986,47.890566 60.1073986,48 C60.2112172,47.7773585 60.3186158,47.7773585 60.5298329,47.6679245 Z" id="Fill-44" stroke="none" fill="#000000" fill-rule="evenodd"></path>
                        <path d="M61,51.3569079 C61,51.3569079 61.4645365,51.3569079 61.9322331,51.2088816 C62.2134831,51.2088816 62.3999298,51.2088816 62.5863764,51.0657895 L62.8644663,51.0657895 C62.8644663,50.9177632 62.9592697,51.0657895 62.9592697,51.0657895 C63.0509129,51.2088816 62.9592697,51.3569079 62.9592697,51.3569079 C62.9592697,51.3569079 62.9592697,51.3569079 62.8644663,51.3569079 L62.8644663,51.3569079 L62.5863764,51.3569079 C62.3999298,51.5 62.2134831,51.5 61.9322331,51.5 C61.4645365,51.3569079 61,51.3569079 61,51.3569079 Z" id="Fill-45" stroke="none" fill="#8A0000" fill-rule="evenodd"></path>
                        <path d="M61,51 L61.9516129,51 L62.6193548,51 L62.9032258,51 C63,51 63,51 63,51.145 C63,51.145 63,51.295 62.9032258,51.295 L62.9032258,51.295 L62.9032258,51.295 L62.6193548,51.295 C62.4290323,51.295 62.2387097,51.295 61.9516129,51.145 C61.4741935,51.145 61,51 61,51 Z" id="Fill-46" stroke="none" fill="#8A0000" fill-rule="evenodd"></path>
                        <path d="M48.5957639,48 C42.4302896,51.1049913 39.4097192,65.5050017 50,64.986335 C46.8697236,61.6780824 44.2660358,54.4237574 47.7327438,50.3795588 C48.3800088,49.5524956 49.1369799,49.4473605 49.243029,49.4473605 L48.5957639,48 Z" id="Fill-47" stroke="none" fill="#353535" fill-rule="evenodd"></path>
                        <path d="M102,24.1924577 L102,25 L99,19 C100.730533,19.8075423 101.910861,21.7737321 102,24.1924577 Z" id="Fill-48" stroke="none" fill="#F6F6F6" fill-rule="evenodd"></path>
                        <polygon id="Fill-49" stroke="none" fill="#8A79C7" fill-rule="evenodd" points="74 40.2669104 65.3349599 46 64 43.7330896 72.6510979 38"></polygon>
                        <polygon id="Fill-50" stroke="none" fill="#8A79C7" fill-rule="evenodd" points="83 34.369145 74.0691425 40 73.6772343 39.404461 72.3919082 37.3301115 72 36.7379182 81.0404589 31"></polygon>
                        <polygon id="Fill-51" stroke="none" fill="#8A79C7" fill-rule="evenodd" points="98 25.5231873 94.5209947 27.5982578 83.8622095 34 83.4533225 33.4104535 81.4088871 30.0563669 81 29.4668204 91.5444354 23.0650781 95.0338361 21"></polygon>
                        <polygon id="Fill-52" stroke="none" fill="#8A79C7" fill-rule="evenodd" points="104 24.7739726 100.110198 27 99.7660706 26.390411 96.4562591 21.739726 96 21.1267123 99.8820686 19"></polygon>
                        <path d="M64.8667639,45.8498907 L64.6771231,45.9549087 C64.5806956,46.0635479 64.3910547,45.9549087 64.2978415,45.8498907 L63.063569,43.6046797 C62.9671414,43.4960404 62.9671414,43.2823832 63.1567822,43.1773653 L63.3464231,43.0687261 C63.4428506,42.9637081 63.6324914,42.9637081 63.728919,43.1773653 L64.9599772,45.4225764 C65.0564048,45.5275943 64.9599772,45.7412515 64.8667639,45.8498907 Z" id="Fill-53" stroke="none" fill="#8A79C7" fill-rule="evenodd"></path>
                        <path d="M80.7287615,37 C79.9979529,35.8572123 79.5435005,34.2769512 79,33.3008201 C79.1811668,32.8633467 79.7246673,32.8633467 80.4585466,33.565685 C81.0020471,34.187671 81.4534289,35.5060432 82,35.1548741 L80.7287615,37 Z" id="Fill-54" stroke="none" fill="#F7CAA7" fill-rule="evenodd"></path>
                        <polygon id="Fill-55" stroke="none" fill="#401467" fill-rule="evenodd" points="47.943259 105 61 92.1919962 61 92.1919962 52.056741 83 39 95.9128156"></polygon>
                        <polygon id="Fill-56" stroke="none" fill="#5C2D91" fill-rule="evenodd" points="47.943259 105 61 92 61 92 39 95.7765957"></polygon>
                        <path d="M45.6903915,94.1638845 C46.3202847,97.5972938 47.0569395,98.5601018 48.8434164,100.928973 C50,102.433133 50.6298932,102.433133 50.5266904,101.575689 C51.2597865,103.290577 52.8469751,103.395941 52.4234875,102.218772 C52.7402135,102.647494 53.3701068,103.076216 53.7900356,102.647494 C54.1067616,102.218772 53.4768683,101.466692 53.1601423,101.143334 C53.6868327,101.03797 54.1067616,100.394887 53.1601423,99.4284455 C52.4234875,98.5601018 52.3202847,97.7026577 52.3202847,97.7026577 C53.2669039,98.3457407 54,98.1313797 54,97.4882967 C52.9501779,96.6308527 51.8896797,94.9123314 50.6298932,93.8405263 C50.4199288,93.6261653 50.1032028,93.4118043 49.8932384,93.1974433 L46.8469751,86 L44,89.4334094 L45.6903915,94.1638845 Z" id="Fill-57" stroke="none" fill="#F7CAA7" fill-rule="evenodd"></path>
                        <path d="M43.072566,81.6024449 C41.4043046,82.4971633 39.2916756,81.8261245 38.3916429,80.1466319 C37.5029077,78.3458215 38.1694591,76.2189697 39.958227,75.3242513 C41.6264884,74.5432683 43.7391174,75.2143071 44.6278526,76.8937997 C45.5165878,78.6832365 44.7408275,80.7077265 43.072566,81.6024449 Z" id="Fill-58" stroke="none" fill="#5C2D91" fill-rule="evenodd"></path>
                        <polygon id="Fill-59" stroke="none" fill="#5C2D91" fill-rule="evenodd" points="50 92.5529486 43.8949867 78 38 81.0830691 44.5250667 95"></polygon>
                    </g>
                </g>
            </g>
        </g>
    </g>
</svg>