<?xml version="1.0" encoding="UTF-8" standalone="no"?>
<svg
   xmlns:dc="http://purl.org/dc/elements/1.1/"
   xmlns:cc="http://creativecommons.org/ns#"
   xmlns:rdf="http://www.w3.org/1999/02/22-rdf-syntax-ns#"
   xmlns:svg="http://www.w3.org/2000/svg"
   xmlns="http://www.w3.org/2000/svg"
   height="23.35"
   width="24.000008"
   id="svg54"
   version="1.1"
   viewBox="0 0 24.000008 23.35">
  <metadata
     id="metadata58">
    <rdf:RDF>
      <cc:Work
         rdf:about="">
        <dc:format>image/svg+xml</dc:format>
        <dc:type
           rdf:resource="http://purl.org/dc/dcmitype/StillImage" />
        <dc:title>Logo</dc:title>
      </cc:Work>
    </rdf:RDF>
  </metadata>
  <defs
     id="defs42">
    <style
       id="style40">.cls-1,.cls-2{fill:#004880;}</style>
  </defs>
  <title
     id="title44">Logo</title>
  <g
     id="mark">
    <path
       d="M 17.87,4.34 H 11.19 A 6.16,6.16 0 0 0 5,10.51 v 6.68 a 6.16,6.16 0 0 0 6.16,6.16 h 6.68 A 6.16,6.16 0 0 0 24,17.18 V 10.51 A 6.16,6.16 0 0 0 17.87,4.34 Z m -8.16,7.8 a 2.5,2.5 0 1 1 2.5,-2.5 2.5,2.5 0 0 1 -2.5,2.51 z m 8,9.17 a 4,4 0 1 1 4,-4 4,4 0 0 1 -4.02,4.01 z"
       class="cls-2"
       data-name="mark"
       id="mark-2" />
    <circle
       id="circle49"
       r="2"
       cy="2"
       cx="2"
       class="cls-2" />
  </g>
</svg>
