<svg xmlns="http://www.w3.org/2000/svg" viewBox="0 0 16 16"><defs><style>@media screen and (-ms-high-contrast:active){.high-contrast-visible{fill: windowText;}}</style></defs><path d="M5.24 7.05a5.48 5.48 0 0 1-.18-.76A4.95 4.95 0 0 1 5 5.5a5.45 5.45 0 0 1 .75-2.77A5.6 5.6 0 0 1 7.73.75a5.5 5.5 0 0 1 5.54 0 5.6 5.6 0 0 1 1.98 1.98 5.5 5.5 0 0 1 0 5.54 5.6 5.6 0 0 1-1.98 1.98 5.45 5.45 0 0 1-2.77.75 5.35 5.35 0 0 1-2.5-.62V12H6v2H4v2H0v-3.7zM1 15h2v-2h2v-2h2V9h.7a4.28 4.28 0 0 0 1.32.74 4.45 4.45 0 0 0 1.48.26 4.35 4.35 0 0 0 1.75-.35 4.53 4.53 0 0 0 2.4-2.4A4.35 4.35 0 0 0 15 5.5a4.35 4.35 0 0 0-.35-1.75 4.53 4.53 0 0 0-2.4-2.4 4.5 4.5 0 0 0-3.5 0 4.53 4.53 0 0 0-2.4 2.4A4.35 4.35 0 0 0 6 5.5a3.88 3.88 0 0 0 .1.93 7.33 7.33 0 0 0 .3.9L1 12.7zM12.4 3.08a1.02 1.02 0 0 1 .52.53 1.02 1.02 0 0 1 0 .8 1.02 1.02 0 0 1-.53.52 1.02 1.02 0 0 1-.8 0 1.02 1.02 0 0 1-.52-.53 1.02 1.02 0 0 1 0-.8 1.02 1.02 0 0 1 .53-.52 1 1 0 0 1 .8 0z" class="high-contrast-visible"/></svg>