<svg xmlns="http://www.w3.org/2000/svg" viewBox="0 0 16 16"><defs><style>@media screen and (-ms-high-contrast:active){.high-contrast-visible{fill: windowText;}}</style></defs><path d="M16 5.5a5.45 5.45 0 0 1-.75 2.77c-.07.13-.16.25-.25.37l-.38-.38-.62.62v-.6a4.62 4.62 0 0 0 .64-1.03A4.35 4.35 0 0 0 15 5.5a4.35 4.35 0 0 0-.36-1.75 4.53 4.53 0 0 0-2.4-2.4 4.5 4.5 0 0 0-3.5 0 4.53 4.53 0 0 0-2.38 2.4A4.35 4.35 0 0 0 6 5.5a3.88 3.88 0 0 0 .1.93 7.33 7.33 0 0 0 .3.9L1 12.7V15h2v-2h2v-2h2V9h.7a4.27 4.27 0 0 0 1.24.7l-.68.68.22.22c-.16-.07-.32-.14-.48-.22V12H6v2H4v2H0v-3.7l5.24-5.25a5.5 5.5 0 0 1-.18-.76A4.95 4.95 0 0 1 5 5.5a5.45 5.45 0 0 1 .75-2.77A5.6 5.6 0 0 1 7.73.75a5.5 5.5 0 0 1 5.54 0 5.6 5.6 0 0 1 1.98 1.98A5.45 5.45 0 0 1 16 5.5zm-3.3-2.2a1.02 1.02 0 0 0-.3-.22 1.02 1.02 0 0 0-.8 0 1.02 1.02 0 0 0-.52.53 1.02 1.02 0 0 0 0 .8 1.02 1.02 0 0 0 .53.52 1.02 1.02 0 0 0 .8 0 1.02 1.02 0 0 0 .52-.53 1.02 1.02 0 0 0 0-.8 1.02 1.02 0 0 0-.2-.3z" class="high-contrast-visible"/><path fill="#0075cc" d="M10.38 9.67l1.42 1.42-.7.7-1.43-1.42zm-.7 4.95l.7.7 1.42-1.4-.7-.72zM11 12H9v1h2zm4.33-1.62l-.7-.7-1.43 1.4.7.72zM12 11h1V9h-1zm0 5h1v-2h-1zm2-4v1h2v-1zm-.8 1.9l1.4 1.43.72-.7-1.4-1.43z"/></svg>