<svg xmlns="http://www.w3.org/2000/svg" viewBox="0 0 16 16"><title>nuget-key-expired</title><defs><style>@media screen and (-ms-high-contrast:active){.high-contrast-visible{fill: windowText;}}</style></defs><path d="M16,5.5a5.446,5.446,0,0,1-.75,2.773c-.094.159-.2.308-.309.456a4.481,4.481,0,0,0-.931-.45,4.625,4.625,0,0,0,.635-1.029A4.347,4.347,0,0,0,15,5.5a4.349,4.349,0,0,0-.356-1.75A4.525,4.525,0,0,0,12.25,1.355a4.485,4.485,0,0,0-3.5,0A4.525,4.525,0,0,0,6.356,3.75,4.349,4.349,0,0,0,6,5.5a3.878,3.878,0,0,0,.109.926,7.344,7.344,0,0,0,.281.895L1,12.711V15H3V13H5V11H7V9h.7a4.274,4.274,0,0,0,1.286.729,4.48,4.48,0,0,0-.537.855c-.15-.062-.3-.125-.445-.2V12H6v2H4v2H0V12.289L5.242,7.055a5.494,5.494,0,0,1-.18-.766A4.947,4.947,0,0,1,5,5.5a5.446,5.446,0,0,1,.75-2.773A5.613,5.613,0,0,1,7.727.75a5.485,5.485,0,0,1,5.547,0A5.613,5.613,0,0,1,15.25,2.727,5.446,5.446,0,0,1,16,5.5ZM12.707,3.293a1.017,1.017,0,0,0-.316-.215,1.016,1.016,0,0,0-.781,0,1.019,1.019,0,0,0-.531.531,1.016,1.016,0,0,0,0,.781,1.019,1.019,0,0,0,.531.531,1.016,1.016,0,0,0,.781,0,1.019,1.019,0,0,0,.531-.531,1.016,1.016,0,0,0,0-.781A1.018,1.018,0,0,0,12.707,3.293Z" fill="#000" class="high-contrast-visible" /><path d="M12.5,9A3.5,3.5,0,1,0,16,12.5,3.5,3.5,0,0,0,12.5,9ZM10,12.5a2.483,2.483,0,0,1,.416-1.376l3.46,3.46A2.5,2.5,0,0,1,10,12.5Zm4.584,1.377-3.46-3.46a2.5,2.5,0,0,1,3.46,3.46Z" fill="#e81123"/></svg>