<svg xmlns="http://www.w3.org/2000/svg" viewBox="0 0 16 16"><defs><style>@media screen and (-ms-high-contrast:active){.high-contrast-visible{fill: windowText;}}</style></defs><path d="M16 5.5a5.45 5.45 0 0 1-.75 2.77c-.1.16-.2.3-.3.46a4.48 4.48 0 0 0-.94-.45 4.63 4.63 0 0 0 .65-1.03A4.35 4.35 0 0 0 15 5.5a4.35 4.35 0 0 0-.36-1.75 4.53 4.53 0 0 0-2.4-2.4 4.5 4.5 0 0 0-3.5 0 4.53 4.53 0 0 0-2.38 2.4A4.35 4.35 0 0 0 6 5.5a3.88 3.88 0 0 0 .1.93 7.34 7.34 0 0 0 .3.9L1 12.7V15h2v-2h2v-2h2V9h.7a4.27 4.27 0 0 0 1.3.73 4.48 4.48 0 0 0-.55.85c-.15-.06-.3-.12-.45-.2V12H6v2H4v2H0v-3.7l5.24-5.25a5.5 5.5 0 0 1-.18-.76A4.95 4.95 0 0 1 5 5.5a5.45 5.45 0 0 1 .75-2.77A5.6 5.6 0 0 1 7.73.75a5.5 5.5 0 0 1 5.54 0 5.6 5.6 0 0 1 1.98 1.98A5.45 5.45 0 0 1 16 5.5zm-3.3-2.2a1.02 1.02 0 0 0-.3-.22 1.02 1.02 0 0 0-.8 0 1.02 1.02 0 0 0-.52.53 1.02 1.02 0 0 0 0 .8 1.02 1.02 0 0 0 .53.52 1.02 1.02 0 0 0 .8 0 1.02 1.02 0 0 0 .52-.53 1.02 1.02 0 0 0 0-.8 1.02 1.02 0 0 0-.2-.3z" class="high-contrast-visible"/><path fill="#e81123" d="M12.5 9a3.5 3.5 0 1 0 3.5 3.5A3.5 3.5 0 0 0 12.5 9zM10 12.5a2.48 2.48 0 0 1 .42-1.38l3.46 3.46A2.5 2.5 0 0 1 10 12.5zm4.58 1.38l-3.46-3.46a2.5 2.5 0 0 1 3.46 3.46z"/></svg>