<svg xmlns="http://www.w3.org/2000/svg" width="225" height="225"><defs><circle cx="112.5" cy="112.5" r="112.5"/></defs><g fill="none"><g><mask><use xlink:href="#a"/></mask><use fill="#0078D7" xlink:href="#a"/><path fill="#0063B0" d="M193.48 158.84h-9.7c.2-.45.2-.8.2-1.26 0-1.96-1.5-3.58-3.53-3.58H33.52c-1.94 0-3.52 1.62-3.52 3.58 0 1.97 1.58 3.6 3.52 3.6h67.35c-.18.35-.27.8-.27 1.24 0 1.97 1.6 3.58 3.52 3.58h89.36c1.94 0 3.52-1.6 3.52-3.58 0-1.97-1.58-3.58-3.52-3.58z"/><path fill="#A80000" d="M145.24 115.36l-6.77-7.16c-.44-.44-.88-.7-1.4-.8V91H58v21.3h4.57V95.7h69.92v15.38l-3.62 4.2c-.97 1.04-1.67 3.04-1.67 4.36v34.83c0 1.4 1.15 2.53 2.56 2.53h14.68c1.42 0 2.56-1.13 2.56-2.53v-34.83c0-1.32-.8-3.32-1.76-4.28z"/><path fill="#401467" d="M103.9 73.34l-3.04-7.32c-.18-.44-.7-.87-1.16-.87l-.45-.1-.9 6.2-2.15 2.44-3.58-.44-1.43-3.06.88-6.1-.45-.08c-.44-.1-1.07.17-1.34.52l-5.03 6.27c-.27.36-.36.97-.18 1.4l3.04 7.33c.17.44.62.87 1.16.96l.63.08-4.57 31.46 6.8.96 4.58-31.55.62.08c.46.1 1.1-.17 1.36-.52l5-6.18c.28-.43.37-1.04.2-1.48z"/><path fill="#5C2D91" d="M102.9 73.26l-2.4-6.2-.6 4.36-2.14 2.54-2.25-.35-3.42-.42-1.37-3.06.86-6.12-.25 1.83L87.27 71c-.26.42-.34 1.04-.17 1.48L90 79.8c.17.45.7.88 1.1.88l.7.18-4.4 31.52 4.23.62 4.38-31.62.6.1c.44.08 1.04-.2 1.3-.54l4.8-6.2c.27-.43.35-1.04.18-1.48z"/><path fill="#FFB900" d="M84 75.82c-3.42-9.74-16.57-7.63-16.57-7.63h-.1c-.86.08-2.18.17-3.76.6h-.28c-.08 0-.17.1-.26.1h-.17c-2.72.7-4.38 1.57-4.47 1.92-.18 1.14-.88 1.5-1.23 1.57-.35.08-1.32 0-2.02-.35-1.22-.44-3.06-.62-3.06-.62l-1.15.27-.8.26H50c-.7.17-1.06.88-.97 1.5l1.6 6.57c.17.6.87 1.05 1.5.87h.16l2.1-.52s1.58-.88 2.28-1.75c.53-.62 1.32-1.15 1.67-1.24.27 0 .7 0 1.06.26 0 0 0 0 0 .08l.18.62c.17.7.87 1.05 1.58.97l2-.53 5.62 24.2 4.47-1.14-5.6-24.12 2.02-.43c.6-.17 1.05-.87.88-1.57l-.1-.44c5.88-4.3 12.8.26 13.6.52z"/><path fill="#5C2D91" d="M79.96 118.74c.18.7-.26 1.4-.97 1.57l-7.06 1.66c-.7.18-1.4-.26-1.6-.95l-7.3-30.84c-.18-.6.26-1.3.97-1.47l7.06-1.66c.7-.18 1.4.26 1.58.95l7.32 30.74z"/><path fill="#401467" d="M65.2 88l-1.2.26c-.7.18-1.13.88-.96 1.5l7.2 31.24c.17.7.86 1.14 1.55.96l1.2-.35L65.2 88z"/><path fill="#DB9D00" d="M52.45 79.5l-1.4-6.83c-.15-.75.25-1.5.83-1.67l-1.06.28-.74.28h-.16c-.66.18-1 .92-.9 1.57l1.47 6.9c.15.65.8 1.1 1.38.93h.16L54 80.4l-.08.1c-.66.1-1.3-.28-1.47-1z"/><path fill="#DB9D00" d="M64.66 78l-1.66.36L65.43 88l1.57-.36z"/><path fill="#fff" d="M84.3 99.68c-.16-.8-.25-1.6-.25-2.4 0-6.68 5.36-12.03 11.94-12.03 2.63 0 5.1.9 7.02 2.32 2.64-4.55 7.47-7.57 13-7.57 8.1 0 14.77 6.6 14.86 14.87h.18c6.6 0 11.94 5.34 11.94 12.02 0 6.67-5.35 12.1-11.94 12.1H84.58c-5.28 0-9.58-4.36-9.58-9.7 0-5.26 4.13-9.53 9.3-9.62z"/><path fill="#DBDBDB" d="M78.85 102c-.8 1.4-1.23 2.95-1.23 4.5 0 5.22 4.3 9.47 9.54 9.47h46.3c2.9 0 5.53-1.04 7.54-2.7-2.1 3.4-5.86 5.73-10.15 5.73h-46.3c-5.26 0-9.55-4.24-9.55-9.45 0-3.04 1.5-5.8 3.85-7.55z"/><path fill="#E81123" d="M60 157h87v-40H60z"/><path fill="#BA1121" d="M69 149s13.3-32 78-32H69v32z"/><path fill="#8A0000" d="M146 157v-2H69.53c-.26 1.17-1.22 2-2.53 2h79z"/><path fill="#A80000" d="M71 116.86l-8.62-9.06c-.98-1.07-2.5-1.07-3.47 0l-7.8 8.88c-.1.1-.1.18-.1.27v38.82c0 .7.53 1.23 1.25 1.23h17.42c.7 0 1.33-.53 1.33-1.23v-38.9z"/><path fill="#000" d="M109.47 160c-.78 0-1.47-.62-1.47-1.4v-45.1c0-.8.7-1.5 1.47-1.5h32.15c.7 0 1.38.7 1.38 1.5v45.1c0 .78-.7 1.4-1.38 1.4h-32.15z"/><path fill="#636363" d="M109.4 160c-.8 0-1.4-.62-1.4-1.4v-45.1c0-.8.6-1.5 1.4-1.5h32.2c.8 0 1.4.7 1.4 1.5v45.1c0 .78-.6 1.4-1.4 1.4h-32.2z"/><path fill="#FFB900" d="M112 157h27v-41h-27z"/><path fill="#A7A7A7" d="M141 137l.06 1h.75l.2-1z"/><path fill="#E81123" d="M174.27 159.44l-1.27-2.56 1.6-.88 1.28 2.64c.25.45.08.97-.34 1.24-.43.26-1.02.1-1.27-.44z"/><path fill="#5C2D91" d="M135.26 69l-6.2 3.18-3.06 1.58L165.74 152l3.15-1.58 6.1-3.18z"/><path fill="#28114A" d="M126 70.96l1.5 3.04 7.5-3.96-1.6-3.04z"/><path fill="#5C2D91" d="M176 156.56l-1.1-9.56-8.9 4.57 7.14 6.43z"/><path fill="#401467" d="M126 74.6l39.84 78.4 3.16-1.6L129.07 73z"/><path fill="#5C2D91" d="M131.32 60.86c-.34-.8-1.3-1.06-2-.7l-3.45 1.83c-.35.17-.86.43-1.38.7-.45.17-.96.43-1.3.6l-.44.27c-.7.35-.95 1.3-.6 2L124.9 71l3.02-1.66L134 66.2l-2.68-5.34z"/><path fill="#401467" d="M127.97 69.16l-3.2-5.95c-.2-.17-.47-.25-.65-.17-.37.18-.74.35-1 .44-1.02.53-1.38 1.75-.93 2.7l2.47 4.56c.18.27.46.35.64.18l2.4-1.13c.27-.1.36-.44.27-.6z"/><path fill="#5C2D91" d="M167.84 133L162 121.7l1.24-.7 5.76 11.38z"/><path fill="#401467" d="M167.35 133L162 121.45l.65-.45 5.35 11.64z"/><path fill="#fff" d="M115 153h23v-29h-23z"/><path fill="#001F50" d="M133.3 121.1h-4.1c0-1.77-1.4-3.1-3.07-3.1-1.75 0-3.14 1.33-3.14 3.1h-4.3c-.35 0-.7.27-.7.7v2.5c0 .35.35.7.7.7h14.6c.44 0 .7-.35.7-.7v-2.5c0-.43-.26-.7-.7-.7zm-8.92 0c0-.97.8-1.77 1.75-1.77.87 0 1.66.8 1.66 1.77h-3.42z"/><path fill="#0078D7" d="M133.22 137h-14.44c-.43 0-.78-.44-.78-1 0-.55.35-1 .78-1h14.44c.43 0 .78.45.78 1 0 .56-.35 1-.78 1z"/><path fill="#0078D7" d="M126.18 132h-7.36c-.46 0-.82-.42-.82-.95 0-.52.36-1.05.82-1.05h7.36c.46 0 .82.53.82 1.05 0 .53-.36.95-.82.95z"/><path fill="#0078D7" d="M133.22 140h-14.44c-.43 0-.78-.44-.78-1s.35-1 .78-1h14.44c.43 0 .78.44.78 1s-.35 1-.78 1z"/><path fill="#0078D7" d="M133.22 143h-14.44c-.43 0-.78-.44-.78-1s.35-1 .78-1h14.44c.43 0 .78.44.78 1s-.35 1-.78 1z"/><path fill="#0078D7" d="M133.22 146h-14.44c-.43 0-.78-.44-.78-1s.35-1 .78-1h14.44c.43 0 .78.44.78 1s-.35 1-.78 1z"/><path fill="#0078D7" d="M133.22 149h-14.44c-.43 0-.78-.44-.78-1s.35-1 .78-1h14.44c.43 0 .78.44.78 1s-.35 1-.78 1z"/></g></g></svg>