<?xml version="1.0" encoding="UTF-8"?>
<svg width="225px" height="225px" viewBox="0 0 225 225" version="1.1" xmlns="http://www.w3.org/2000/svg" xmlns:xlink="http://www.w3.org/1999/xlink">
    <defs>
        <circle id="path-1" cx="112.5" cy="112.5" r="112.5"></circle>
    </defs>
    <g id="Main" stroke="none" stroke-width="1" fill="none" fill-rule="evenodd">
        <g transform="translate(-363.000000, -1147.000000)" id="BlueCircle">
            <g transform="translate(363.000000, 1147.000000)">
                <mask id="mask-2" fill="white">
                    <use xlink:href="#path-1"></use>
                </mask>
                <use id="Mask" fill="#0078D7" xlink:href="#path-1"></use>
                <g id="Page-1">
                    <g transform="translate(30.000000, 60.000000)">
                        <path d="M163.482172,98.8381722 L153.792509,98.8381722 C153.968251,98.3898006 153.968251,98.0323151 153.968251,97.5839434 C153.968251,95.6177733 152.472951,94 150.450424,94 L3.51782752,94 C1.58168198,94 0,95.6177733 0,97.5839434 C0,99.5531431 1.58168198,101.170916 3.51782752,101.170916 L70.8659056,101.170916 C70.6901632,101.528402 70.6037813,101.976774 70.6037813,102.422116 C70.6037813,104.391315 72.1854633,106 74.1216088,106 L163.482172,106 C165.415339,106 167,104.391315 167,102.422116 C167,100.446857 165.415339,98.8381722 163.482172,98.8381722 Z" id="Fill-2" fill="#0063B0"></path>
                        <path d="M115.241365,55.3565101 L108.468688,48.2013423 C108.031261,47.7642953 107.590859,47.4955705 107.064161,47.4069799 L107.064161,31 L28,31 L28,52.2971812 L32.5676887,52.2971812 L32.5676887,35.7100671 L102.487546,35.7100671 L102.487546,51.0775839 L98.87803,55.2708725 C97.9109298,56.3162416 97.2086663,58.3213423 97.2086663,59.6383893 L97.2086663,94.4722148 C97.2086663,95.8660403 98.3513324,97 99.7647865,97 L114.44388,97 C115.857334,97 117,95.8660403 117,94.4722148 L117,59.6383893 C117,58.3213423 116.208466,56.3162416 115.241365,55.3565101 Z" id="Fill-3" fill="#A80000"></path>
                        <path d="M73.9065713,13.3445264 L70.8627281,6.01893525 C70.6838569,5.5826425 70.1472431,5.14929767 69.6985491,5.14929767 L69.2528868,5.06085995 L68.3585305,11.2485524 L66.1999486,13.6923814 L62.6194917,13.2590366 L61.1885216,10.2049873 L62.0828779,4.10278465 L61.6341839,4.01729485 C61.1885216,3.92885713 60.5609563,4.19122237 60.2941653,4.5390774 L55.2736432,10.8122597 C55.0038204,11.1601147 54.9128689,11.770335 55.0947719,12.2125236 L58.1355833,19.5322189 C58.3144546,19.9685116 58.7631486,20.4018564 59.2997624,20.4902942 L59.9333911,20.5757839 L55.361563,52.0360289 L62.1738294,53 L66.739594,21.4483695 L67.3641276,21.5338592 C67.818885,21.622297 68.4464503,21.3599317 68.716273,21.0120767 L73.7277,14.8243842 C73.9975228,14.3880915 74.0854425,13.7808191 73.9065713,13.3445264 Z" id="Fill-4" fill="#401467"></path>
                        <path d="M72.9103403,13.2611684 L70.5042557,7.06046904 L69.9049167,11.4237053 L67.7577699,13.9583409 L65.5146124,13.6097546 L62.0785957,13.1754989 L60.7053528,10.1150298 L61.5636296,4 L61.3076012,5.83155483 L57.2606078,10.9864954 C57.0045794,11.4237053 56.917297,12.0411165 57.0889524,12.4753723 L60.0187313,19.810454 C60.1903867,20.2476638 60.7053528,20.6819196 61.1330365,20.6819196 L61.8225673,20.8562127 L57.4322631,52.3825888 L61.650912,53 L66.032488,21.3820462 L66.631827,21.4677157 C67.068239,21.5563393 67.6704875,21.2934226 67.9294252,20.9448363 L72.7386849,14.744137 C72.9976227,14.3069271 73.0819957,13.6983782 72.9103403,13.2611684 Z" id="Fill-5" fill="#5C2D91"></path>
                        <path d="M54,15.8172573 C50.5767094,6.08413914 37.4293749,8.19268486 37.4293749,8.19268486 L37.3433477,8.19268486 C36.4652766,8.27868743 35.1452035,8.3676556 33.5670488,8.80656526 L33.4810215,8.80656526 L33.3920279,8.80656526 L33.3060006,8.80656526 L33.3060006,8.80656526 L33.3060006,8.80656526 L33.3060006,8.80656526 C33.2170069,8.80656526 33.1309797,8.89256782 33.041986,8.89256782 L32.8669651,8.89256782 L32.8669651,8.89256782 C30.1526575,9.59245079 28.4884755,10.4702701 28.3994818,10.8202116 C28.2244609,11.9590042 27.5184443,12.3089457 27.165436,12.3949483 C26.8153942,12.4839164 25.8542623,12.3949483 25.1512122,12.0450068 C23.9260657,11.6060971 22.0868628,11.4311264 22.0868628,11.4311264 L20.9477435,11.6950653 L20.1586662,11.9590042 L19.9836452,11.9590042 C19.2746622,12.133975 18.9246203,12.8397891 19.013614,13.4536695 L20.5977017,20.0284176 C20.7727226,20.642298 21.4728063,21.078242 22.0868628,20.9032713 L22.2618837,20.9032713 L22.2618837,20.9032713 L24.3651012,20.378359 C24.3651012,20.378359 25.9402895,19.5035053 26.6403732,18.6286516 C27.165436,18.0058744 27.9634128,17.4809622 28.3134546,17.3949596 C28.5745028,17.3949596 29.0135383,17.3949596 29.3635802,17.6559329 C29.3635802,17.6559329 29.3635802,17.6559329 29.3635802,17.7449011 L29.5386011,18.3587815 C29.713622,19.0645957 30.4137057,19.4145372 31.1167558,19.3285346 L33.1309797,18.8036224 L38.7435151,43 L43.2109983,41.8612074 L37.6043958,17.7449011 L39.6186197,17.3059914 C40.2326762,17.1310207 40.6717117,16.4311377 40.4966908,15.7312548 L40.4076971,15.2923451 C46.2842471,10.9951823 53.2109226,15.556284 54,15.8172573 Z" id="Fill-6" fill="#FFB900"></path>
                        <path d="M49.9601408,58.743906 C50.1390774,59.446233 49.6977006,60.1397443 48.9938836,60.3131221 L41.9408019,61.9616806 C41.2369849,62.1350584 40.5331679,61.7030832 40.3542313,61.009572 L33.0387094,30.1630147 C32.8627552,29.5547231 33.304132,28.8612118 34.007949,28.687834 L41.0610306,27.0392755 C41.7648477,26.8629591 42.4686647,27.2978729 42.6446189,27.9913842 L49.9601408,58.743906 Z" id="Fill-7" fill="#5C2D91"></path>
                        <path d="M35.2016543,28 L33.9908585,28.2648568 C33.2989752,28.4404361 32.8650823,29.1427531 33.0380531,29.7587685 L40.2295351,60.9969961 C40.4054376,61.6993131 41.0973209,62.1367733 41.7892042,61.961194 L43,61.6100355 L35.2016543,28 Z" id="Fill-8" fill="#401467"></path>
                        <path d="M22.4490675,19.4873161 L21.0612455,12.6650356 C20.8953704,11.9229411 21.304529,11.1839646 21.8767983,11 L21.8767983,11 L20.8151974,11.2775059 L20.0798176,11.5550119 L19.9167071,11.5550119 C19.2559711,11.7389765 18.92975,12.481071 19.0126876,13.1265061 L20.4889763,20.0392099 C20.6520868,20.684645 21.304529,21.1429975 21.8767983,20.9590329 L22.0399088,20.9590329 L22.0399088,20.9590329 L24,20.4071391 L24,20.4071391 L24,20.4071391 L23.9170624,20.5006804 C23.2646202,20.5911037 22.612178,20.2231745 22.4490675,19.4873161 Z" id="Fill-9" fill="#DB9D00"></path>
                        <polygon id="Fill-10" fill="#DB9D00" points="34.6553998 18 33 18.3630769 35.4336356 28 37 27.6369231"></polygon>
                        <path d="M54.3108333,39.6792307 C54.1354376,38.877964 54.0492262,38.0766973 54.0492262,37.2754306 C54.0492262,30.597204 59.4091982,25.2534178 65.9939669,25.2534178 C68.6338201,25.2534178 71.0923319,26.1420406 73.0246568,27.5668495 C75.6645099,23.02433 80.4923494,20 86.0306899,20 C94.1137536,20 100.790679,26.5878582 100.879864,34.8686182 L101.055259,34.8686182 C107.645974,34.8686182 113,40.2124044 113,46.890631 C113,53.5748822 107.645974,59 101.055259,59 L54.5754131,59 C49.3016525,59 45,54.6442419 45,49.3004557 C45,44.0440256 49.1262569,39.7665869 54.3108333,39.6792307 Z" id="Fill-11" fill="#FFFFFF"></path>
                        <path d="M48.8475071,42 C48.0596419,43.3936831 47.6242427,44.9516741 47.6242427,46.5125992 C47.6242427,51.7176389 51.9160346,55.969106 57.16452,55.969106 L103.473814,55.969106 C106.364628,55.969106 108.98887,54.9304453 111,53.27563 C108.902975,56.6615464 105.13544,59 100.849571,59 L54.5402773,59 C49.2858682,59 45,54.7573352 45,49.5522955 C45,46.5125992 46.4868734,43.7399033 48.8475071,42 Z" id="Fill-12" fill="#DBDBDB"></path>
                        <polygon id="Fill-13" fill="#E81123" points="30 97 117 97 117 57 30 57"></polygon>
                        <path d="M39,89 C39,89 52.3080428,57 117,57 L39,57 L39,89 Z" id="Fill-14" fill="#BA1121"></path>
                        <path d="M116,97 L116,95 L39.5339846,95 C39.2708287,96.1666667 38.309866,97 37,97 L116,97 Z" id="Fill-15" fill="#8A0000"></path>
                        <path d="M41,56.8576767 L32.3761468,47.797219 C31.4015641,46.7342603 29.8915626,46.7342603 28.913972,47.797219 L21.0902391,56.6820056 C21,56.7713299 21,56.8576767 21,56.9470009 L21,95.7703027 C21,96.4729869 21.5324109,97 22.2453,97 L39.6674688,97 C40.37735,97 41,96.4729869 41,95.7703027 L41,56.8576767 Z" id="Fill-16" fill="#A80000"></path>
                        <path d="M79.4716475,100 C78.6947818,100 78,99.3831017 78,98.5979584 L78,53.4876399 C78,52.6965933 78.6947818,52 79.4716475,52 L111.6163,52 C112.30815,52 113,52.6965933 113,53.4876399 L113,98.5979584 C113,99.3831017 112.30815,100 111.6163,100 L79.4716475,100 Z" id="Fill-17" fill="#000000"></path>
                        <path d="M79.3900084,100 C78.6083123,100 78,99.3831017 78,98.5979584 L78,53.4876399 C78,52.6965933 78.6083123,52 79.3900084,52 L111.609992,52 C112.391688,52 113,52.6965933 113,53.4876399 L113,98.5979584 C113,99.3831017 112.391688,100 111.609992,100 L79.3900084,100 Z" id="Fill-18" fill="#636363"></path>
                        <polygon id="Fill-19" fill="#FFB900" points="82 97 109 97 109 56 82 56"></polygon>
                        <polygon id="Fill-20" fill="#A7A7A7" points="111 77 111.063425 78 111.811839 78 112 77"></polygon>
                        <path d="M144.267821,99.4379734 L143,96.8833682 L144.605525,96 L145.881933,98.6441358 C146.13378,99.0858199 145.964928,99.6140501 145.544228,99.8796575 L145.544228,99.8796575 C145.112082,100.14228 144.52253,99.9662037 144.267821,99.4379734 Z" id="Fill-21" fill="#E81123"></path>
                        <polygon id="Fill-22" fill="#5C2D91" points="105.259168 9 99.0617612 12.1803738 96 13.7645938 135.740832 92 138.891255 90.41578 145 87.2354062"></polygon>
                        <polygon id="Fill-23" fill="#28114A" points="96 10.9550312 97.5135678 14 105 10.0356189 103.39598 7"></polygon>
                        <polygon id="Fill-24" fill="#5C2D91" points="146 96.5634755 144.903097 87 136 91.5699792 143.141233 98"></polygon>
                        <polygon id="Fill-25" fill="#401467" points="96 14.5878 135.84159 93 139 91.4122 99.0695239 13"></polygon>
                        <path d="M101.321907,0.858538543 C100.976536,0.0654508075 100.0253,-0.197925344 99.3345574,0.151270003 L95.8691345,1.99490306 C95.523763,2.16950073 95.0057057,2.4299176 94.4876484,2.69329375 C94.0544705,2.86789143 93.5364132,3.12830829 93.1910417,3.30290597 L92.7578638,3.56628212 C92.0671207,3.91547747 91.8066286,4.87724431 92.1520002,5.575635 L94.9178993,11 L97.9442906,9.33984246 L104,6.1882065 L101.321907,0.858538543 Z" id="Fill-26" fill="#5C2D91"></path>
                        <path d="M97.9663632,9.15990931 L94.7589997,3.20956022 C94.5759877,3.03489823 94.2999187,2.94608705 94.1169067,3.03489823 C93.7508826,3.20956022 93.3848585,3.38422221 93.1118914,3.47007301 L93.1118914,3.47007301 C92.1037743,3.99701935 91.7377503,5.21965327 92.1937294,6.18177439 L94.6690447,10.7348276 C94.8520567,10.9953404 95.1250238,11.0841515 95.3080358,10.9094896 L97.6902942,9.77270645 C97.9663632,9.68389527 98.0563182,9.3345713 97.9663632,9.15990931 Z" id="Fill-27" fill="#401467"></path>
                        <polygon id="Fill-28" fill="#5C2D91" points="137.842827 73 132 61.7095966 133.238116 61 139 72.3806064"></polygon>
                        <polygon id="Fill-29" fill="#401467" points="137.347051 73 132 61.4520759 132.647462 61 138 72.6371092"></polygon>
                        <polygon id="Fill-30" fill="#FFFFFF" points="85 93 108 93 108 64 85 64"></polygon>
                        <path d="M103.298946,61.1027837 L99.1961546,61.1027837 C99.1961546,59.3250535 97.7910889,58 96.1316325,58 C94.383435,58 92.9872435,59.3250535 92.9872435,61.1027837 L88.6980958,61.1027837 C88.3490479,61.1027837 88,61.3695931 88,61.8132762 L88,64.2895075 C88,64.6462527 88.3490479,65 88.6980958,65 L103.298946,65 C103.736735,65 104,64.6462527 104,64.2895075 L104,61.8132762 C104,61.3695931 103.736735,61.1027837 103.298946,61.1027837 Z M94.383435,61.1027837 C94.383435,60.1314775 95.1702718,59.3250535 96.1316325,59.3250535 C97.0042522,59.3250535 97.7910889,60.1314775 97.7910889,61.1027837 L94.383435,61.1027837 Z" id="Fill-31" fill="#001F50"></path>
                        <path d="M103.221653,77 L88.7783467,77 C88.3452816,77 88,76.556391 88,76 C88,75.4473684 88.3452816,75 88.7783467,75 L103.221653,75 C103.654718,75 104,75.4473684 104,76 C104,76.556391 103.654718,77 103.221653,77 Z" id="Fill-32" fill="#0078D7"></path>
                        <path d="M96.1818182,72 L88.8181818,72 C88.3629528,72 88,71.5808171 88,71.0479574 C88,70.5257549 88.3629528,70 88.8181818,70 L96.1818182,70 C96.6370472,70 97,70.5257549 97,71.0479574 C97,71.5808171 96.6370472,72 96.1818182,72 Z" id="Fill-33" fill="#0078D7"></path>
                        <path d="M103.221653,80 L88.7783467,80 C88.3452816,80 88,79.5555556 88,79.0018832 C88,78.4444444 88.3452816,78 88.7783467,78 L103.221653,78 C103.654718,78 104,78.4444444 104,79.0018832 C104,79.5555556 103.654718,80 103.221653,80 Z" id="Fill-34" fill="#0078D7"></path>
                        <path d="M103.221653,83 L88.7783467,83 C88.3452816,83 88,82.556391 88,82 C88,81.443609 88.3452816,81 88.7783467,81 L103.221653,81 C103.654718,81 104,81.443609 104,82 C104,82.556391 103.654718,83 103.221653,83 Z" id="Fill-35" fill="#0078D7"></path>
                        <path d="M103.221653,86 L88.7783467,86 C88.3452816,86 88,85.5555556 88,84.9981168 C88,84.4444444 88.3452816,84 88.7783467,84 L103.221653,84 C103.654718,84 104,84.4444444 104,84.9981168 C104,85.5555556 103.654718,86 103.221653,86 Z" id="Fill-36" fill="#0078D7"></path>
                        <path d="M103.221653,89 L88.7783467,89 C88.3452816,89 88,88.5555556 88,88.0018832 C88,87.4444444 88.3452816,87 88.7783467,87 L103.221653,87 C103.654718,87 104,87.4444444 104,88.0018832 C104,88.5555556 103.654718,89 103.221653,89 Z" id="Fill-37" fill="#0078D7"></path>
                    </g>
                </g>
            </g>
        </g>
    </g>
</svg>