<svg width="574" height="396" viewBox="0 0 574 396" fill="none" xmlns="http://www.w3.org/2000/svg">
<path d="M374.376 172.32L323.998 143.233L228.827 198.174V211.102L279.205 240.188L374.376 185.247V172.32Z" stroke="#9DC4FF" stroke-width="3.8782" stroke-linejoin="round"/>
<path d="M279.205 240.188L228.827 211.102V198.174L279.218 227.261L279.205 240.188Z" stroke="#9DC4FF" stroke-width="3.8782" stroke-linejoin="round"/>
<path d="M374.376 185.247L279.205 240.188L279.218 227.261L374.376 172.32V185.247Z" stroke="#9DC4FF" stroke-width="3.8782" stroke-linejoin="round"/>
<path d="M363.181 185.247L374.273 191.646V198.226" stroke="#9DC4FF" stroke-width="3.8782" stroke-linecap="round" stroke-linejoin="round"/>
<path d="M352.025 191.672L363.181 198.174L363.271 204.573" stroke="#9DC4FF" stroke-width="3.8782" stroke-linecap="round" stroke-linejoin="round"/>
<path d="M340.791 197.528L351.882 204.573L352.025 211.128" stroke="#9DC4FF" stroke-width="3.8782" stroke-linecap="round" stroke-linejoin="round"/>
<path d="M329.686 204.573L340.791 211.102L340.83 217.591" stroke="#9DC4FF" stroke-width="3.8782" stroke-linecap="round" stroke-linejoin="round"/>
<path d="M318.401 211.102L329.454 217.488L329.686 224.081" stroke="#9DC4FF" stroke-width="3.8782" stroke-linecap="round" stroke-linejoin="round"/>
<path d="M307.193 217.565L318.401 224.029V230.493" stroke="#9DC4FF" stroke-width="3.8782" stroke-linecap="round" stroke-linejoin="round"/>
<path d="M295.998 224.029L307.193 230.493V236.956" stroke="#9DC4FF" stroke-width="3.8782" stroke-linecap="round" stroke-linejoin="round"/>
<path d="M284.802 230.493L295.998 236.956V243.42" stroke="#9DC4FF" stroke-width="3.8782" stroke-linecap="round" stroke-linejoin="round"/>
<path d="M234.425 201.406L223.229 194.943V201.406" stroke="#9DC4FF" stroke-width="3.8782" stroke-linecap="round" stroke-linejoin="round"/>
<path d="M240.138 191.75L234.425 188.44V194.904" stroke="#9DC4FF" stroke-width="3.8782" stroke-linecap="round" stroke-linejoin="round"/>
<path d="M251.334 185.312L245.62 182.015V188.479" stroke="#9DC4FF" stroke-width="3.8782" stroke-linecap="round" stroke-linejoin="round"/>
<path d="M262.554 178.848L256.841 175.552V182.015" stroke="#9DC4FF" stroke-width="3.8782" stroke-linecap="round" stroke-linejoin="round"/>
<path d="M268.126 175.552L268.01 169.088L273.62 172.32" stroke="#9DC4FF" stroke-width="3.8782" stroke-linecap="round" stroke-linejoin="round"/>
<path d="M279.205 169.088V162.624L284.802 165.856" stroke="#9DC4FF" stroke-width="3.8782" stroke-linecap="round" stroke-linejoin="round"/>
<path d="M290.413 162.624V156.16L295.997 159.392" stroke="#9DC4FF" stroke-width="3.8782" stroke-linecap="round" stroke-linejoin="round"/>
<path d="M301.595 156.16L301.608 149.697L307.205 152.929" stroke="#9DC4FF" stroke-width="3.8782" stroke-linecap="round" stroke-linejoin="round"/>
<path d="M312.803 149.697V143.233L318.401 146.465" stroke="#9DC4FF" stroke-width="3.8782" stroke-linecap="round" stroke-linejoin="round"/>
<path d="M234.541 207.87L223.488 214.256L223.255 220.849" stroke="#9DC4FF" stroke-width="3.8782" stroke-linecap="round" stroke-linejoin="round"/>
<path d="M245.736 214.333L234.541 220.797V227.261" stroke="#9DC4FF" stroke-width="3.8782" stroke-linecap="round" stroke-linejoin="round"/>
<path d="M256.931 220.797L245.736 227.261V233.724" stroke="#9DC4FF" stroke-width="3.8782" stroke-linecap="round" stroke-linejoin="round"/>
<path d="M268.126 227.261L256.931 233.725V240.188" stroke="#9DC4FF" stroke-width="3.8782" stroke-linecap="round" stroke-linejoin="round"/>
<path d="M329.686 146.4L335.193 143.233V149.697" stroke="#9DC4FF" stroke-width="3.8782" stroke-linecap="round" stroke-linejoin="round"/>
<path d="M340.791 152.929L346.414 149.71V156.16" stroke="#9DC4FF" stroke-width="3.8782" stroke-linecap="round" stroke-linejoin="round"/>
<path d="M351.986 159.392L357.648 156.199L357.583 162.624" stroke="#9DC4FF" stroke-width="3.8782" stroke-linecap="round" stroke-linejoin="round"/>
<path d="M363.181 165.856L368.727 162.65L368.779 169.088" stroke="#9DC4FF" stroke-width="3.8782" stroke-linecap="round" stroke-linejoin="round"/>
<path d="M446.718 136.576L424.327 123.648L385.196 146.245V152.761L407.638 165.598L446.718 143.039V136.576Z" stroke="#9DC4FF" stroke-width="3.8782" stroke-linecap="round" stroke-linejoin="round"/>
<path d="M446.718 143.039L407.638 165.598V159.134L446.718 136.576V143.039Z" stroke="#9DC4FF" stroke-width="3.8782" stroke-linecap="round" stroke-linejoin="round"/>
<path d="M407.638 165.598L385.196 152.761V146.245L407.638 159.134V165.598Z" stroke="#9DC4FF" stroke-width="3.8782" stroke-linecap="round" stroke-linejoin="round"/>
<path d="M402.041 110.695L379.65 97.7678L340.506 120.365V126.88L362.948 139.73L402.041 117.159V110.695Z" stroke="#9DC4FF" stroke-width="3.8782" stroke-linecap="round" stroke-linejoin="round"/>
<path d="M402.041 117.159L362.948 139.73V133.266L402.041 110.695V117.159Z" stroke="#9DC4FF" stroke-width="3.8782" stroke-linecap="round" stroke-linejoin="round"/>
<path d="M362.948 139.73L340.506 126.88V120.365L362.948 133.266V139.73Z" stroke="#9DC4FF" stroke-width="3.8782" stroke-linecap="round" stroke-linejoin="round"/>
<path d="M362.56 256.347C359.484 258.118 359.484 261.027 362.56 262.811C364.296 263.687 366.214 264.144 368.158 264.144C370.102 264.144 372.02 263.687 373.756 262.811C376.832 261.027 376.832 258.118 373.756 256.347C372.02 255.471 370.102 255.015 368.158 255.015C366.214 255.015 364.296 255.471 362.56 256.347Z" stroke="#9DC4FF" stroke-width="3.8782" stroke-linejoin="round"/>
<path d="M324.399 234.371L362.612 256.348" stroke="#9DC4FF" stroke-width="3.8782" stroke-linecap="round" stroke-linejoin="round"/>
<path d="M232.873 324.061C229.797 325.832 229.797 328.741 232.873 330.525C234.609 331.401 236.527 331.857 238.471 331.857C240.415 331.857 242.333 331.401 244.069 330.525C247.145 328.741 247.145 325.832 244.069 324.061C242.333 323.185 240.415 322.729 238.471 322.729C236.527 322.729 234.609 323.185 232.873 324.061Z" stroke="#9DC4FF" stroke-width="3.8782" stroke-linejoin="round"/>
<path d="M188.197 298.206L232.886 324.061" stroke="#9DC4FF" stroke-width="3.8782" stroke-linecap="round" stroke-linejoin="round"/>
<path d="M302.112 247.195L334.728 265.888L256.479 311.069L211.582 285.279" stroke="#9DC4FF" stroke-width="3.8782" stroke-linecap="round" stroke-linejoin="round"/>
<path d="M200.387 291.742L256.479 324.125L357.131 265.888L313.204 240.679" stroke="#9DC4FF" stroke-width="3.8782" stroke-linecap="round" stroke-linejoin="round"/>
<path d="M335.594 227.752L390.432 259.579L245.167 343.452L177.997 304.67" stroke="#9DC4FF" stroke-width="3.8782" stroke-linecap="round" stroke-linejoin="round"/>
<path d="M250.946 243.162L211.582 265.888" stroke="#9DC4FF" stroke-width="3.8782" stroke-linecap="round" stroke-linejoin="round"/>
<path d="M239.686 236.866L201.266 259.062" stroke="#9DC4FF" stroke-width="3.8782" stroke-linecap="round" stroke-linejoin="round"/>
<path d="M228.439 230.364L201.266 246.148" stroke="#9DC4FF" stroke-width="3.8782" stroke-linecap="round" stroke-linejoin="round"/>
<path d="M217.27 223.939L201.266 233.001" stroke="#9DC4FF" stroke-width="3.8782" stroke-linecap="round" stroke-linejoin="round"/>
<path d="M77.2928 291.768L21.3303 324.125L66.408 349.709" stroke="#9DC4FF" stroke-width="3.8782" stroke-linecap="round" stroke-linejoin="round"/>
<path d="M122.073 317.623L66.408 349.709" stroke="#9DC4FF" stroke-width="3.8782" stroke-linecap="round" stroke-linejoin="round"/>
<path d="M166.802 311.069L245.167 356.379L390.406 272.52" stroke="#9DC4FF" stroke-width="3.8782" stroke-linecap="round" stroke-linejoin="round"/>
<path d="M217.102 152.812L233.946 162.404L194.854 185.247L217.361 198.226" stroke="#9DC4FF" stroke-width="3.8782" stroke-linecap="round" stroke-linejoin="round"/>
<path d="M228.375 146.31L250.959 159.405L211.711 181.653L228.155 191.672" stroke="#9DC4FF" stroke-width="3.8782" stroke-linecap="round" stroke-linejoin="round"/>
<path d="M239.751 139.743L267.467 156.006L228.129 178.783L239.311 185.247" stroke="#9DC4FF" stroke-width="3.8782" stroke-linecap="round" stroke-linejoin="round"/>
<path d="M250.946 133.279L284.35 152.812L245.348 175.577" stroke="#9DC4FF" stroke-width="3.8782" stroke-linecap="round" stroke-linejoin="round"/>
<path d="M261.947 126.906L295.506 146.245" stroke="#9DC4FF" stroke-width="3.8782" stroke-linecap="round" stroke-linejoin="round"/>
<path d="M26.1523 307.863C23.1015 306.04 23.0756 303.119 26.1523 301.399C27.8738 300.529 29.7757 300.076 31.7046 300.076C33.6336 300.076 35.5355 300.529 37.2569 301.399C40.3336 303.183 40.3466 306.105 37.2569 307.863C35.5417 308.754 33.6373 309.219 31.7046 309.219C29.7719 309.219 27.8676 308.754 26.1523 307.863Z" stroke="#9DC4FF" stroke-width="3.8782" stroke-linecap="round" stroke-linejoin="round"/>
<path d="M66.0332 285.279L38.0972 301.464" stroke="#9DC4FF" stroke-width="3.8782" stroke-linecap="round" stroke-linejoin="round"/>
<path d="M54.4631 317.403C51.4123 315.581 51.3864 312.659 54.4631 310.94C56.1846 310.069 58.0865 309.616 60.0154 309.616C61.9443 309.616 63.8463 310.069 65.5677 310.94C68.6444 312.724 68.6574 315.645 65.5677 317.403C63.8525 318.294 61.9481 318.759 60.0154 318.759C58.0827 318.759 56.1784 318.294 54.4631 317.403Z" stroke="#9DC4FF" stroke-width="3.8782" stroke-linecap="round" stroke-linejoin="round"/>
<path d="M88.4879 298.206L66.408 310.991" stroke="#9DC4FF" stroke-width="3.8782" stroke-linecap="round" stroke-linejoin="round"/>
<path d="M121.543 162.753C118.492 160.931 118.466 158.009 121.543 156.29C123.264 155.419 125.166 154.966 127.095 154.966C129.024 154.966 130.926 155.419 132.648 156.29C135.724 158.074 135.737 160.995 132.648 162.753C130.932 163.644 129.028 164.109 127.095 164.109C125.163 164.109 123.258 163.644 121.543 162.753Z" stroke="#9DC4FF" stroke-width="3.8782" stroke-linecap="round" stroke-linejoin="round"/>
<path d="M161.437 140.156L133.501 156.342" stroke="#9DC4FF" stroke-width="3.8782" stroke-linecap="round" stroke-linejoin="round"/>
<path d="M138.995 127.022L43.6428 181.86L88.4361 207.715" stroke="#9DC4FF" stroke-width="3.8782" stroke-linecap="round" stroke-linejoin="round"/>
<path d="M149.815 133.279L66.0459 181.86L99.6182 201.251" stroke="#9DC4FF" stroke-width="3.8782" stroke-linecap="round" stroke-linejoin="round"/>
<path d="M172.399 146.31L99.6699 188.298L110.826 194.787" stroke="#9DC4FF" stroke-width="3.8782" stroke-linecap="round" stroke-linejoin="round"/>
<path d="M183.517 152.812L144.644 175.009L211.711 214.101L200.516 220.564" stroke="#9DC4FF" stroke-width="3.8782" stroke-linecap="round" stroke-linejoin="round"/>
<path d="M345.82 298.155L379.56 317.623" stroke="#9DC4FF" stroke-width="3.8782" stroke-linecap="round" stroke-linejoin="round"/>
<path d="M390.703 324.061L379.508 330.525L334.78 304.696" stroke="#9DC4FF" stroke-width="3.8782" stroke-linecap="round" stroke-linejoin="round"/>
<path d="M401.898 330.525L379.508 343.452L323.649 311.069" stroke="#9DC4FF" stroke-width="3.8782" stroke-linecap="round" stroke-linejoin="round"/>
<path d="M413.093 336.988L379.56 356.34L301.259 311.069" stroke="#9DC4FF" stroke-width="3.8782" stroke-linecap="round" stroke-linejoin="round"/>
<path d="M424.288 343.452L379.508 369.307L278.752 311.237" stroke="#9DC4FF" stroke-width="3.8782" stroke-linecap="round" stroke-linejoin="round"/>
<path d="M435.484 349.916L379.508 382.234L289.805 330.525" stroke="#9DC4FF" stroke-width="3.8782" stroke-linecap="round" stroke-linejoin="round"/>
<path d="M99.6182 304.67L77.2927 317.623L99.6182 330.525" stroke="#9DC4FF" stroke-width="3.8782" stroke-linecap="round" stroke-linejoin="round"/>
<path d="M110.878 310.991L99.6829 317.559L110.826 324.061" stroke="#9DC4FF" stroke-width="3.8782" stroke-linecap="round" stroke-linejoin="round"/>
<path d="M334.663 136.576L340.506 133.279" stroke="#9DC4FF" stroke-width="3.8782" stroke-linecap="round" stroke-linejoin="round"/>
<path d="M358.152 214.734L401.381 240.098" stroke="#9DC4FF" stroke-width="3.8782" stroke-linecap="round" stroke-linejoin="round"/>
<path d="M369.076 208.297L412.822 233.414" stroke="#9DC4FF" stroke-width="3.8782" stroke-linecap="round" stroke-linejoin="round"/>
<path d="M380.375 201.897L423.991 227.054" stroke="#9DC4FF" stroke-width="3.8782" stroke-linecap="round" stroke-linejoin="round"/>
<path d="M362.457 146.465L351.301 139.717" stroke="#9DC4FF" stroke-width="3.8782" stroke-linecap="round" stroke-linejoin="round"/>
<path d="M384.86 133.24L390.458 136.575" stroke="#9DC4FF" stroke-width="3.8782" stroke-linecap="round" stroke-linejoin="round"/>
<path d="M396.055 126.777L401.653 130.293" stroke="#9DC4FF" stroke-width="3.8782" stroke-linecap="round" stroke-linejoin="round"/>
<path d="M362.457 159.392L373.911 152.774L413.093 175.397L435.484 162.469" stroke="#9DC4FF" stroke-width="3.8782" stroke-linecap="round" stroke-linejoin="round"/>
<path d="M379.198 162.65L412.822 181.705L452.393 159.302L441.146 153.045" stroke="#9DC4FF" stroke-width="3.8782" stroke-linecap="round" stroke-linejoin="round"/>
<path d="M347.151 221.366L390.393 246.742" stroke="#9DC4FF" stroke-width="3.8782" stroke-linecap="round" stroke-linejoin="round"/>
<path d="M362.457 146.465L351.301 152.709" stroke="#9DC4FF" stroke-width="3.8782" stroke-linecap="round" stroke-linejoin="round"/>
<path d="M334.663 136.576L345.871 143.039" stroke="#9DC4FF" stroke-width="3.8782" stroke-linecap="round" stroke-linejoin="round"/>
<path d="M340.506 146.413L345.871 143.039" stroke="#9DC4FF" stroke-width="3.8782" stroke-linecap="round" stroke-linejoin="round"/>
<path d="M429.783 159.121L435.484 162.469" stroke="#9DC4FF" stroke-width="3.8782" stroke-linecap="round" stroke-linejoin="round"/>
<path d="M379.198 162.65L374.273 165.494" stroke="#9DC4FF" stroke-width="3.8782" stroke-linecap="round" stroke-linejoin="round"/>
<path d="M194.104 339.897C191.028 341.668 191.028 344.577 194.104 346.361C195.84 347.237 197.758 347.693 199.702 347.693C201.646 347.693 203.564 347.237 205.299 346.361C208.376 344.577 208.376 341.668 205.299 339.897C203.564 339.021 201.646 338.564 199.702 338.564C197.758 338.564 195.84 339.021 194.104 339.897Z" stroke="#9DC4FF" stroke-width="3.8782" stroke-linejoin="round"/>
<path d="M149.427 314.042L194.104 339.897" stroke="#9DC4FF" stroke-width="3.8782" stroke-linecap="round" stroke-linejoin="round"/>
<path d="M79.3481 147.215C76.2973 145.392 76.2714 142.47 79.3481 140.751C81.0696 139.881 82.9715 139.427 84.9004 139.427C86.8294 139.427 88.7313 139.881 90.4527 140.751C93.5294 142.535 93.5424 145.457 90.4527 147.215C88.7375 148.105 86.8331 148.57 84.9004 148.57C82.9677 148.57 81.0634 148.105 79.3481 147.215Z" stroke="#9DC4FF" stroke-width="3.8782" stroke-linecap="round" stroke-linejoin="round"/>
<path d="M127.089 120.08L91.3062 140.816" stroke="#9DC4FF" stroke-width="3.8782" stroke-linecap="round" stroke-linejoin="round"/>
<path d="M513.694 304.618V246.368L452.044 210.856L390.406 246.445V304.618L451.979 340.168L513.694 304.618Z" stroke="#E7F0FF" stroke-width="3.8782" stroke-linejoin="round"/>
<path d="M513.694 304.618L451.979 340.169L452.031 281.957L513.694 246.368V304.618Z" stroke="#E7F0FF" stroke-width="3.8782" stroke-linejoin="round"/>
<path d="M451.979 340.168L390.406 304.618V246.445L452.031 281.956L451.979 340.168Z" stroke="#E7F0FF" stroke-width="3.8782" stroke-linejoin="round"/>
<path d="M485.564 307.85L479.967 311.082V265.836L418.394 230.286L423.991 227.054L485.564 262.604V307.85Z" fill="#E7F0FF" stroke="#E7F0FF" stroke-width="1.29273" stroke-linejoin="round"/>
<path d="M418.394 307.85L423.991 311.082V265.797L485.564 230.286L479.967 227.054L418.394 262.566V307.85Z" fill="#E7F0FF" stroke="#E7F0FF" stroke-width="1.29273" stroke-linejoin="round"/>
<path d="M507.954 301.386L519.149 307.85V314.314" stroke="#E7F0FF" stroke-width="3.8782" stroke-linecap="round" stroke-linejoin="round"/>
<path d="M496.759 307.85L507.954 314.314V320.777" stroke="#E7F0FF" stroke-width="3.8782" stroke-linecap="round" stroke-linejoin="round"/>
<path d="M485.564 314.314L496.759 320.777V327.241" stroke="#E7F0FF" stroke-width="3.8782" stroke-linecap="round" stroke-linejoin="round"/>
<path d="M474.369 320.778L485.564 327.241V333.705" stroke="#E7F0FF" stroke-width="3.8782" stroke-linecap="round" stroke-linejoin="round"/>
<path d="M463.174 327.241L474.369 333.705V340.169" stroke="#E7F0FF" stroke-width="3.8782" stroke-linecap="round" stroke-linejoin="round"/>
<path d="M452.031 333.666L463.174 340.168V346.632" stroke="#E7F0FF" stroke-width="3.8782" stroke-linecap="round" stroke-linejoin="round"/>
<path d="M396.055 301.386L384.86 307.85V314.314" stroke="#E7F0FF" stroke-width="3.8782" stroke-linecap="round" stroke-linejoin="round"/>
<path d="M407.25 307.85L396.055 314.314V320.777" stroke="#E7F0FF" stroke-width="3.8782" stroke-linecap="round" stroke-linejoin="round"/>
<path d="M418.445 314.314L407.25 320.777V327.241" stroke="#E7F0FF" stroke-width="3.8782" stroke-linecap="round" stroke-linejoin="round"/>
<path d="M429.64 320.778L418.445 327.241V333.705" stroke="#E7F0FF" stroke-width="3.8782" stroke-linecap="round" stroke-linejoin="round"/>
<path d="M440.835 327.241L429.64 333.705V340.169" stroke="#E7F0FF" stroke-width="3.8782" stroke-linecap="round" stroke-linejoin="round"/>
<path d="M451.979 333.666L440.835 340.168V346.632" stroke="#E7F0FF" stroke-width="3.8782" stroke-linecap="round" stroke-linejoin="round"/>
<path d="M513.694 298.077L519.149 294.923V301.387" stroke="#E7F0FF" stroke-width="3.8782" stroke-linecap="round" stroke-linejoin="round"/>
<path d="M200.516 272.352V214.101L138.879 178.59L77.228 214.179V272.352L138.814 307.902L200.516 272.352Z" stroke="#E7F0FF" stroke-width="3.8782" stroke-linejoin="round"/>
<path d="M200.516 272.352L138.814 307.902L138.866 249.69L200.516 214.101V272.352Z" stroke="#E7F0FF" stroke-width="3.8782" stroke-linejoin="round"/>
<path d="M138.814 307.902L77.228 272.352V214.178L138.866 249.69L138.814 307.902Z" stroke="#E7F0FF" stroke-width="3.8782" stroke-linejoin="round"/>
<path d="M172.399 275.584L166.801 278.815V233.57L105.216 198.019L110.826 194.788L172.399 230.338V275.584Z" fill="#E7F0FF" stroke="#E7F0FF" stroke-width="1.29273" stroke-linejoin="round"/>
<path d="M105.216 275.584L110.826 278.815V233.531L172.399 198.019L166.801 194.788L105.216 230.312V275.584Z" fill="#E7F0FF" stroke="#E7F0FF" stroke-width="1.29273" stroke-linejoin="round"/>
<path d="M194.789 269.12L205.984 275.584V282.047" stroke="#E7F0FF" stroke-width="3.8782" stroke-linecap="round" stroke-linejoin="round"/>
<path d="M183.594 275.583L194.789 282.047V288.511" stroke="#E7F0FF" stroke-width="3.8782" stroke-linecap="round" stroke-linejoin="round"/>
<path d="M172.399 282.047L183.594 288.511V294.975" stroke="#E7F0FF" stroke-width="3.8782" stroke-linecap="round" stroke-linejoin="round"/>
<path d="M161.204 288.511L172.399 294.975V301.438" stroke="#E7F0FF" stroke-width="3.8782" stroke-linecap="round" stroke-linejoin="round"/>
<path d="M150.009 294.975L161.204 301.438V307.902" stroke="#E7F0FF" stroke-width="3.8782" stroke-linecap="round" stroke-linejoin="round"/>
<path d="M138.865 301.399L150.009 307.902V314.366" stroke="#E7F0FF" stroke-width="3.8782" stroke-linecap="round" stroke-linejoin="round"/>
<path d="M82.8902 269.12L71.6951 275.584V282.047" stroke="#E7F0FF" stroke-width="3.8782" stroke-linecap="round" stroke-linejoin="round"/>
<path d="M94.0852 275.583L82.8901 282.047V288.511" stroke="#E7F0FF" stroke-width="3.8782" stroke-linecap="round" stroke-linejoin="round"/>
<path d="M105.28 282.047L94.0852 288.511V294.975" stroke="#E7F0FF" stroke-width="3.8782" stroke-linecap="round" stroke-linejoin="round"/>
<path d="M116.475 288.511L105.28 294.975V301.438" stroke="#E7F0FF" stroke-width="3.8782" stroke-linecap="round" stroke-linejoin="round"/>
<path d="M127.67 294.975L116.475 301.438V307.902" stroke="#E7F0FF" stroke-width="3.8782" stroke-linecap="round" stroke-linejoin="round"/>
<path d="M138.814 301.399L127.67 307.902V314.366" stroke="#E7F0FF" stroke-width="3.8782" stroke-linecap="round" stroke-linejoin="round"/>
<path d="M200.516 265.81L205.984 262.656V269.12" stroke="#E7F0FF" stroke-width="3.8782" stroke-linecap="round" stroke-linejoin="round"/>
<path d="M262.27 107.528V49.2773L200.632 13.7659L138.995 49.3549V107.528L200.568 143.078L262.27 107.528Z" stroke="#E7F0FF" stroke-width="3.8782" stroke-linejoin="round"/>
<path d="M262.27 107.528L200.568 143.078L200.62 84.8793L262.27 49.2773V107.528Z" stroke="#E7F0FF" stroke-width="3.8782" stroke-linejoin="round"/>
<path d="M200.568 143.078L138.995 107.528V49.3547L200.62 84.8791L200.568 143.078Z" stroke="#E7F0FF" stroke-width="3.8782" stroke-linejoin="round"/>
<path d="M234.153 110.76L228.555 113.992V68.7459L166.982 33.1957L172.58 29.9639L234.153 65.5141V110.76Z" fill="#E7F0FF" stroke="#E7F0FF" stroke-width="1.29273" stroke-linejoin="round"/>
<path d="M166.982 110.76L172.58 113.992V68.7071L234.153 33.1957L228.555 29.9639L166.982 65.4882V110.76Z" fill="#E7F0FF" stroke="#E7F0FF" stroke-width="1.29273" stroke-linejoin="round"/>
<path d="M256.543 104.296L267.738 110.76V117.223" stroke="#E7F0FF" stroke-width="3.8782" stroke-linecap="round" stroke-linejoin="round"/>
<path d="M245.348 110.76L256.543 117.223V123.687" stroke="#E7F0FF" stroke-width="3.8782" stroke-linecap="round" stroke-linejoin="round"/>
<path d="M234.153 117.223L245.348 123.687V130.151" stroke="#E7F0FF" stroke-width="3.8782" stroke-linecap="round" stroke-linejoin="round"/>
<path d="M222.958 123.687L234.153 130.151V136.615" stroke="#E7F0FF" stroke-width="3.8782" stroke-linecap="round" stroke-linejoin="round"/>
<path d="M211.763 130.151L222.958 136.615V143.078" stroke="#E7F0FF" stroke-width="3.8782" stroke-linecap="round" stroke-linejoin="round"/>
<path d="M200.619 136.576L211.763 143.078V149.542" stroke="#E7F0FF" stroke-width="3.8782" stroke-linecap="round" stroke-linejoin="round"/>
<path d="M144.644 104.296L133.449 110.76V117.223" stroke="#E7F0FF" stroke-width="3.8782" stroke-linecap="round" stroke-linejoin="round"/>
<path d="M155.839 110.76L144.644 117.223V123.687" stroke="#E7F0FF" stroke-width="3.8782" stroke-linecap="round" stroke-linejoin="round"/>
<path d="M167.034 117.223L155.839 123.687V130.151" stroke="#E7F0FF" stroke-width="3.8782" stroke-linecap="round" stroke-linejoin="round"/>
<path d="M178.229 123.687L167.034 130.151V136.615" stroke="#E7F0FF" stroke-width="3.8782" stroke-linecap="round" stroke-linejoin="round"/>
<path d="M189.424 130.151L178.229 136.615V143.078" stroke="#E7F0FF" stroke-width="3.8782" stroke-linecap="round" stroke-linejoin="round"/>
<path d="M200.568 136.576L189.424 143.078V149.542" stroke="#E7F0FF" stroke-width="3.8782" stroke-linecap="round" stroke-linejoin="round"/>
<path d="M524.98 298.322L564.33 279.612L564.304 204.804" stroke="#E7F0FF" stroke-width="3.54305" stroke-linecap="round" stroke-linejoin="round"/>
<path d="M558.552 194.353C555.475 196.137 555.475 199.045 558.552 200.816C560.288 201.692 562.205 202.149 564.149 202.149C566.094 202.149 568.011 201.692 569.747 200.816C572.824 199.045 572.824 196.137 569.747 194.353C568.011 193.476 566.094 193.02 564.149 193.02C562.205 193.02 560.288 193.476 558.552 194.353Z" stroke="#E7F0FF" stroke-width="3.8782" stroke-linecap="round" stroke-linejoin="round"/>
<path d="M10.1869 162.392L9.85083 220.565L71.3591 256.348" stroke="#E7F0FF" stroke-width="3.8782" stroke-linecap="round" stroke-linejoin="round"/>
<path d="M4.20147 152.735C1.16354 154.519 1.1894 157.427 4.26611 159.199C6.00196 160.075 7.91923 160.531 9.86365 160.531C11.8081 160.531 13.7253 160.075 15.4612 159.199C18.5379 157.427 18.512 154.519 15.3965 152.735C13.6607 151.859 11.7434 151.402 9.79901 151.402C7.85459 151.402 5.93733 151.859 4.20147 152.735Z" stroke="#E7F0FF" stroke-width="3.8782" stroke-linecap="round" stroke-linejoin="round"/>
<path d="M301.052 99.1638C297.975 100.935 297.975 103.844 301.052 105.627C302.788 106.504 304.705 106.96 306.65 106.96C308.594 106.96 310.511 106.504 312.247 105.627C315.324 103.856 315.324 100.948 312.247 99.1638C310.511 98.2877 308.594 97.8313 306.65 97.8313C304.705 97.8313 302.788 98.2877 301.052 99.1638Z" stroke="#E7F0FF" stroke-width="3.8782" stroke-linecap="round" stroke-linejoin="round"/>
<path d="M306.662 107.476V139.562L273.194 120.688" stroke="#E7F0FF" stroke-width="3.8782" stroke-linecap="round" stroke-linejoin="round"/>
</svg>
