<svg xmlns="http://www.w3.org/2000/svg" width="574" height="396" viewBox="0 0 444.02 288.03"><defs><style>.cls-1,.cls-2,.cls-3,.cls-5{fill:none;stroke-width:3px;}.cls-1,.cls-2{stroke:#9ebbe2;}.cls-1,.cls-2,.cls-3,.cls-4,.cls-5{stroke-linejoin:round;}.cls-2,.cls-5{stroke-linecap:round;}.cls-3,.cls-4,.cls-5{stroke:#fff;}.cls-4{fill:#fff;}@media screen and (-ms-high-contrast:active){.cls-3,.cls-4,.cls-5{stroke:windowText;}.cls-4{fill:windowText;}}</style></defs><path d="M215.98 176.65l73.62-42.5v-10l-38.97-22.5-73.62 42.5v10l39 22.5zM177 144.15l39 22.5-.02 10-38.97-22.5v-10zm39 22.5l73.6-42.5v10l-73.62 42.5v-10z" class="cls-1"/><path d="M280.94 134.15l8.58 4.95v5.1M272.3 139.12l8.64 5.03.07 4.95M263.62 143.65l8.58 5.45.1 5.07M255.03 149.1l8.6 5.05.02 5.02M246.3 154.15l8.55 4.94.18 5.1M237.63 159.15l8.67 5v5M228.97 164.15l8.66 5v5M220.3 169.15l8.67 5v5M181.34 146.65l-8.66-5v5m13.08-7.47l-4.42-2.56v5m13.08-7.42l-4.42-2.55v5m13.1-7.45l-4.42-2.55v5m8.72-5l-.08-5 4.34 2.5m4.32-2.5v-5l4.33 2.5m4.35-2.5v-5l4.32 2.5m4.33-2.5v-5l4.34 2.5m4.33-2.5v-5l4.33 2.5M181.43 151.65l-8.55 4.94-.18 5.1M190.1 156.65l-8.67 5v5M198.75 161.65l-8.66 5v5M207.4 166.65l-8.65 5v5M255.03 104.1l4.26-2.45v5m4.32 2.5l4.35-2.5v5m4.3 2.5l4.4-2.47-.06 4.97m4.34 2.5l4.3-2.48.03 4.98" class="cls-2"/><path d="M315.33 118.95l30.23-17.45v-5l-17.32-10-30.27 17.48v5.04l17.36 9.93zm0-5l30.23-17.45v5l-30.23 17.45v-5zm-17.36-9.97l17.36 9.97v5l-17.36-9.93v-5.04zM280.76 98.94L311 81.48v-5l-17.32-10-30.28 17.48V89l17.36 9.94zm0-5L311 76.48v5l-30.24 17.46v-5zm-17.36-9.98l17.36 9.98v5L263.4 89v-5.04z" class="cls-2"/><path d="M280.46 189.15c-2.38 1.37-2.38 3.62 0 5a9.6 9.6 0 0 0 8.66 0c2.38-1.38 2.38-3.63 0-5a9.6 9.6 0 0 0-8.66 0z" class="cls-1"/><path d="M250.94 172.15l29.56 17" class="cls-2"/><path d="M180.14 241.53c-2.38 1.37-2.38 3.62 0 5a9.6 9.6 0 0 0 8.66 0c2.38-1.38 2.38-3.63 0-5a9.6 9.6 0 0 0-8.66 0z" class="cls-1"/><path d="M145.58 221.53l34.57 20m53.55-59.46l25.23 14.46-60.53 34.95-34.73-19.95m-8.67 5l43.4 25.05 77.86-45.05-33.98-19.5m17.32-10l42.42 24.62-112.37 64.88-51.96-30m56.42-47.58l-30.45 17.58m21.73-22.45l-29.7 17.17m21-22.2l-21 12.2m12.37-17.17l-12.38 7m-95.9 45.47l-43.3 25.03 34.87 19.8m43.06-24.83l-43.06 24.82m77.66-29.9l60.62 35.06L302 201.66m-134.06-92.6l13.03 7.42-30.24 17.67 17.4 10.04m8.53-40.17l17.47 10.13-30.36 17.2 12.72 7.76m8.96-40.17l21.44 12.58-30.43 17.62 8.65 5m9-40.2l25.84 15.1-30.17 17.62m12.83-37.65l25.96 14.96M20.23 229c-2.36-1.4-2.38-3.67 0-5a9.52 9.52 0 0 1 8.6 0c2.37 1.38 2.38 3.64 0 5a9.32 9.32 0 0 1-8.6 0zm30.85-17.47l-21.6 12.52M42.13 236.38c-2.36-1.4-2.38-3.67 0-5a9.52 9.52 0 0 1 8.6 0c2.37 1.38 2.38 3.64 0 5a9.32 9.32 0 0 1-8.6 0zm26.32-14.85l-17.08 9.9M94.02 116.75c-2.36-1.4-2.38-3.67 0-5a9.52 9.52 0 0 1 8.6 0c2.37 1.38 2.38 3.64 0 5a9.32 9.32 0 0 1-8.6 0zm30.86-17.48l-21.6 12.52m4.24-22.7l-73.76 42.43 34.65 20m47.5-57.58l-64.8 37.58 25.96 15m56.3-42.5L77.1 136.5l8.63 5.03m56.23-32.47l-30.07 17.17 51.86 30.24-8.66 5m112.4 60.03l26.1 15.05m8.63 4.98l-8.66 5-34.6-19.98m51.93 19.98l-17.33 10-43.2-25.05m69.18 20.05L293.6 266.5l-60.56-35.02m95.16 25.05l-34.63 20-77.94-44.92m121.24 29.93l-43.3 25-69.4-40m-147.1-20L59.8 236.55l17.26 9.98m8.7-15.1l-8.65 5.07 8.64 5.03M258.88 96.5l4.52-2.55m13.65 63l33.44 19.63m-25-24.6l33.84 19.43m-25.1-24.37l33.74 19.46m-47.6-62.35l-8.63-5.22m25.95-5l4.34 2.57m4.33-7.58l4.33 2.72m-30.32 22.5l8.86-5.1 30.3 17.5 17.33-10m-43.54.13l26 14.74 30.62-17.3-8.7-4.85m-72.7 52.85L302 181.7m-21.62-77.55l-8.63 4.83M258.88 96.5l8.67 5m-4.15 2.6l4.15-2.6m64.9 12.44l4.4 2.6m-43.52.13l-3.8 2.2" class="cls-2"/><path d="M150.15 253.78c-2.38 1.37-2.38 3.62 0 5a9.6 9.6 0 0 0 8.66 0c2.4-1.38 2.4-3.63 0-5a9.6 9.6 0 0 0-8.64 0z" class="cls-1"/><path d="M115.6 233.78l34.55 20M61.38 104.73c-2.36-1.4-2.38-3.67 0-5a9.52 9.52 0 0 1 8.6 0c2.37 1.38 2.38 3.64 0 5a9.32 9.32 0 0 1-8.6 0zm36.92-21L70.64 99.8" class="cls-2"/><path d="M302 226.5l47.63 27.5 47.74-27.5v-45.07l-47.7-27.47L302 181.5v45zm47.67-17.54l47.7-27.53v45.06L349.63 254l.04-45.04zM302 181.5l47.67 27.46-.04 45.03L302 226.5v-45z" class="cls-3"/><path d="M327.98 166.5L375.6 194v35l-4.32 2.5v-35L323.65 169l4.33-2.5zm43.3 0l-47.63 27.46V229l4.33 2.5v-35.04L375.6 169l-4.32-2.5z" class="cls-4"/><path d="M392.93 224l8.66 5v5m-17.33-5l8.66 5v5m-17.33-5l8.67 5v5m-17.32-5l8.66 5v5m-17.3-5l8.65 5v5m-17.28-5.04l8.62 5.03v5M306.37 224l-8.66 5v5m17.33-5l-8.66 5v5m17.33-5l-8.67 5v5m17.32-5l-8.66 5v5m17.3-5l-8.65 5v5m17.28-5.04L341 254v5M397.37 221.43l4.22-2.44v5" class="cls-5"/><path d="M59.74 201.53l47.64 27.5 47.73-27.5v-45.06L107.45 129l-47.7 27.53v45zM107.42 184l47.7-27.53v45.06l-47.74 27.5.04-45.03zm-47.68-27.47L107.42 184l-.04 45.03-47.64-27.5v-45z" class="cls-3"/><path d="M85.73 141.53l47.63 27.5v35l-4.33 2.5v-35l-47.64-27.5 4.32-2.5zm43.3 0L81.4 169v35.03l4.33 2.5V171.5l47.63-27.47-4.33-2.5z" class="cls-4"/><path d="M150.68 199.03l8.66 5v5m-17.32-5l8.66 5v5m-17.32-5l8.66 5v5m-17.32-5l8.66 5v5m-17.32-5l8.66 5v5M107.42 224l8.62 5.03v5" class="cls-5"/><path d="M64.12 199.03l-8.66 5v5m17.32-5l-8.66 5v5m17.32-5l-8.66 5v5m17.32-5l-8.66 5v5m17.32-5l-8.66 5v5m17.28-5.03l-8.62 5.03v5" class="cls-5"/><path d="M155.1 196.47l4.24-2.44v5" class="cls-5"/><path d="M107.52 74.03l47.63 27.5 47.73-27.5V28.97L155.2 1.5l-47.68 27.53v45zM155.2 56.5l47.68-27.53v45.06l-47.73 27.5.04-45.02zm-47.68-27.47L155.2 56.5l-.05 45.03-47.63-27.5v-45z" class="cls-3"/><path d="M133.5 14.03l47.63 27.5v35l-4.33 2.5v-35l-47.63-27.5 4.33-2.5zm43.3 0L129.17 41.5v35.03l4.33 2.5V44l47.63-27.47-4.33-2.5z" class="cls-4"/><path d="M198.45 71.53l8.66 5v5m-17.3-5l8.65 5v5m-17.32-5l8.66 5v5m-17.33-5l8.66 5v5m-17.33-5l8.67 5v5M155.2 96.5l8.6 5.03v5M111.9 71.53l-8.67 5v5m17.32-5l-8.66 5v5m17.3-5l-8.65 5v5m17.32-5l-8.66 5v5m17.33-5l-8.66 5v5m17.28-5.03l-8.62 5.03v5M406.23 221.5L436.4 204v-69.93M432.07 127.56c-2.38 1.38-2.38 3.63 0 5a9.6 9.6 0 0 0 8.66 0c2.38-1.37 2.38-3.62 0-5a9.6 9.6 0 0 0-8.66 0zm-424.2-11.1l-.25 45 47.58 27.7m-64.74-77.63M3.25 109c-2.35 1.38-2.33 3.63.05 5a9.6 9.6 0 0 0 8.66 0c2.38-1.37 2.36-3.62-.05-5a9.6 9.6 0 0 0-8.64 0zm229.63-41.44c-2.38 1.37-2.38 3.62 0 5a9.6 9.6 0 0 0 8.66 0c2.38-1.37 2.38-3.62 0-5a9.6 9.6 0 0 0-8.66 0zm4.34 6.44v24.8l-25.9-14.6" class="cls-5"/></svg>