<?xml version="1.0" encoding="UTF-8"?>
<!DOCTYPE svg PUBLIC "-//W3C//DTD SVG 1.1//EN" "http://www.w3.org/Graphics/SVG/1.1/DTD/svg11.dtd">
<svg xmlns="http://www.w3.org/2000/svg" version="1.1" width="171px" height="168px" style="shape-rendering:geometricPrecision; text-rendering:geometricPrecision; image-rendering:optimizeQuality; fill-rule:evenodd; clip-rule:evenodd" xmlns:xlink="http://www.w3.org/1999/xlink">
<g><path style="opacity:1" fill="#140058" d="M 76.5,3.5 C 119.8,2.71061 148.3,22.7106 162,63.5C 169.344,102.851 156.177,133.018 122.5,154C 83.3253,171.366 49.492,164.2 21,132.5C -1,99.8333 -1,67.1667 21,34.5C 35.5787,17.0757 54.0787,6.74232 76.5,3.5 Z"/></g>
<g><path style="opacity:1" fill="#c5c0d5" d="M 82.5,54.5 C 80.8958,53.713 80.2291,52.3797 80.5,50.5C 74.8333,50.5 69.1667,50.5 63.5,50.5C 63.5,72.5 63.5,94.5 63.5,116.5C 66.8333,116.5 70.1667,116.5 73.5,116.5C 73.5,116.833 73.5,117.167 73.5,117.5C 69.8333,117.5 66.1667,117.5 62.5,117.5C 62.5,94.8333 62.5,72.1667 62.5,49.5C 68.8333,49.5 75.1667,49.5 81.5,49.5C 81.6287,51.2161 81.962,52.8828 82.5,54.5 Z"/></g>
<g><path style="opacity:1" fill="#fafafb" d="M 101.5,49.5 C 104.833,49.5 108.167,49.5 111.5,49.5C 111.5,71.8333 111.5,94.1667 111.5,116.5C 105.833,116.5 100.167,116.5 94.5,116.5C 88.1667,99.8333 81.8333,83.1667 75.5,66.5C 75.2914,65.0783 74.7914,63.745 74,62.5C 73.5001,80.4969 73.3334,98.4969 73.5,116.5C 70.1667,116.5 66.8333,116.5 63.5,116.5C 63.5,94.5 63.5,72.5 63.5,50.5C 69.1667,50.5 74.8333,50.5 80.5,50.5C 80.2291,52.3797 80.8958,53.713 82.5,54.5C 88.7129,69.1182 94.3796,84.1182 99.5,99.5C 99.7086,100.922 100.209,102.255 101,103.5C 101.5,85.5031 101.667,67.5031 101.5,49.5 Z"/></g>
<g><path style="opacity:1" fill="#645790" d="M 101.5,49.5 C 101.667,67.5031 101.5,85.5031 101,103.5C 100.209,102.255 99.7086,100.922 99.5,99.5C 100.167,82.8333 100.833,66.1667 101.5,49.5 Z"/></g>
<g><path style="opacity:1" fill="#c0bbd2" d="M 111.5,49.5 C 112.497,71.9939 112.831,94.6605 112.5,117.5C 106.31,117.823 100.31,117.49 94.5,116.5C 100.167,116.5 105.833,116.5 111.5,116.5C 111.5,94.1667 111.5,71.8333 111.5,49.5 Z"/></g>
<g><path style="opacity:1" fill="#645791" d="M 75.5,66.5 C 74.8333,83.5 74.1667,100.5 73.5,117.5C 73.5,117.167 73.5,116.833 73.5,116.5C 73.3334,98.4969 73.5001,80.4969 74,62.5C 74.7914,63.745 75.2914,65.0783 75.5,66.5 Z"/></g>
<g><path style="opacity:1" fill="#f0eff4" d="M 41.5,102.5 C 52.8439,102.369 55.8439,107.202 50.5,117C 40.8993,120.07 36.7326,116.57 38,106.5C 39.3756,105.295 40.5423,103.962 41.5,102.5 Z"/></g>
</svg>
