<svg xmlns="http://www.w3.org/2000/svg" width="400" height="400" viewBox="0, 0, 400, 400"><defs><style>.cls-1 { fill: #fff; } @media screen and (-ms-high-contrast: active) { .cls-1 { fill: windowText; } }</style></defs><path d="M204.58 384.1l-1.74-.07-3.76-.2-3.77-.22-2.98-.27-3-.28-3.18-.4-3.2-.4-4.47-.75-4.47-.75-3.25-.7-3.25-.7-3.1-.77-3.08-.77-3.38-.96-3.4-.97-3.94-1.32-3.96-1.32-3.4-1.3-3.37-1.3-3.1-1.3-3.08-1.3-3.4-1.6-3.37-1.57-2.8-1.46-2.8-1.47-2.4-1.34-2.43-1.35-3.1-1.85-3.08-1.86-4.25-2.83-4.25-2.83-3.1-2.3-3.1-2.3-2.4-1.92-2.4-1.92-2.62-2.23-2.6-2.24-2.5-2.3-2.53-2.3-3.35-3.37-3.35-3.4-2.72-3-2.7-3-2.5-3-2.5-3-2.56-3.37-2.57-3.38-2.04-2.9-2.05-2.9-2.2-3.48-2.22-3.47-1.14-1.93-1.14-1.93-1.52-2.7-1.52-2.7-2.48-5.03-2.48-5-1.3-3-1.3-3-1.4-3.58-1.4-3.57-1.3-3.77-1.27-3.76-1.15-3.78-1.13-3.78-1-3.95-.98-3.94-.96-4.76-.95-4.76v-1.33l2.2-.1 2.2-.13 1.93-.4 1.94-.4 1.8-.57 1.8-.6 2-.94 1.97-.94 1.7-1.1 1.68-1.1 1.46-1.22 1.47-1.2 1.3-1.4 1.3-1.4 1.12-1.47 1.1-1.5.9-1.55.9-1.56.77-1.74.76-1.75.48-1.6.5-1.62.3-1.44.28-1.45.22-2.18.22-2.2-.22-2.3-.2-2.34-.38-1.7-.37-1.7-.6-1.8-.6-1.8-.87-1.83-.87-1.84-1.47-2.2-1.48-2.23-2.42-2.42-2.42-2.42-1.83-1.3-1.83-1.3L40 168l-2.1-1.07-2-.7-2-.68-1.97-.4-1.96-.4-2.18-.1-2.18-.12v-1.62l.86-4.23.87-4.22.88-3.58.9-3.57.77-2.7.78-2.7.76-2.42.76-2.42 1.1-3.1 1.07-3.08 1.7-4.26 1.7-4.25L39.3 119l1.53-3.38 1.57-3.14 1.58-3.15 1.66-3.04 1.67-3.04 2.03-3.38 2.03-3.38 2.17-3.28 2.17-3.3 1.8-2.5 1.78-2.5L61.5 82l2.25-2.9 2.3-2.77 2.3-2.76 1.85-2.07 1.86-2.07 3.04-3.2 3.04-3.2 3.44-3.2 3.44-3.2 1.93-1.7 1.93-1.67 2.85-2.34 2.84-2.32 2.86-2.15 2.85-2.16 3.1-2.15 3.08-2.16 3.28-2.08 3.3-2.08 3.77-2.17 3.8-2.16 3.55-1.84 3.56-1.85 3-1.38 3-1.4 3.37-1.43 3.38-1.44 4.06-1.5 4.07-1.52 3.3-1.07 3.28-1.05 2.7-.78 2.7-.78 3.86-.97 3.87-.97 3.77-.77 3.76-.78 3.58-.6 3.57-.58 3.96-.48 3.97-.5 3.48-.27 3.47-.3 5.3-.22 5.33-.23 5.5.13 5.5.12 4.16.3 4.16.28 3.58.4 3.57.38 3.3.5 3.28.48 3.57.65 3.57.65 3.48.78 3.48.78 3.28.9 3.28.87 2.85.86 2.84.87 4 1.37 4.02 1.37 4.3 1.72 4.3 1.72 3.18 1.44 3.2 1.44 3.7 1.86 3.73 1.86 3.47 1.94 3.48 1.93 3 1.84 3 1.83 4.14 2.8 4.15 2.8 3.68 2.74 3.67 2.76 3.2 2.65 3.18 2.66 2.5 2.23 2.52 2.23 4.93 4.94 4.93 4.94 2.65 3 2.64 3 2.05 2.5 2.06 2.5 3.16 4.2 3.15 4.18 2.7 4.02 2.67 4.03 2.14 3.58 2.15 3.57 1.9 3.48 1.9 3.48 1.88 3.9 1.9 3.9 1.72 4.02 1.7 4.03 1.27 3.28 1.26 3.28 1.28 3.83 1.28 3.82 1.07 3.7 1.07 3.73.86 3.48.85 3.47.7 3.38.7 3.4.64 3.95.65 3.96.5 4.17.5 4.15.33 3.96.34 3.96v21.62l-.34 3.97-.34 3.96-.5 4.13-.48 4.14-.57 3.45-.56 3.45-.6 3.04-.6 3.04-.66 2.9-.67 2.9-.77 2.9-.77 2.9-1.24 4.05-1.24 4.04-1.42 3.96-1.43 3.96-1.26 3.1-1.25 3.08-1.1 2.5-1.12 2.53-2.1 4.24-2.08 4.26-1.48 2.7-1.5 2.7-1.35 2.33-1.37 2.3-2.1 3.34-2.12 3.34-2.32 3.33-2.33 3.34-2.13 2.8-2.13 2.8-1.98 2.4-1.97 2.43-2.86 3.28-2.88 3.28-5.03 5.03-5.04 5.03-3 2.63-3 2.64-2.5 2.06-2.5 2.06-4.2 3.14-4.2 3.14-4 2.7-4.03 2.67-3.58 2.14-3.57 2.13-3.1 1.7-3.08 1.7-4.44 2.18-4.45 2.18-4.04 1.73-4.06 1.74-4.15 1.55-4.15 1.53-3.3 1.07-3.3 1.07-2.68.77-2.7.78-4.3 1.07-4.32 1.06-4.48.88-4.48.88-4.63.67-4.63.65-3.96.38-3.95.4-3.2.18-3.17.2-6.28.1-6.28.06zm-95.03-106.6l1.54-.52 1-.58 1.02-.58 1.04-.85 1.04-.85.9-1.18.88-1.18.58-1.2.58-1.23.4-1.7.42-1.73-.1-1.93-.12-1.93-.32-1.16-.3-1.16-.68-1.36-.66-1.37-.95-1.18-.95-1.17-1.18-.9-1.2-.88-1.2-.58-1.22-.6-1.23-.33-1.23-.34h-2.5l-2.53.03-1.55.5-1.55.52-1.25.73-1.26.74-1.36 1.35-1.35 1.35-.74 1.25-.73 1.25-.52 1.55-.5 1.54v5.4l.5 1.56.53 1.54.73 1.26.73 1.25 1.44 1.45 1.45 1.46 1.34.7 1.35.7.97.3.98.33.86.17.86.18 2.22-.06L108 278l1.55-.52zm-7.15-1.67l-.96-.2-1.45-.7-1.46-.7-1.26-1.26-1.26-1.28-.53-1-.54-1-.4-1.5-.37-1.5V262.4l.37-1.5.4-1.5.52-1 .52-1 1.26-1.25 1.27-1.26 1-.55 1-.53 1.48-.38 1.5-.4h3.3l1.36.3 1.35.28 1.25.63 1.26.63 1.26 1.26 1.25 1.25.55 1.12.54 1.13.3.9.28.9.1 2.42.1 2.4-.3 1.42-.3 1.4-.6 1.2-.6 1.22-.84.97-.84.96-1.05.72-1.05.73-1.32.5-1.33.5-2.42.05-2.4.06-.98-.18zm36.84 2.12l1.02-.2 1.2-.6 1.2-.57 1.17-1.06 1.17-1.06.5-.85.5-.84h1.06l.13 1.3.1 1.3v2.22h2.58l-.13-1.33-.12-1.34v-23.4h-2.71v15.95l-.3 1.24-.28 1.24-.6 1.18-.57 1.18-.87 1-.86.98-1.34.67-1.35.68-1.1.23-1.12.23-1.93-.1-1.94-.1-.74-.3-.74-.33-.72-.56-.7-.56-.53-.95-.5-.95-.35-1.15-.33-1.14-.07-9.23-.08-9.22h-2.51l.07 9.14.08 9.12.3 1.3.3 1.28.5 1.05.5 1.05.76.84.76.84 1.1.67 1.13.68 1.26.33 1.27.34h1.4l1.4.03 1-.22zm68.2-.1l1.4-.3 1.58-.75 1.58-.76 1.17-1.1 1.17-1.07.33-.56.33-.54h1.08v4.83h2.51V234.5h-2.52v21.83H215l-.45-.68-.47-.68-1.05-.96-1.05-.95-1.57-.76-1.57-.76-1.5-.3-1.47-.3h-2.55l-1.48.3-1.5.3-1.82.88-1.84.88-1.64 1.66-1.65 1.67-.8 1.64-.8 1.64-.34 1.37-.34 1.35v3.86l.32 1.35.33 1.35.67 1.4.67 1.4.92 1.15.93 1.16 1.05.85 1.04.86 1.4.7 1.38.7 1.5.37 1.52.37h1.6l1.6.03 1.4-.3zm-5.92-2.12l-1.13-.27-1.38-.72-1.38-.72-1-1-.98-1-.6-1.03-.58-1.04-.45-1.45-.45-1.44v-5.02l.45-1.45.45-1.46.58-1.03.58-1 1.07-1.05 1.07-1.04 1.33-.7 1.33-.7 1.3-.26 1.3-.28h3.29l1.28.27 1.28.27 1.37.7 1.38.7 1.34 1.25 1.33 1.26.77 1.5.77 1.5.26 1.05.26 1.07v2.12l-.02 2.13-.44 1.35-.44 1.35-.66 1.1-.66 1.08-1.26 1.18-1.27 1.18-1.35.7-1.37.7-1.28.26-1.28.27h-1.83l-1.85-.02-1.13-.26zm38.15 1.9l1.1-.4.54-.35.56-.34.72-.57.7-.56.84-1.12.82-1.14h1.08V275.8l.12.9.12.9H248.57l-.15-.35-.14-.34-.14-9.26-.14-9.27-.32-1.12-.3-1.12-.33-.62-.3-.6-.57-.72-.56-.7-1.03-.7-1.04-.68-1.52-.53-1.53-.53h-5l-1.54.43-1.53.44-1.32.67-1.3.67-.6.42-.57.43V254.5l.57.55.56.54.58-.4.58-.42 1.24-.58 1.24-.58 1.33-.28 1.34-.28h3.49l1.23.3 1.24.28.96.52.95.52.66.77.65.77.3.96.27.97v3.98H241.04l-2.43.2-2.42.2-1.84.46-1.85.46-1.2.63-1.17.62-.94.84-.94.85-.64 1.3-.63 1.28v3.29l.56 1.2.55 1.2 1 .96 1.02.95 1 .5 1 .52 1.1.28 1.12.28 2.12-.08 2.13-.08 1.08-.38zm-5.87-1.8l-.73-.17-.82-.4-.82-.42-.55-.5-.55-.52-.4-.77-.4-.78-.08-1.37-.1-1.38.32-.95.32-.95.8-.8.83-.8 1.25-.6 1.26-.57 1.35-.3 1.34-.32 4.5-.1 4.48-.1V268.4l-.28 1.35-.28 1.34-.63 1.04-.64 1.05-.78.66-.77.67-.94.48-.93.5-1.28.26-1.3.27h-1.73l-1.74-.03-.73-.17zm34.62 2.15l.68-.18.82-.2.82-.22v-1.05l-.1-.4-.12-.42-1 .27-1 .27h-2.91l-.84-.44-.85-.43-.36-.5-.37-.52-.15-.65-.15-.65-.02-9.5-.02-9.53h7.71v-2.32h-7.73v-7.72h-2.52v7.72H254.53v2.32h5.8v18.32l.2 1.03.23 1.02.44.87.43.87.55.5.55.5.53.35.52.32.83.26.83.26h1.16l1.15.02.68-.18zm38.5-.12l1.4-.3 1.74-.84 1.74-.84 1.4-1.3 1.38-1.27.85-1.38.86-1.38.48-1.4.5-1.4.2-1.6.2-1.6-.2-1.5-.18-1.5-.5-1.48-.5-1.5-.86-1.4-.86-1.38-1.34-1.24-1.35-1.24-1.3-.68-1.32-.7-1.36-.4-1.35-.43-1.84-.1-1.84-.12-1.65.33-1.63.34-1.63.76-1.63.76-1.03.84-1.02.84-.87 1.03-.87 1.02-.77 1.55-.76 1.56-.33 1.27-.32 1.25v4.25l.33 1.26.35 1.25.75 1.55.75 1.54.85 1.04.86 1.04 1.04.85 1.03.84 1.36.67 1.34.68 1.54.38 1.55.38h1.7l1.7.03 1.4-.3zm-6.12-2.13l-1.13-.27-1.38-.72-1.4-.73-1.08-1.08-1.1-1.1-.67-1.42-.67-1.4-.26-1.07-.26-1.06v-4.64l.26-1.06.26-1.06.66-1.38.65-1.38 1.13-1.15 1.14-1.15 1.37-.72 1.37-.72 1.32-.26 1.3-.28h3.29l1.28.27 1.28.27 1.22.62 1.2.6 1.07 1 1.06 1 .63.97.62.95.4 1.12.43 1.1.2 1.8.22 1.8-.2 1.8-.23 1.77-.47 1.25-.47 1.24-.57.82-.56.83-.94.9-.94.9-1.3.7-1.3.68-1.3.28-1.3.27h-1.85l-1.83-.02-1.14-.26zM80.48 265.7v-11.87h6.18v-2.32h-6.18V241l.25-1.1.26-1.08.5-.88.53-.9.84-.48.84-.5 1.24-.1 1.23-.1 1.1.17 1.07.18.2-.88.2-.88-.2-.14-.24-.13-1.35-.23-1.35-.23-1.24.22-1.23.22-.94.48-.94.47-.67.58-.67.58-.62.96-.6.96-.4 1.2-.4 1.22-.1 5.45-.08 5.46h-5.36v2.33h5.4v23.78h2.71zm82.14 3.92l.1-7.97.3-1.24.33-1.23.58-1.2.57-1.2.9-1 .87-.97 1.4-.68 1.37-.68 1.16-.2 1.16-.23 1.83.1 1.83.1.9.42.9.42.7.72.72.7.36.7.36.68.33 1.15.33 1.14.08 9.22.1 9.23h2.5l-.08-9.04-.08-9.03-.32-1.36-.32-1.35-.6-1.22-.63-1.22-1.1-1.02-1.1-1.03-.85-.4-.84-.4-1.15-.3-1.15-.3H171.35l-1.15.3-1.16.3-1.02.5-1.02.5-1.15 1.06-1.16 1.04-.5.85-.5.84h-1.08l-.12-.9-.12-.9V251.52H159.8l.13 1.78.13 1.77v22.54H162.53zm118.36-5.07V251.5h-2.51v26.09h2.51zm47.95 4.97l.08-8.06.34-1.16.33-1.16.55-1.2.56-1.2.8-.86.8-.87.9-.56.9-.57 1.08-.36 1.06-.35h4.83l.96.45.98.44.55.52.55.52.43.68.44.68.37.96.37.97.06 9.6.07 9.62h2.72l-.1-8.95-.08-8.93-.3-1.34-.32-1.33-.57-1.22-.57-1.22-.92-.97-.9-.97-1.38-.67-1.37-.68-1.03-.2-1.04-.2h-2.22l-1.04.22-1.02.22-1.22.57-1.2.57-1.26 1.17-1.25 1.17-.4.75-.43.74h-1.04l-.12-.44-.1-.43v-3.98h-2.58l.13 2.47.12 2.47v21.17h2.49l.08-8.08zm-48.18-27.44l.44-.3.27-.53.28-.54V239.88l-.75-.75-.75-.75h-1.15l-.5.4-.53.4-.3.58-.3.58.14.42.14.43.4.45.42.46.57.24.57.24.3-.1.3-.12zm-189.5-51.56l-.05-27.2-.16-2.85-.16-2.86.64.07.64.06.4.74.38.73 1.22 1.97 1.2 1.97 17.88 27.23 17.86 27.24 9.17.06 9.17.05v-83.63h-17l-.02 23.6-.02 23.63.22 4.92.23 4.93.1.72.1.73h-.64l-.64-.02-2.22-3.63-2.22-3.63-16.7-25.63-16.7-25.64H74.3v83.64h17zm128.5 19.94v-7.24H187.88v-20.28h27.82v-14.5h-27.82l.04-9.9.05-9.9 14.92-.05 14.9-.05v-14.47h-47.89v83.62h49.85zm48.87-27.33v-34.57H292.75v-14.48H226.3v14.5h24.16v69.15h18.16zM20.5 220.5l-1.54-.28-1.84-.6-1.83-.6-1.7-.88-1.68-.88-1.62-1.22-1.63-1.22-1.38-1.48-1.4-1.47-1.03-1.57-1.03-1.58-.58-1.15-.58-1.16-.58-1.73-.58-1.74-.3-1.82-.32-1.8V194.23l.3-1.83.3-1.82.57-1.73.58-1.72.9-1.74.9-1.75 1.08-1.47 1.1-1.46 1.84-1.74 1.85-1.74 1.78-1.1 1.8-1.12 1.95-.76 1.95-.76 2.02-.42 2.03-.42h6.18l1.98.4 2 .42 1.4.5 1.4.5 1.15.58 1.16.58 1.65 1.08 1.65 1.1 1.74 1.73 1.74 1.75 1.1 1.64 1.07 1.64.58 1.16.58 1.16.5 1.4.5 1.4.43 1.98.4 1.98v6.18l-.4 2.03-.44 2.03-.77 1.96-.77 1.96-1.06 1.68-1.05 1.68-.5.6-.5.6-1.3 1.35-1.27 1.33-1.54 1.15-1.55 1.16-1.7.86-1.72.85-1.68.57-1.7.56-1.82.3-1.83.3-2.7-.02-2.7-.02-1.55-.27z" class="cls-1"/><path class="cls-1"/></svg>