<?xml version="1.0" encoding="UTF-8"?>
<svg width="450px" height="450px" viewBox="0 0 450 450" version="1.1" xmlns="http://www.w3.org/2000/svg" xmlns:xlink="http://www.w3.org/1999/xlink">
    <!-- Generator: Sketch 46 (44423) - http://www.bohemiancoding.com/sketch -->
    <title>Logo/DotNetFoundatio-v3</title>
    <desc>Created with Sketch.</desc>
    <defs></defs>
    <g id="Symbols" stroke="none" stroke-width="1" fill="none" fill-rule="evenodd">
        <g id="Logo/DotNetFoundatio-v3">
            <circle id="Oval-3" fill="#002440" cx="225" cy="225" r="225"></circle>
            <path d="M223.163677,38 C325.798281,38 409,121.275 409,224 C409,326.725 325.798281,410 223.163677,410 C131.269613,410 54.9658187,343.238 40,255.534 C57.7293847,255.537 72.0148027,241.239 72.0148027,223.602 C72.0148027,205.973 57.7423732,191.681 40.1318838,191.667 C55.4234157,104.356 131.548368,38 223.163677,38 Z M118.858545,277.526 C116.814345,277.526 114.92401,277.873 113.188539,278.568 C111.452068,279.263 109.967376,280.238 108.733462,281.492 C107.49855,282.747 106.534399,284.233 105.840011,285.951 C105.145622,287.669 104.798928,289.552 104.798928,291.598 C104.798928,293.644 105.145622,295.526 105.840011,297.244 C106.534399,298.962 107.49855,300.448 108.733462,301.703 C109.967376,302.957 111.452068,303.932 113.188539,304.627 C114.92401,305.322 116.814345,305.669 118.858545,305.669 C120.902744,305.669 122.783088,305.322 124.499576,304.627 C126.216064,303.932 127.700757,302.957 128.954652,301.703 C130.208548,300.448 131.181691,298.962 131.876079,297.244 C132.570468,295.526 132.918162,293.644 132.918162,291.598 C132.918162,289.552 132.570468,287.669 131.876079,285.951 C131.181691,284.233 130.208548,282.747 128.954652,281.492 C127.700757,280.238 126.216064,279.263 124.499576,278.568 C122.783088,277.873 120.902744,277.526 118.858545,277.526 Z M118.858545,280.653 C120.478118,280.653 121.943827,280.942 123.255672,281.521 C124.566517,282.1 125.685532,282.882 126.611716,283.867 C127.536901,284.851 128.241281,286.009 128.722857,287.341 C129.205432,288.673 129.446219,290.092 129.446219,291.598 C129.446219,293.103 129.205432,294.522 128.722857,295.854 C128.241281,297.186 127.536901,298.344 126.611716,299.328 C125.685532,300.313 124.566517,301.095 123.255672,301.674 C121.943827,302.253 120.478118,302.542 118.858545,302.542 C117.237972,302.542 115.772263,302.253 114.461417,301.674 C113.149573,301.095 112.031558,300.313 111.105373,299.328 C110.179189,298.344 109.475809,297.186 108.993234,295.854 C108.511658,294.522 108.269871,293.103 108.269871,291.598 C108.269871,290.092 108.511658,288.673 108.993234,287.341 C109.475809,286.009 110.179189,284.851 111.105373,283.867 C112.031558,282.882 113.149573,282.1 114.461417,281.521 C115.772263,280.942 117.237972,280.653 118.858545,280.653 Z M143.852531,278.221 L140.381588,278.221 L140.381588,294.146 C140.381588,295.613 140.516469,297.041 140.786232,298.431 C141.056993,299.821 141.567543,301.046 142.319881,302.108 C143.072218,303.17 144.113301,304.029 145.444129,304.685 C146.774957,305.341 148.481454,305.669 150.564619,305.669 C152.724717,305.669 154.615052,305.139 156.234625,304.077 C157.854199,303.015 159.012179,301.751 159.705568,300.284 L159.879415,300.284 C159.956347,300.554 160.005304,301.153 160.024288,302.079 C160.043271,303.006 160.072245,303.971 160.111211,304.975 L163.582154,304.975 C163.582154,304.627 163.563171,304.135 163.524205,303.498 C163.486238,302.861 163.457264,302.176 163.438281,301.442 C163.418298,300.709 163.389324,299.985 163.351357,299.271 C163.312392,298.556 163.293408,297.948 163.293408,297.446 L163.293408,278.221 L159.821466,278.221 L159.821466,291.598 C159.821466,293.451 159.580678,295.062 159.098103,296.433 C158.616527,297.803 157.961105,298.942 157.131835,299.85 C156.301566,300.757 155.318432,301.432 154.180435,301.876 C153.042437,302.32 151.837498,302.542 150.564619,302.542 C149.175842,302.542 148.047836,302.301 147.179601,301.819 C146.312364,301.336 145.636959,300.689 145.154384,299.879 C144.672809,299.068 144.335106,298.151 144.142276,297.128 C143.949446,296.105 143.852531,295.053 143.852531,293.972 L143.852531,278.221 Z M231.855022,261.195 L228.38308,261.195 L228.38308,282.911 L228.268181,282.911 C227.727657,281.985 227.053251,281.184 226.242965,280.508 C225.432679,279.832 224.555451,279.273 223.610284,278.829 C222.665116,278.385 221.671991,278.057 220.630908,277.844 C219.588826,277.632 218.566726,277.526 217.563609,277.526 C215.51941,277.526 213.630074,277.873 211.893603,278.568 C210.158132,279.263 208.673439,280.238 207.438527,281.492 C206.204614,282.747 205.240463,284.233 204.546075,285.951 C203.851686,287.669 203.504992,289.552 203.504992,291.598 C203.504992,293.644 203.851686,295.526 204.546075,297.244 C205.240463,298.962 206.204614,300.448 207.438527,301.703 C208.673439,302.957 210.158132,303.932 211.893603,304.627 C213.630074,305.322 215.51941,305.669 217.563609,305.669 C218.566726,305.669 219.588826,305.563 220.630908,305.351 C221.671991,305.139 222.665116,304.81 223.610284,304.366 C224.555451,303.923 225.432679,303.363 226.242965,302.687 C227.053251,302.012 227.727657,301.211 228.268181,300.284 L228.38308,300.284 L228.38308,304.975 L231.855022,304.975 L231.855022,261.195 Z M217.563609,280.653 C219.145216,280.653 220.610925,280.942 221.961736,281.521 C223.311547,282.1 224.487511,282.882 225.490627,283.867 C226.493744,284.851 227.284048,286.009 227.862538,287.341 C228.441029,288.673 228.730774,290.092 228.730774,291.598 C228.730774,293.103 228.441029,294.522 227.862538,295.854 C227.284048,297.186 226.493744,298.344 225.490627,299.328 C224.487511,300.313 223.311547,301.095 221.961736,301.674 C220.610925,302.253 219.145216,302.542 217.563609,302.542 C215.944036,302.542 214.478327,302.253 213.166482,301.674 C211.855637,301.095 210.736622,300.313 209.811437,299.328 C208.885253,298.344 208.181872,297.186 207.699297,295.854 C207.216722,294.522 206.975934,293.103 206.975934,291.598 C206.975934,290.092 207.216722,288.673 207.699297,287.341 C208.181872,286.009 208.885253,284.851 209.811437,283.867 C210.736622,282.882 211.855637,282.1 213.166482,281.521 C214.478327,280.942 215.944036,280.653 217.563609,280.653 Z M250.485613,277.526 C248.749142,277.526 246.936739,277.844 245.046404,278.481 C243.156069,279.118 241.575461,280.054 240.302582,281.29 L242.326799,283.664 C244.680726,281.656 247.399331,280.653 250.485613,280.653 C252.64571,280.653 254.439131,281.155 255.865874,282.158 C257.293617,283.162 258.006988,284.822 258.006988,287.139 L258.006988,288.76 L253.956556,288.76 C252.64571,288.76 251.131044,288.847 249.414556,289.021 C247.698068,289.194 246.078495,289.58 244.554837,290.179 C243.031179,290.777 241.748308,291.675 240.707225,292.872 C239.666142,294.068 239.144602,295.69 239.144602,297.736 C239.144602,299.164 239.424355,300.38 239.983862,301.384 C240.54337,302.388 241.266733,303.208 242.153951,303.845 C243.04117,304.482 244.043287,304.946 245.162301,305.235 C246.281316,305.525 247.419314,305.669 248.576295,305.669 C250.85229,305.669 252.731635,305.264 254.217326,304.453 C255.702019,303.643 256.945923,302.369 257.949039,300.631 L258.064937,300.631 C258.064937,302.214 258.180835,303.662 258.411632,304.975 L261.651778,304.975 C261.53588,304.203 261.448957,303.43 261.392007,302.658 C261.334058,301.886 261.285101,301.056 261.247135,300.168 C261.208169,299.28 261.179194,298.315 261.160211,297.273 C261.141228,296.23 261.131237,295.053 261.131237,293.74 L261.131237,287.197 C261.131237,283.799 260.167086,281.338 258.237785,279.813 C256.309484,278.288 253.725759,277.526 250.485613,277.526 Z M258.006988,291.54 L258.006988,293.335 C258.006988,294.454 257.872107,295.564 257.602345,296.665 C257.331583,297.765 256.840016,298.749 256.126645,299.618 C255.413273,300.487 254.458114,301.191 253.262167,301.732 C252.066221,302.272 250.543562,302.542 248.692193,302.542 C247.958838,302.542 247.235476,302.436 246.522104,302.224 C245.808732,302.012 245.162301,301.703 244.583811,301.297 C244.005321,300.892 243.532737,300.371 243.16606,299.734 C242.800382,299.097 242.616544,298.373 242.616544,297.562 C242.616544,296.404 242.944255,295.439 243.599678,294.667 C244.2561,293.895 245.133327,293.277 246.232359,292.814 C247.33239,292.35 248.566303,292.022 249.936097,291.829 C251.304891,291.636 252.722643,291.54 254.188352,291.54 L258.006988,291.54 Z M275.827293,270.519 L272.355351,270.519 L272.355351,278.221 L266.569447,278.221 L266.569447,281.348 L272.355351,281.348 L272.355351,298.778 C272.355351,299.743 272.48124,300.641 272.732019,301.471 C272.982798,302.301 273.377451,303.025 273.917975,303.643 C274.457499,304.26 275.170871,304.753 276.05809,305.119 C276.945308,305.486 278.006374,305.669 279.240287,305.669 C279.896709,305.669 280.649046,305.573 281.497299,305.38 C282.345552,305.187 283.097889,304.975 283.753312,304.743 L283.464566,301.616 C282.84711,301.886 282.201679,302.108 281.526274,302.282 C280.850868,302.456 280.185455,302.542 279.530032,302.542 C278.373051,302.542 277.466849,302.214 276.810427,301.558 C276.155004,300.902 275.827293,299.975 275.827293,298.778 L275.827293,281.348 L283.464566,281.348 L283.464566,278.221 L275.827293,278.221 L275.827293,270.519 Z M316.153775,277.526 C314.109576,277.526 312.22024,277.873 310.483769,278.568 C308.748298,279.263 307.263605,280.238 306.028693,281.492 C304.79478,282.747 303.830629,284.233 303.13624,285.951 C302.441852,287.669 302.095157,289.552 302.095157,291.598 C302.095157,293.644 302.441852,295.526 303.13624,297.244 C303.830629,298.962 304.79478,300.448 306.028693,301.703 C307.263605,302.957 308.748298,303.932 310.483769,304.627 C312.22024,305.322 314.109576,305.669 316.153775,305.669 C318.197975,305.669 320.079318,305.322 321.795806,304.627 C323.511295,303.932 324.996986,302.957 326.249883,301.703 C327.503779,300.448 328.477921,298.962 329.172309,297.244 C329.866697,295.526 330.213392,293.644 330.213392,291.598 C330.213392,289.552 329.866697,287.669 329.172309,285.951 C328.477921,284.233 327.503779,282.747 326.249883,281.492 C324.996986,280.238 323.511295,279.263 321.795806,278.568 C320.079318,277.873 318.197975,277.526 316.153775,277.526 Z M316.153775,280.653 C317.774348,280.653 319.240057,280.942 320.551901,281.521 C321.862747,282.1 322.981761,282.882 323.906946,283.867 C324.833131,284.851 325.536511,286.009 326.019086,287.341 C326.500662,288.673 326.742449,290.092 326.742449,291.598 C326.742449,293.103 326.500662,294.522 326.019086,295.854 C325.536511,297.186 324.833131,298.344 323.906946,299.328 C322.981761,300.313 321.862747,301.095 320.551901,301.674 C319.240057,302.253 317.774348,302.542 316.153775,302.542 C314.534202,302.542 313.068493,302.253 311.756648,301.674 C310.445802,301.095 309.326788,300.313 308.401603,299.328 C307.475419,298.344 306.772038,297.186 306.289463,295.854 C305.806888,294.522 305.5661,293.103 305.5661,291.598 C305.5661,290.092 305.806888,288.673 306.289463,287.341 C306.772038,286.009 307.475419,284.851 308.401603,283.867 C309.326788,282.882 310.445802,282.1 311.756648,281.521 C313.068493,280.942 314.534202,280.653 316.153775,280.653 Z M99.1289217,260.5 C98.2796697,260.501 97.383459,260.645 96.4382915,260.935 C95.4931239,261.224 94.6348798,261.717 93.8635592,262.411 C93.0922385,263.106 92.4458079,264.023 91.9252664,265.162 C91.4047248,266.301 91.1439545,267.739 91.1439545,269.476 L91.1439545,278.221 L85.5898463,278.221 L85.5898463,281.348 L91.1439545,281.348 L91.1439545,304.975 L94.6158966,304.975 L94.6158966,281.348 L100.864393,281.348 L100.864393,278.221 L94.6158966,278.221 L94.6158966,270.75 C94.6158966,266.002 96.1775212,263.628 99.3017694,263.628 C100.613614,263.628 101.654697,263.821 102.426018,264.207 L103.120406,261.195 C102.079323,260.732 100.748495,260.501 99.1289217,260.5 Z M185.568789,277.526 C183.408692,277.526 181.518356,278.057 179.898783,279.118 C178.27821,280.18 177.121229,281.444 176.426841,282.911 L176.252994,282.911 C176.176062,282.641 176.128104,282.043 176.109121,281.116 C176.089138,280.189 176.060164,279.224 176.022197,278.221 L172.550255,278.221 C172.550255,278.568 172.570238,279.06 172.608204,279.697 C172.64717,280.334 172.676144,281.02 172.695128,281.753 C172.714111,282.487 172.743085,283.21 172.782051,283.925 C172.821017,284.639 172.84,285.247 172.84,285.749 L172.84,304.975 L176.310943,304.975 L176.310943,291.598 C176.310943,289.745 176.55273,288.133 177.034306,286.762 C177.516881,285.392 178.172304,284.253 179.001573,283.345 C179.830843,282.438 180.814976,281.763 181.952974,281.319 C183.089972,280.875 184.29591,280.653 185.568789,280.653 C186.957566,280.653 188.085572,280.894 188.952809,281.377 C189.821044,281.859 190.496449,282.506 190.978025,283.317 C191.4606,284.127 191.798302,285.044 191.991132,286.067 C192.183963,287.09 192.279878,288.142 192.279878,289.223 L192.279878,304.975 L195.75182,304.975 L195.75182,289.05 C195.75182,287.583 195.606948,286.154 195.317203,284.764 C195.028457,283.375 194.507916,282.149 193.755578,281.087 C193.003241,280.025 191.97115,279.167 190.660305,278.51 C189.34846,277.854 187.650955,277.526 185.568789,277.526 Z M293.763496,278.221 L290.291554,278.221 L290.291554,304.975 L293.763496,304.975 L293.763496,278.221 Z M350.695352,277.526 C348.535255,277.526 346.645919,278.057 345.025346,279.118 C343.405773,280.18 342.247793,281.444 341.553404,282.911 L341.380556,282.911 C341.302625,282.641 341.254667,282.043 341.235684,281.116 C341.216701,280.189 341.187726,279.224 341.148761,278.221 L337.677818,278.221 C337.677818,278.568 337.696801,279.06 337.734767,279.697 C337.773733,280.334 337.802708,281.02 337.821691,281.753 C337.841673,282.487 337.870648,283.21 337.908614,283.925 C337.94758,284.639 337.966563,285.247 337.966563,285.749 L337.966563,304.975 L341.438505,304.975 L341.438505,291.598 C341.438505,289.745 341.679293,288.133 342.161868,286.762 C342.643444,285.392 343.298867,284.253 344.128136,283.345 C344.957406,282.438 345.941539,281.763 347.079537,281.319 C348.217535,280.875 349.422473,280.653 350.695352,280.653 C352.084129,280.653 353.212136,280.894 354.080371,281.377 C354.947607,281.859 355.623012,282.506 356.105587,283.317 C356.587163,284.127 356.924866,285.044 357.117696,286.067 C357.310526,287.09 357.407441,288.142 357.407441,289.223 L357.407441,304.975 L360.878384,304.975 L360.878384,289.05 C360.878384,287.583 360.733511,286.154 360.444765,284.764 C360.155021,283.375 359.634479,282.149 358.882142,281.087 C358.129804,280.025 357.098713,279.167 355.786868,278.51 C354.475023,277.854 352.778518,277.526 350.695352,277.526 Z M292.027025,265.017 C291.29467,265.017 290.677214,265.268 290.175656,265.77 C289.674097,266.272 289.423318,266.89 289.423318,267.623 C289.423318,268.357 289.674097,268.975 290.175656,269.476 C290.677214,269.978 291.29467,270.229 292.027025,270.229 C292.760379,270.229 293.377835,269.978 293.878394,269.476 C294.379953,268.975 294.630732,268.357 294.630732,267.623 C294.630732,266.89 294.379953,266.272 293.878394,265.77 C293.377835,265.268 292.760379,265.017 292.027025,265.017 Z M305.506153,161.403 L238.640046,161.403 L238.640046,176.843 L262.512021,176.843 L262.512021,245.588 L281.516282,245.588 L281.516282,176.843 L305.506153,176.843 L305.506153,161.403 Z M108.015095,161.403 L87.6040723,161.403 L87.6040723,245.588 L105.493316,245.588 L105.493316,199.327 C105.493316,193.378 105.337453,188.838 105.02373,185.707 L105.258523,185.707 C106.040834,187.273 107.448594,189.602 109.481803,192.693 L144.147271,245.588 L163.26843,245.588 L163.26843,161.403 L145.379186,161.403 L145.379186,207.957 C145.379186,213.632 145.535049,217.487 145.847774,219.522 L145.61298,219.522 L141.390699,212.654 L108.015095,161.403 Z M231.014762,161.403 L182.507485,161.403 L182.507485,245.588 L232.950058,245.588 L232.950058,230.207 L201.452799,230.207 L201.452799,210.951 L228.96157,210.951 L228.96157,195.57 L201.452799,195.57 L201.452799,176.843 L231.014762,176.843 L231.014762,161.403 Z" id="Shape" fill="#FFFFFF" fill-rule="nonzero"></path>
            <path d="M62,224.5 C62,237.479 51.4787761,248 38.4995,248 C25.5202238,248 15,237.479 15,224.5 C15,211.521 25.5202238,201 38.4995,201 C51.4787761,201 62,211.521 62,224.5" id="Shape" fill="#FFFFFF" fill-rule="nonzero"></path>
        </g>
    </g>
</svg>