<?xml version="1.0" encoding="UTF-8" standalone="no"?>
<svg
   xmlns:dc="http://purl.org/dc/elements/1.1/"
   xmlns:cc="http://creativecommons.org/ns#"
   xmlns:rdf="http://www.w3.org/1999/02/22-rdf-syntax-ns#"
   xmlns:svg="http://www.w3.org/2000/svg"
   xmlns="http://www.w3.org/2000/svg"
   xmlns:sodipodi="http://sodipodi.sourceforge.net/DTD/sodipodi-0.dtd"
   xmlns:inkscape="http://www.inkscape.org/namespaces/inkscape"
   version="1.1"
   x="0"
   y="0"
   width="400"
   height="400"
   viewBox="0, 0, 400, 400"
   id="svg33"
   sodipodi:docname="dotnetfoundation_v4_w.svg"
   inkscape:version="0.92.1 r15371">
  <metadata
     id="metadata39">
    <rdf:RDF>
      <cc:Work
         rdf:about="">
        <dc:format>image/svg+xml</dc:format>
        <dc:type
           rdf:resource="http://purl.org/dc/dcmitype/StillImage" />
      </cc:Work>
    </rdf:RDF>
  </metadata>
  <defs
     id="defs37" />
  <sodipodi:namedview
     pagecolor="#ffffff"
     bordercolor="#666666"
     borderopacity="1"
     objecttolerance="10"
     gridtolerance="10"
     guidetolerance="10"
     inkscape:pageopacity="0"
     inkscape:pageshadow="2"
     inkscape:window-width="3000"
     inkscape:window-height="1875"
     id="namedview35"
     showgrid="false"
     inkscape:zoom="0.417193"
     inkscape:cx="426.88731"
     inkscape:cy="492.66047"
     inkscape:window-x="-13"
     inkscape:window-y="-13"
     inkscape:window-maximized="1"
     inkscape:current-layer="svg33" />
  <path
     style="fill:#ffffff;stroke-width:0.19315997"
     d="m 204.58326,384.09478 -1.73847,-0.0659 -3.76663,-0.20795 -3.76663,-0.20795 -2.99393,-0.28116 -2.99402,-0.28116 -3.18713,-0.39773 -3.18713,-0.3978 -4.47619,-0.75418 -4.4761,-0.75426 -3.25025,-0.69572 -3.25025,-0.69573 -3.09057,-0.77177 -3.09057,-0.77176 -3.38032,-0.96872 -3.38024,-0.96879 -3.95982,-1.31974 -3.95981,-1.31967 -3.38024,-1.29865 -3.38032,-1.29864 -3.09057,-1.30782 -3.09058,-1.30773 -3.38024,-1.57981 -3.38032,-1.57981 -2.80082,-1.46566 -2.80084,-1.46565 -2.41452,-1.3416 -2.41444,-1.34159 -3.09058,-1.85254 -3.09057,-1.85246 -4.24948,-2.83585 -4.24956,-2.83585 -3.095416,-2.30305 -3.09549,-2.30313 -2.409607,-1.91732 -2.409608,-1.91733 -2.607636,-2.23493 -2.607719,-2.23484 -2.511083,-2.29671 -2.511081,-2.29655 -3.352722,-3.37907 -3.352806,-3.37907 -2.715447,-3.00519 -2.715529,-3.00519 -2.493155,-2.99402 -2.493154,-2.99394 -2.562027,-3.38033 -2.561943,-3.38031 -2.037982,-2.90306 -2.037981,-2.90305 -2.210245,-3.4712 -2.210245,-3.47121 -1.137141,-1.93159 -1.137141,-1.93166 -1.517355,-2.7042 -1.517438,-2.70427 -2.481815,-5.02216 -2.481815,-5.02217 -1.292395,-2.99393 -1.292394,-2.99402 -1.409628,-3.57343 -1.409627,-3.57343 -1.284724,-3.76663 -1.28464,-3.76662 -1.131888,-3.77804 -1.131888,-3.77804 -0.990642,-3.9484 -0.990641,-3.94831 -0.956372,-4.76352 -0.956372,-4.76343 v -0.66379 -0.66371 l 2.198572,-0.11781 2.198489,-0.11782 1.937925,-0.39497 1.937841,-0.39489 1.803266,-0.58842 1.803267,-0.58833 1.981699,-0.94561 1.981616,-0.94562 1.688368,-1.09895 1.688369,-1.09887 1.460989,-1.21668 1.46099,-1.21661 1.307904,-1.38636 1.30782,-1.38636 1.101787,-1.48609 1.101787,-1.486 0.913431,-1.55797 0.913349,-1.55804 0.758343,-1.74841 0.758344,-1.74839 0.483273,-1.60924 0.483355,-1.60924 0.290998,-1.44874 0.29108,-1.44865 0.217957,-2.18931 0.217955,-2.18932 -0.212286,-2.32565 -0.212203,-2.32555 -0.370542,-1.69796 -0.370625,-1.69796 -0.603257,-1.80327 -0.603257,-1.80326 -0.868155,-1.83487 -0.868073,-1.83478 -1.476415,-2.2215 -1.476331,-2.22159 -2.424616,-2.41994 -2.424616,-2.41995 -1.835034,-1.29347 -1.835034,-1.29357 -2.124697,-1.05468 -2.12478,-1.05467 -1.999627,-0.68898 -1.999627,-0.68906 -1.960187,-0.4018 -1.960104,-0.40189 -2.173058,-0.1094 -2.173058,-0.10931 v -0.8213 -0.82121 l 0.862236,-4.22046 0.862319,-4.22054 0.885666,-3.57327 0.885749,-3.57317 0.781357,-2.70436 0.781357,-2.70436 0.762345,-2.41462 0.762347,-2.4146 1.08161,-3.09058 1.081609,-3.09057 1.698874,-4.25673 1.698874,-4.25681 1.530862,-3.37308 1.530862,-3.37307 1.576805,-3.14593 1.576721,-3.14594 1.662938,-3.03521 1.662937,-3.03513 2.027058,-3.380236 2.026976,-3.380318 2.172056,-3.283767 2.171974,-3.283683 1.78659,-2.511082 1.78659,-2.511081 2.235759,-2.897382 2.235676,-2.897466 2.300213,-2.760305 2.300212,-2.760472 1.854879,-2.068582 1.854795,-2.068582 3.039379,-3.196884 3.039295,-3.196801 3.439855,-3.203388 3.43994,-3.203305 1.931587,-1.684449 1.931589,-1.684448 2.846937,-2.325561 2.846938,-2.325643 2.851274,-2.146126 2.85127,-2.146126 3.09057,-2.150045 3.09059,-2.150128 3.28368,-2.081005 3.28376,-2.081006 3.78238,-2.169972 3.78246,-2.170056 3.55768,-1.843623 3.55759,-1.843705 2.99402,-1.386281 2.99393,-1.386281 3.38032,-1.441896 3.38032,-1.441895 4.05638,-1.509851 4.05636,-1.509851 3.29069,-1.066016 3.29068,-1.066018 2.69727,-0.777187 2.69727,-0.777189 3.86318,-0.966627 3.86318,-0.966712 3.76662,-0.769766 3.76662,-0.769685 3.57351,-0.589248 3.57343,-0.589249 3.95973,-0.483355 3.95982,-0.4834394 3.47687,-0.2870784 3.47688,-0.286995 5.31191,-0.2231257 5.31191,-0.2231257 5.50502,0.1253206 5.5051,0.125404 4.15292,0.289413 4.15292,0.2894965 3.57352,0.3906371 3.57343,0.390636 3.28368,0.485941 3.28377,0.48594 3.57343,0.654536 3.57351,0.654536 3.47687,0.783191 3.47688,0.783107 3.28369,0.880412 3.28376,0.880497 2.84735,0.862069 2.84744,0.862069 4.00976,1.371106 4.00976,1.371105 4.30084,1.719553 4.30084,1.719551 3.18287,1.441813 3.1828,1.441812 3.71968,1.860881 3.71951,1.860799 3.47687,1.935757 3.47696,1.935675 2.99394,1.836117 2.99402,1.836035 4.15292,2.794323 4.15292,2.794325 3.67007,2.755553 3.66999,2.755551 3.18713,2.658082 3.18721,2.657997 2.51108,2.230173 2.51108,2.230173 4.93112,4.937031 4.9311,4.937032 2.63765,2.99402 2.63766,2.993937 2.0625,2.511081 2.06241,2.511082 3.14635,4.187608 3.14636,4.187527 2.68101,4.021765 2.68092,4.021683 2.14138,3.57351 2.14137,3.573426 1.8954,3.47688 1.89549,3.47688 1.89332,3.89552 1.89323,3.89562 1.71889,4.02393 1.71871,4.02402 1.25796,3.28377 1.25796,3.28368 1.27972,3.81615 1.27972,3.81623 1.06669,3.71701 1.06668,3.71709 0.85223,3.47688 0.85215,3.47687 0.69364,3.38032 0.69372,3.38033 0.65471,3.95973 0.65478,3.95981 0.49028,4.15292 0.49027,4.15293 0.34127,3.95981 0.3412,3.95973 v 10.81701 10.81693 l -0.3412,3.95982 -0.34127,3.95972 -0.48869,4.13967 -0.48878,4.13967 -0.56857,3.45119 -0.56857,3.4512 -0.59308,3.03296 -0.593,3.03295 -0.67396,2.89739 -0.67397,2.89738 -0.7726,2.89738 -0.77252,2.89747 -1.23995,4.05636 -1.23994,4.05629 -1.42547,3.95981 -1.42547,3.95981 -1.2573,3.0905 -1.25729,3.09057 -1.10712,2.51108 -1.1072,2.51109 -2.08869,4.24956 -2.08868,4.24947 -1.48833,2.70428 -1.48834,2.70418 -1.35809,2.31798 -1.35819,2.31789 -2.11027,3.33496 -2.11027,3.33488 -2.33132,3.32912 -2.3314,3.32913 -2.12803,2.80075 -2.12803,2.80082 -1.96928,2.41453 -1.96927,2.41453 -2.8682,3.28368 -2.86811,3.28377 -5.03034,5.02724 -5.03025,5.02734 -2.99402,2.63806 -2.99394,2.63808 -2.51108,2.06241 -2.51108,2.0625 -4.18761,3.14635 -4.18752,3.14635 -4.02177,2.68318 -4.02168,2.68319 -3.57351,2.13995 -3.57343,2.13995 -3.09058,1.70305 -3.09058,1.70304 -4.44267,2.17106 -4.44267,2.17105 -4.05636,1.73298 -4.05637,1.73289 -4.15293,1.54504 -4.15291,1.54504 -3.29069,1.06601 -3.29077,1.06611 -2.69719,0.77918 -2.69727,0.77911 -4.31243,1.06944 -4.31252,1.06943 -4.47626,0.87899 -4.47636,0.87892 -4.63587,0.66496 -4.63585,0.66496 -3.95973,0.38279 -3.95981,0.38272 -3.18714,0.19828 -3.18713,0.19827 -6.2777,0.0743 -6.2777,0.0743 z m -95.0347,-106.59388 1.5452,-0.52264 1.01307,-0.57891 1.01307,-0.57883 1.04175,-0.84864 1.04176,-0.84856 0.88891,-1.1825 0.88884,-1.18242 0.57891,-1.21301 0.57891,-1.21302 0.41098,-1.71621 0.41098,-1.71622 -0.1094,-1.93159 -0.10947,-1.93159 -0.31718,-1.15899 -0.31718,-1.15898 -0.66379,-1.36219 -0.66379,-1.36234 -0.94846,-1.17208 -0.94835,-1.17216 -1.18693,-0.89217 -1.18684,-0.89217 -1.21251,-0.57866 -1.21252,-0.57874 -1.23378,-0.34078 -1.23385,-0.34086 -2.51109,0.0151 -2.51108,0.015 -1.54521,0.51129 -1.545277,0.51129 -1.255542,0.72808 -1.255543,0.72808 -1.352179,1.35952 -1.352095,1.35951 -0.729327,1.24929 -0.729244,1.24945 -0.515374,1.5452 -0.51529,1.54529 v 2.70427 2.70428 l 0.51529,1.5452 0.515374,1.54529 0.72741,1.25554 0.72741,1.25554 1.450567,1.45081 1.450567,1.45074 1.352183,0.69848 1.352086,0.69856 0.980304,0.31784 0.9803,0.31776 0.85474,0.1801 0.85473,0.18011 2.22133,-0.0625 2.22134,-0.0625 1.54529,-0.52263 z m -7.14695,-1.67404 -0.96579,-0.19494 -1.44874,-0.69439 -1.44864,-0.69448 -1.258134,-1.27413 -1.258122,-1.27414 -0.532883,-0.99972 -0.5328,-0.99973 -0.382133,-1.49392 -0.382048,-1.49401 v -2.15955 -2.15956 l 0.382048,-1.49401 0.382133,-1.49401 0.531132,-0.99964 0.531049,-0.99973 1.263459,-1.25554 1.263463,-1.25554 0.996146,-0.53539 0.99606,-0.53538 1.49401,-0.38213 1.49392,-0.38214 h 1.65927 1.65927 l 1.35209,0.28441 1.35219,0.28441 1.25554,0.62977 1.25553,0.62978 1.25554,1.25554 1.25555,1.25554 0.54564,1.12805 0.54564,1.12805 0.29058,0.9001 0.2905,0.90016 0.0997,2.41446 0.0996,2.41452 -0.299,1.40646 -0.29892,1.40645 -0.59867,1.21594 -0.59859,1.21594 -0.84514,0.96612 -0.84515,0.96614 -1.0515,0.72416 -1.05152,0.72423 -1.32874,0.49236 -1.32884,0.49236 -2.41444,0.0625 -2.41453,0.0625 -0.96579,-0.19494 z m 36.83576,2.12596 1.02358,-0.2128 1.19933,-0.58248 1.19934,-0.58242 1.16975,-1.0586 1.16974,-1.0586 0.49845,-0.85039 0.49837,-0.85039 h 0.53312 0.53322 l 0.12315,1.30381 0.12316,1.30382 v 1.11071 1.11062 h 1.28322 1.28331 l -0.12432,-1.33758 -0.12432,-1.33759 V 263.21026 251.5095 h -1.35209 -1.3521 v 7.96791 7.96781 l -0.29358,1.24529 -0.2935,1.24537 -0.58283,1.18392 -0.58283,1.18391 -0.86507,0.98898 -0.86508,0.98889 -1.34383,0.6723 -1.34385,0.67229 -1.11095,0.23063 -1.11088,0.23055 -1.93384,-0.091 -1.93375,-0.0912 -0.74133,-0.31577 -0.74142,-0.31567 -0.71716,-0.56807 -0.71715,-0.56798 -0.51504,-0.94621 -0.51496,-0.94611 -0.33219,-1.14457 -0.33227,-1.14447 -0.0743,-9.22336 -0.0734,-9.22345 h -1.25562 -1.25563 l 0.0783,9.12681 0.0783,9.1268 0.30742,1.28706 0.30734,1.28706 0.49903,1.05484 0.49904,1.05485 0.7485,0.84523 0.74842,0.8453 1.11663,0.67113 1.11663,0.67105 1.2713,0.33186 1.27122,0.33184 1.39086,0.0109 1.39096,0.0116 1.02357,-0.21287 z m 68.20517,-0.0943 1.3902,-0.30718 1.58297,-0.75559 1.58306,-0.7556 1.1725,-1.0856 1.17258,-1.08562 0.32834,-0.55581 0.32835,-0.55589 h 0.53789 0.53781 v 2.41452 2.41444 h 1.25554 1.25554 v -21.5373 -21.53738 h -1.25554 -1.25554 v 10.91357 10.91356 h -0.53122 -0.53113 l -0.46568,-0.6838 -0.46568,-0.6838 -1.05159,-0.96104 -1.05159,-0.96105 -1.57331,-0.75559 -1.5733,-0.75559 -1.48884,-0.30251 -1.48884,-0.3025 h -1.2718 -1.27189 l -1.48883,0.30134 -1.48884,0.30142 -1.83503,0.88133 -1.83504,0.88132 -1.64843,1.66636 -1.64842,1.66644 -0.79745,1.64185 -0.79746,1.64192 -0.34176,1.3521 -0.34178,1.35209 v 1.93159 1.93158 l 0.32918,1.34685 0.32927,1.34675 0.67163,1.39638 0.67163,1.39637 0.93136,1.16057 0.93135,1.16048 1.04576,0.85932 1.04576,0.85932 1.38719,0.69497 1.38712,0.69498 1.51027,0.37112 1.51018,0.37113 1.60374,0.0142 1.60373,0.0142 1.39028,-0.30717 z m -5.92184,-2.12353 -1.13097,-0.27382 -1.37344,-0.72166 -1.37336,-0.72174 -0.99331,-0.99322 -0.99331,-0.99332 -0.58982,-1.03742 -0.58984,-1.03741 -0.44633,-1.44873 -0.44642,-1.44865 v -2.51109 -2.51108 l 0.44642,-1.44873 0.44633,-1.44865 0.58383,-1.02691 0.58382,-1.02691 1.06169,-1.03658 1.06177,-1.03659 1.32982,-0.69881 1.32992,-0.6989 1.30524,-0.27657 1.30523,-0.27657 h 1.64185 1.64184 l 1.2778,0.27082 1.2778,0.2709 1.37595,0.69289 1.37586,0.6929 1.336,1.26028 1.336,1.26029 0.76718,1.49094 0.76727,1.49092 0.26432,1.06235 0.26439,1.06243 -0.0109,2.12469 -0.0109,2.12478 -0.44,1.35218 -0.44,1.35209 -0.66037,1.0897 -0.66038,1.08962 -1.26396,1.18242 -1.26404,1.18241 -1.36844,0.68913 -1.36844,0.68914 -1.2778,0.27091 -1.27781,0.27082 -1.83503,-0.0125 -1.83503,-0.0125 -1.13097,-0.27375 z m 38.15024,1.88573 1.09154,-0.38689 0.55031,-0.34937 0.55031,-0.34928 0.71432,-0.56114 0.71424,-0.56107 0.82638,-1.13473 0.82629,-1.13472 h 0.53589 0.5358 v 1.32517 1.32516 l 0.12282,0.89618 0.1229,0.89616 h 1.15332 1.15339 l -0.14357,-0.33802 -0.1435,-0.33802 -0.14208,-9.27164 -0.142,-9.27172 -0.31467,-1.12039 -0.3146,-1.12047 -0.31617,-0.618 -0.3161,-0.61802 -0.5559,-0.70748 -0.55581,-0.70748 -1.03225,-0.68514 -1.03224,-0.68514 -1.52428,-0.52988 -1.52428,-0.52988 -2.51108,-0.009 -2.51108,-0.009 -1.52895,0.44108 -1.52886,0.44117 -1.32216,0.66345 -1.32208,0.66354 -0.57758,0.42707 -0.57756,0.427 v 0.21729 0.21728 l 0.56573,0.54198 0.56574,0.54197 0.5809,-0.41365 0.58092,-0.41365 1.23644,-0.57866 1.23653,-0.57858 1.33517,-0.2829 1.33525,-0.28283 h 1.73839 1.73849 l 1.23878,0.292 1.23878,0.29199 0.95529,0.51997 0.95529,0.51987 0.65937,0.77035 0.65937,0.77035 0.28541,0.96104 0.28541,0.96096 v 1.99313 1.99311 h -2.38651 -2.38642 l -2.43613,0.19787 -2.43621,0.19777 -1.84211,0.46735 -1.84213,0.46727 -1.18041,0.62919 -1.1805,0.62919 -0.9377,0.84304 -0.93769,0.84306 -0.63361,1.28715 -0.63369,1.28714 0.009,1.64601 0.009,1.64584 0.54923,1.20193 0.54931,1.20193 1.00606,0.95154 1.00607,0.95144 1.00248,0.50804 1.00249,0.50804 1.10637,0.28083 1.10629,0.2809 2.1247,-0.0759 2.12478,-0.0759 1.09152,-0.38689 z m -5.87522,-1.78993 -0.72741,-0.17135 -0.81788,-0.40998 -0.81796,-0.40998 -0.54889,-0.50996 -0.5489,-0.50995 -0.39913,-0.7726 -0.39915,-0.77269 -0.0899,-1.37544 -0.0899,-1.37553 0.31685,-0.95362 0.31676,-0.95369 0.81762,-0.79921 0.81781,-0.79928 1.25554,-0.58408 1.25553,-0.58399 1.3521,-0.31177 1.35209,-0.31175 4.49095,-0.10289 4.49103,-0.1029 v 2.19549 2.19549 l -0.28349,1.33784 -0.28333,1.33784 -0.63077,1.05025 -0.63077,1.05017 -0.77261,0.67139 -0.77268,0.67137 -0.94044,0.48069 -0.94054,0.48061 -1.28081,0.27148 -1.28088,0.27149 -1.73839,-0.0158 -1.73849,-0.0158 -0.72732,-0.17143 z m 34.62684,2.15304 0.67613,-0.17976 0.82088,-0.21296 0.82096,-0.21295 v -0.52371 -0.52379 l -0.11072,-0.41266 -0.11074,-0.41272 -0.99731,0.26556 -0.99731,0.26548 h -1.45607 -1.45607 l -0.85056,-0.43466 -0.85048,-0.43458 -0.36871,-0.50662 -0.36871,-0.50662 -0.154,-0.65237 -0.15408,-0.65236 -0.02,-9.51311 -0.02,-9.51319 h 3.86317 3.86318 v -1.1589 -1.15899 h -3.86318 -3.86317 v -3.86318 -3.86326 h -1.25554 -1.25554 v 3.86326 3.86318 h -2.89746 -2.89739 v 1.15899 1.1589 h 2.89739 2.89746 v 9.16557 9.16567 l 0.21712,1.02358 0.2172,1.02357 0.44084,0.86925 0.44091,0.86924 0.54923,0.50611 0.54914,0.5062 0.52613,0.33361 0.52605,0.3336 0.82605,0.25798 0.82604,0.25798 1.15899,0.0117 1.1589,0.0116 0.67605,-0.17969 z m 38.49735,-0.12415 1.39021,-0.30608 1.74698,-0.8379 1.74698,-0.83789 1.38612,-1.2833 1.38603,-1.28331 0.85598,-1.38761 0.8559,-1.3877 0.49586,-1.39503 0.49595,-1.39496 0.19961,-1.60674 0.1997,-1.60674 -0.18886,-1.48942 -0.18886,-1.48942 -0.50036,-1.49685 -0.50036,-1.49676 -0.86224,-1.3877 -0.86232,-1.38769 -1.34092,-1.24153 -1.34093,-1.24145 -1.30924,-0.68381 -1.30923,-0.68371 -1.35209,-0.4204 -1.3521,-0.42041 -1.8422,-0.10739 -1.84221,-0.1074 -1.63467,0.33019 -1.63467,0.3301 -1.625,0.76026 -1.62491,0.76018 -1.02383,0.84289 -1.02383,0.84289 -0.87133,1.02074 -0.87124,1.02074 -0.76651,1.56281 -0.76652,1.56279 -0.3326,1.25554 -0.33261,1.25554 v 2.12478 2.12478 l 0.33411,1.25555 0.33402,1.25554 0.74918,1.5452 0.74925,1.54528 0.85881,1.03526 0.85883,1.03524 1.03433,0.84848 1.03441,0.84856 1.35318,0.66863 1.35319,0.66855 1.54503,0.37937 1.54512,0.37938 1.70029,0.0142 1.70029,0.0142 1.39028,-0.30601 z m -6.11503,-2.12469 -1.13096,-0.27382 -1.37953,-0.72416 -1.37953,-0.72425 -1.09728,-1.0967 -1.09729,-1.0967 -0.66888,-1.41438 -0.66896,-1.41438 -0.26114,-1.06234 -0.26123,-1.06244 v -2.31789 -2.31797 l 0.26123,-1.06235 0.26114,-1.06234 0.65462,-1.38462 0.65462,-1.38461 1.14139,-1.14148 1.14148,-1.14148 1.36861,-0.71915 1.36852,-0.71916 1.30523,-0.27657 1.30524,-0.27657 h 1.64184 1.64193 l 1.27905,0.27115 1.27914,0.27107 1.21476,0.61326 1.21485,0.61318 1.05977,0.99564 1.05985,0.99557 0.61868,0.96579 0.61868,0.96579 0.41374,1.11421 0.41373,1.11421 0.21253,1.80153 0.21246,1.80151 -0.21613,1.77741 -0.21612,1.77742 -0.46993,1.24854 -0.47001,1.24854 -0.56774,0.82529 -0.56782,0.82522 -0.93711,0.91193 -0.93712,0.91193 -1.30239,0.68514 -1.3024,0.68505 -1.30524,0.27665 -1.30523,0.27658 -1.83504,-0.0125 -1.83503,-0.0125 -1.13098,-0.27375 z M 80.477925,265.70683 v -11.87936 h 3.090577 3.090574 v -1.15898 -1.15899 h -3.090574 -3.090577 v -5.26355 -5.26363 l 0.256728,-1.09087 0.256729,-1.09086 0.518042,-0.88392 0.517958,-0.88383 0.841641,-0.49328 0.841558,-0.49319 1.229777,-0.10831 1.229693,-0.10831 1.085778,0.17694 1.085695,0.17692 0.202031,-0.88291 0.20203,-0.88292 -0.220374,-0.13616 -0.220291,-0.13615 -1.354013,-0.22839 -1.354013,-0.22837 -1.235362,0.22755 -1.235364,0.2277 -0.933693,0.4731 -0.933693,0.47319 -0.666458,0.58516 -0.666542,0.58517 -0.616514,0.96078 -0.616598,0.96088 -0.392638,1.20684 -0.392555,1.20693 -0.09321,5.45675 -0.09323,5.45674 H 75.04011 72.359183 v 1.15899 1.15898 h 2.70419 2.704273 v 11.87936 11.87927 h 1.352095 1.352096 z m 82.145785,3.91145 0.0915,-7.96782 0.31926,-1.23853 0.31918,-1.23853 0.57416,-1.2031 0.57424,-1.20317 0.88458,-0.98389 0.88458,-0.98388 1.38528,-0.68031 1.38529,-0.68029 1.1589,-0.21313 1.15898,-0.21312 1.83504,0.0896 1.83503,0.0896 0.89684,0.42599 0.89692,0.42599 0.71565,0.71282 0.71557,0.71273 0.35095,0.68439 0.35095,0.68439 0.3351,1.15065 0.33519,1.15065 0.0838,9.22336 0.0838,9.22335 h 1.25438 1.25445 l -0.0825,-9.03016 -0.0825,-9.03026 -0.31709,-1.3521 -0.31718,-1.35217 -0.61609,-1.21843 -0.61602,-1.21852 -1.10845,-1.02617 -1.10847,-1.02624 -0.8368,-0.40298 -0.83689,-0.40298 -1.15123,-0.298 -1.15131,-0.298 h -1.36752 -1.36752 l -1.15123,0.29584 -1.15124,0.29582 -1.01865,0.51063 -1.01858,0.5107 -1.15732,1.04734 -1.15732,1.04726 -0.49836,0.85048 -0.49837,0.85039 h -0.53488 -0.53489 l -0.12281,-0.89617 -0.12291,-0.89617 v -1.51835 -1.51836 h -1.28439 -1.28447 l 0.12548,1.76816 0.12549,1.76809 v 11.27017 11.27018 h 1.23612 1.23611 z m 118.35434,-5.07043 V 251.5095 h -1.25562 -1.25555 v 13.03835 13.03825 h 1.25555 1.25562 z m 47.9511,4.97388 0.0767,-8.06446 0.33151,-1.15899 0.33144,-1.1589 0.55549,-1.19368 0.55556,-1.19367 0.80395,-0.87216 0.80387,-0.87215 0.90276,-0.56774 0.90276,-0.56765 1.06234,-0.36045 1.06236,-0.36037 2.41452,-9e-5 h 2.41453 l 0.96579,0.44492 0.96579,0.445 0.55307,0.5208 0.55315,0.52087 0.42923,0.67605 0.42933,0.67604 0.36362,0.9658 0.36354,0.9658 0.0642,9.60974 0.0642,9.60966 h 1.36251 1.36244 l -0.0944,-8.93361 -0.0943,-8.9337 -0.30875,-1.33517 -0.30868,-1.33517 -0.57048,-1.21901 -0.57049,-1.21903 -0.91251,-0.97563 -0.9126,-0.97564 -1.36961,-0.67163 -1.36961,-0.67162 -1.04049,-0.19294 -1.04043,-0.19286 h -1.12313 -1.12305 l -1.02357,0.21345 -1.02358,0.21346 -1.21443,0.5724 -1.21436,0.57249 -1.24862,1.168 -1.24853,1.16798 -0.42174,0.75034 -0.42174,0.75034 h -0.52137 -0.52138 l -0.11648,-0.43466 -0.11649,-0.43458 v -1.97986 -1.97995 h -1.28539 -1.28531 l 0.12557,2.4628 0.12558,2.4628 v 10.57555 10.57545 h 1.24069 1.2407 l 0.0776,-8.06437 z m -48.18273,-27.44297 0.4445,-0.28457 0.27982,-0.54122 0.27991,-0.54122 v -0.41866 -0.41864 l -0.74992,-0.74985 -0.74992,-0.74992 h -0.57616 -0.57616 l -0.51279,0.40331 -0.51279,0.4034 -0.29583,0.57207 -0.29583,0.57207 0.12873,0.42499 0.12874,0.42499 0.4124,0.45918 0.4124,0.45926 0.56932,0.24439 0.5694,0.24438 0.29984,-0.10973 0.29984,-0.10964 z M 91.247911,190.5193 l -0.05003,-27.18732 -0.157089,-2.86227 -0.157171,-2.86219 0.640027,0.0617 0.640028,0.0617 0.386384,0.73474 0.3863,0.73466 1.219188,1.96953 1.219269,1.96961 17.864983,27.23551 17.86499,27.2356 9.16541,0.05 9.16541,0.05 v -41.82098 -41.82106 h -8.49904 -8.49903 l -0.0184,23.6138 -0.0183,23.61381 0.2222,4.9256 0.22221,4.92561 0.1069,0.72433 0.10689,0.72432 -0.64887,-0.009 -0.64895,-0.009 -2.22133,-3.63055 -2.22134,-3.63054 -16.70299,-25.62736 -16.70291,-25.62744 h -9.808274 -9.808194 v 41.81914 41.81915 h 8.500289 8.500373 z M 219.7463,210.46304 v -7.24349 H 203.81058 187.87493 V 193.07867 182.9377 h 13.9075 13.9075 v -7.2435 -7.24349 h -13.90925 -13.90934 l 0.05,-9.89942 0.05,-9.89948 14.92158,-0.0492 14.92165,-0.0492 v -7.24234 -7.24233 h -23.95182 -23.95191 v 41.81915 41.81914 h 24.9177 24.91762 z m 48.86945,-27.33214 v -34.57565 h 12.07247 12.07255 v -7.2435 -7.2435 h -33.22355 -33.22347 v 7.2435 7.2435 h 12.07247 12.07247 v 34.57565 34.57564 h 9.07853 9.07853 z m -248.113947,37.35979 -1.545287,-0.27166 -1.835034,-0.597 -1.835034,-0.59691 -1.681364,-0.882 -1.681364,-0.88208 -1.627083,-1.22119 -1.627083,-1.22119 -1.3783601,-1.47583 -1.3782765,-1.47583 -1.0385851,-1.57122 -1.0385017,-1.57122 -0.5784926,-1.1589 -0.5784092,-1.15899 -0.5801602,-1.7384 -0.5802435,-1.73847 -0.3112587,-1.82078 -0.31125873,-1.82078 v -2.52534 l 8.338e-4,-2.52533 0.29675053,-1.8297 0.2966671,-1.8297 0.5780757,-1.7253 0.5779923,-1.72523 0.8989231,-1.74047 0.8988397,-1.7404 1.0887801,-1.46516 1.0886967,-1.46524 1.8467904,-1.7384 1.8467899,-1.73848 1.789842,-1.10729 1.789925,-1.10738 1.950933,-0.76259 1.950933,-0.76259 2.028142,-0.41999 2.028226,-0.41999 h 3.090575 3.090491 l 1.97678,0.40965 1.976697,0.40964 1.403624,0.50395 1.40354,0.50404 1.158987,0.57658 1.158903,0.57649 1.641925,1.0841 1.641841,1.08411 1.743816,1.74382 1.743816,1.74382 1.084111,1.64184 1.08411,1.64192 0.576492,1.1589 0.576575,1.15899 0.504034,1.40354 0.50395,1.40363 0.412399,1.9767 0.4124,1.97678 v 3.09049 3.09057 l -0.422739,2.02823 -0.422738,2.02814 -0.767516,1.96361 -0.767599,1.96361 -1.05301,1.67727 -1.05301,1.67728 -0.499698,0.6086 -0.499781,0.60867 -1.288059,1.3315 -1.288059,1.3315 -1.540785,1.15132 -1.540701,1.15131 -1.705127,0.85639 -1.705128,0.85632 -1.685032,0.56457 -1.685033,0.56457 -1.829698,0.29666 -1.829698,0.29676 -2.704273,-0.0167 -2.704273,-0.0167 -1.545204,-0.27174 z"
     id="path4516"
     inkscape:connector-curvature="0" />
  <path
     style="fill:#000000;stroke-width:0.63999999"
     d=""
     id="path4514"
     inkscape:connector-curvature="0" />
</svg>
