<?xml version="1.0" encoding="UTF-8"?><svg xmlns="http://www.w3.org/2000/svg" width="24" height="24" fill="none" viewBox="0 0 24 24"><path fill="#0067B8" d="M23.727 12c0-6.427-5.209-11.636-11.636-11.636S.455 5.573.455 12c0 5.81 4.254 10.623 9.818 11.496v-8.132H7.318V12h2.955V9.437c0-2.916 1.736-4.528 4.395-4.528 1.273 0 2.605.228 2.605.228V8h-1.468c-1.446 0-1.896.898-1.896 1.818V12h3.227l-.516 3.364h-2.71v8.132c5.563-.873 9.817-5.687 9.817-11.496"></path><path fill="#fff" d="M16.62 15.364 17.136 12H13.91V9.818c0-.92.45-1.818 1.895-1.818h1.469V5.136s-1.332-.227-2.605-.227c-2.659 0-4.395 1.612-4.395 4.527V12H7.318v3.364h2.955v8.131a11.7 11.7 0 0 0 3.636 0v-8.131z"></path></svg>