<svg width="40" height="130" viewBox="0 0 40 130" fill="none" xmlns="http://www.w3.org/2000/svg">
<rect y="130" width="130" height="40" transform="rotate(-90 0 130)" fill="#004880"/>
<path d="M22.4648 106.242V113.402H30V115.652H12.9375L12.9375 105.082H14.7891L14.7891 113.402H20.625V106.242H22.4648ZM30.2344 97.7227C30.2344 99.4414 29.6719 100.84 28.5469 101.918C27.4141 102.996 25.9023 103.535 24.0117 103.535H23.6133C22.3555 103.535 21.2344 103.297 20.25 102.82C19.2578 102.336 18.4844 101.664 17.9297 100.805C17.3672 99.9375 17.0859 99 17.0859 97.9922C17.0859 96.3438 17.6289 95.0625 18.7148 94.1484C19.8008 93.2344 21.3555 92.7773 23.3789 92.7773H24.2812V101.367C25.5312 101.336 26.543 100.973 27.3164 100.277C28.082 99.5742 28.4648 98.6836 28.4648 97.6055C28.4648 96.8398 28.3086 96.1914 27.9961 95.6602C27.6836 95.1289 27.2695 94.6641 26.7539 94.2656L27.7852 92.9414C29.418 94.0039 30.2344 95.5977 30.2344 97.7227ZM18.8672 97.9922C18.8672 98.8672 19.1875 99.6016 19.8281 100.195C20.4609 100.789 21.3516 101.156 22.5 101.297V94.9453H22.3359C21.2344 95.0078 20.3828 95.3047 19.7812 95.8359C19.1719 96.3672 18.8672 97.0859 18.8672 97.9922ZM30.2344 84.9961C30.2344 86.7148 29.6719 88.1133 28.5469 89.1914C27.4141 90.2695 25.9023 90.8086 24.0117 90.8086H23.6133C22.3555 90.8086 21.2344 90.5703 20.25 90.0938C19.2578 89.6094 18.4844 88.9375 17.9297 88.0781C17.3672 87.2109 17.0859 86.2734 17.0859 85.2656C17.0859 83.6172 17.6289 82.3359 18.7148 81.4219C19.8008 80.5078 21.3555 80.0508 23.3789 80.0508H24.2813L24.2812 88.6406C25.5312 88.6094 26.543 88.2461 27.3164 87.5508C28.082 86.8477 28.4648 85.957 28.4648 84.8789C28.4648 84.1133 28.3086 83.4648 27.9961 82.9336C27.6836 82.4023 27.2695 81.9375 26.7539 81.5391L27.7852 80.2148C29.418 81.2773 30.2344 82.8711 30.2344 84.9961ZM18.8672 85.2656C18.8672 86.1406 19.1875 86.875 19.8281 87.4688C20.4609 88.0625 21.3516 88.4297 22.5 88.5703V82.2188H22.3359C21.2344 82.2812 20.3828 82.5781 19.7812 83.1094C19.1719 83.6406 18.8672 84.3594 18.8672 85.2656ZM23.5547 78.0586C21.6094 78.0586 20.0469 77.5977 18.8672 76.6758C17.6797 75.7539 17.0859 74.5469 17.0859 73.0547C17.0859 71.5703 17.5938 70.3945 18.6094 69.5273H12V67.3594H30V69.3516L28.6406 69.457C29.7031 70.3242 30.2344 71.5312 30.2344 73.0781C30.2344 74.5469 29.6328 75.7461 28.4297 76.6758C27.2266 77.5977 25.6563 78.0586 23.7188 78.0586H23.5547ZM23.8008 75.8906C25.2383 75.8906 26.3633 75.5938 27.1758 75C27.9883 74.4062 28.3945 73.5859 28.3945 72.5391C28.3945 71.1641 27.7773 70.1602 26.543 69.5273H20.7188C19.5234 70.1758 18.9258 71.1719 18.9258 72.5156C18.9258 73.5781 19.3359 74.4062 20.1563 75C20.9766 75.5938 22.1914 75.8906 23.8008 75.8906ZM23.8008 53.25C25.7383 53.25 27.2969 53.6953 28.4766 54.5859C29.6484 55.4766 30.2344 56.6719 30.2344 58.1719C30.2344 59.7734 29.668 61.0117 28.5352 61.8867L30 61.9922V63.9844H12V61.8164H18.7148C17.6289 60.9414 17.0859 59.7344 17.0859 58.1953C17.0859 56.6562 17.668 55.4492 18.832 54.5742C19.9961 53.6914 21.5898 53.25 23.6133 53.25H23.8008ZM23.5547 55.418C22.0781 55.418 20.9375 55.7031 20.1328 56.2734C19.3281 56.8438 18.9258 57.6641 18.9258 58.7344C18.9258 60.1641 19.5898 61.1914 20.918 61.8164H26.4023C27.7305 61.1523 28.3945 60.1172 28.3945 58.7109C28.3945 57.6719 27.9922 56.8633 27.1875 56.2852C26.3828 55.707 25.1719 55.418 23.5547 55.418ZM30 42.6797C29.75 42.8047 29.3047 42.9062 28.6641 42.9844C29.7109 43.9922 30.2344 45.1953 30.2344 46.5938C30.2344 47.8438 29.8828 48.8711 29.1797 49.6758C28.4688 50.4727 27.5703 50.8711 26.4844 50.8711C25.1641 50.8711 24.1406 50.3711 23.4141 49.3711C22.6797 48.3633 22.3125 46.9492 22.3125 45.1289V43.0195H21.3164C20.5586 43.0195 19.957 43.2461 19.5117 43.6992C19.0586 44.1523 18.832 44.8203 18.832 45.7031C18.832 46.4766 19.0273 47.125 19.418 47.6484C19.8086 48.1719 20.2813 48.4336 20.8359 48.4336V50.6133C20.2031 50.6133 19.5938 50.3906 19.0078 49.9453C18.4141 49.4922 17.9453 48.8828 17.6016 48.1172C17.2578 47.3438 17.0859 46.4961 17.0859 45.5742C17.0859 44.1133 17.4531 42.9688 18.1875 42.1406C18.9141 41.3125 19.918 40.8828 21.1992 40.8516H27.0352C28.1992 40.8516 29.125 40.7031 29.8125 40.4062H30V42.6797ZM28.3477 46.2773C28.3477 45.5977 28.1719 44.9531 27.8203 44.3438C27.4688 43.7344 27.0117 43.293 26.4492 43.0195H23.8477V44.7188C23.8477 47.375 24.625 48.7031 26.1797 48.7031C26.8594 48.7031 27.3906 48.4766 27.7734 48.0234C28.1563 47.5703 28.3477 46.9883 28.3477 46.2773ZM28.4648 32.3672C28.4648 31.5938 28.2305 30.918 27.7617 30.3398C27.293 29.7617 26.707 29.4414 26.0039 29.3789V27.3281C26.7305 27.3672 27.4219 27.6172 28.0781 28.0781C28.7344 28.5391 29.2578 29.1562 29.6484 29.9297C30.0391 30.6953 30.2344 31.5078 30.2344 32.3672C30.2344 34.0938 29.6602 35.4688 28.5117 36.4922C27.3555 37.5078 25.7773 38.0156 23.7773 38.0156H23.4141C22.1797 38.0156 21.082 37.7891 20.1211 37.3359C19.1602 36.8828 18.4141 36.2344 17.8828 35.3906C17.3516 34.5391 17.0859 33.5352 17.0859 32.3789C17.0859 30.957 17.5117 29.7773 18.3633 28.8398C19.2148 27.8945 20.3203 27.3906 21.6797 27.3281V29.3789C20.8594 29.4414 20.1875 29.7539 19.6641 30.3164C19.1328 30.8711 18.8672 31.5586 18.8672 32.3789C18.8672 33.4805 19.2656 34.3359 20.0625 34.9453C20.8516 35.5469 21.9961 35.8477 23.4961 35.8477H23.9063C25.3672 35.8477 26.4922 35.5469 27.2813 34.9453C28.0703 34.3438 28.4648 33.4844 28.4648 32.3672ZM24.1289 21.3516L25.5469 22.7109H30V24.8789H12L12 22.7109H22.8867L21.4922 21.5508L17.3203 17.6016V14.9648L22.6172 19.8984L30 14.3906V16.9336L24.1289 21.3516Z" fill="white"/>
<rect y="130" width="1" height="40" transform="rotate(-90 0 130)" fill="white"/>
<rect y="1" width="1" height="40" transform="rotate(-90 0 1)" fill="white"/>
<rect y="129" width="128" height="1" transform="rotate(-90 0 129)" fill="white"/>
</svg>
