<svg xmlns="http://www.w3.org/2000/svg" id="Layer_1" viewBox="0 0 47.999998 48.000002" width="48" height="48"><style id="style3">.Round_x0020_Corners_x0020_2_x0020_pt{fill:#FFF;stroke:#000;stroke-miterlimit:10}.Live_x0020_Reflect_x0020_X{fill:none}.Bevel_x0020_Soft{fill:url(#SVGID_1_)}.Dusk{fill:#FFF}.Foliage_GS{fill:#FD0}.Pompadour_GS{fill:#44ade2}.Pompadour_GS,.st0{fill-rule:evenodd;clip-rule:evenodd}.st0{fill:#191717}</style><linearGradient id="SVGID_1_" gradientUnits="userSpaceOnUse" x1="-216.625" y1="-385.75" x2="-215.918" y2="-385.043"><stop offset="0" id="stop6" stop-color="#dedfe3"/><stop offset=".174" id="stop8" stop-color="#d8d9dd"/><stop offset=".352" id="stop10" stop-color="#c9cacd"/><stop offset=".532" id="stop12" stop-color="#b4b5b8"/><stop offset=".714" id="stop14" stop-color="#989a9c"/><stop offset=".895" id="stop16" stop-color="#797c7e"/><stop offset="1" id="stop18" stop-color="#656b6c"/></linearGradient><path class="st0" d="M23.928 1.15C11 1.15.514 11.638.514 24.566c0 10.343 6.75 19.105 15.945 22.265 1.148.144 1.58-.574 1.58-1.15v-4.02c-6.465 1.436-7.902-3.16-7.902-3.16-1.005-2.73-2.586-3.45-2.586-3.45-2.154-1.435.144-1.435.144-1.435 2.298.144 3.59 2.442 3.59 2.442 2.156 3.59 5.46 2.586 6.753 2.01.142-1.58.86-2.585 1.435-3.16-5.17-.574-10.63-2.585-10.63-11.635 0-2.585.862-4.596 2.442-6.32-.287-.575-1.005-3.017.288-6.177 0 0 2.01-.574 6.464 2.442 1.866-.574 3.877-.718 5.888-.718 2.01 0 4.022.286 5.89.717 4.453-3.016 6.464-2.442 6.464-2.442 1.293 3.16.43 5.602.287 6.177a9.29 9.29 0 0 1 2.44 6.32c0 9.05-5.458 10.918-10.63 11.492.863.718 1.58 2.155 1.58 4.31v6.464c0 .574.432 1.292 1.58 1.15 9.338-3.16 15.946-11.924 15.946-22.266-.143-12.785-10.63-23.27-23.558-23.27z" id="path20" clip-rule="evenodd" fill="#191717" fill-rule="evenodd"/></svg>