<svg xmlns="http://www.w3.org/2000/svg" viewBox="0 0 94 28"><defs><style>.cls-1{font-size:24px;font-family:'SegoeUI-Light','Segoe UI',"Helvetica Neue",Helvetica,Arial,sans-serif;}.cls-1,.cls-2{fill:#fff;}@media screen and (-ms-high-contrast:active){.cls-1,.cls-2{fill:windowText;}}</style></defs><title>Logo</title><g id="Layer_2" data-name="Layer 2"><g id="Top_Blue" data-name="Top Blue"><text class="cls-1" transform="translate(32.33 21.33)">nuget</text><g id="mark"><path id="mark-2" data-name="mark" class="cls-2" d="M17.87,4.34H11.19A6.16,6.16,0,0,0,5,10.51v6.68a6.16,6.16,0,0,0,6.16,6.16h6.68A6.16,6.16,0,0,0,24,17.18V10.51A6.16,6.16,0,0,0,17.87,4.34Zm-8.16,7.8a2.5,2.5,0,1,1,2.5-2.5A2.5,2.5,0,0,1,9.71,12.15Zm8,9.17a4,4,0,1,1,4-4A4,4,0,0,1,17.69,21.32Z"/><circle class="cls-2" cx="2" cy="2" r="2"/></g></g></g></svg>