<svg xmlns="http://www.w3.org/2000/svg" viewBox="0 0 94 28"><defs><style>.cls-1{font-size:24px;font-family:&apos;SegoeUI-Light&apos;,&apos;Segoe UI&apos;,&quot;Helvetica Neue&quot;,Helvetica,Arial,sans-serif;}.cls-1,.cls-2{fill:#fff;}@media screen and (-ms-high-contrast:active){.cls-1,.cls-2{fill:windowText;}}</style></defs><g><text class="cls-1" transform="translate(32.33 21.33)">nuget</text><g><path d="M17.87 4.34H11.2A6.16 6.16 0 0 0 5 10.5v6.7a6.16 6.16 0 0 0 6.16 6.15h6.68A6.16 6.16 0 0 0 24 17.18V10.5a6.16 6.16 0 0 0-6.13-6.16zm-8.16 7.8a2.5 2.5 0 1 1 2.5-2.5 2.5 2.5 0 0 1-2.5 2.5zm8 9.17a4 4 0 1 1 4-4 4 4 0 0 1-4 4.02z" class="cls-2"/><circle cx="2" cy="2" r="2" class="cls-2"/></g></g></svg>