<?xml version="1.0" standalone="no"?>
<!DOCTYPE svg PUBLIC "-//W3C//DTD SVG 20010904//EN"
 "http://www.w3.org/TR/2001/REC-SVG-20010904/DTD/svg10.dtd">
<svg version="1.0" xmlns="http://www.w3.org/2000/svg"
 width="501.000000pt" height="500.000000pt" viewBox="0 0 501.000000 500.000000"
 preserveAspectRatio="xMidYMid meet">

<g transform="translate(0.000000,500.000000) scale(0.100000,-0.100000)"
fill="#000000" stroke="none">
<path d="M302 4814 c-86 -43 -132 -120 -132 -224 0 -71 15 -112 60 -164 66
-74 163 -101 262 -72 132 38 207 184 163 317 -48 144 -215 212 -353 143z"/>
<path d="M1315 4325 c-234 -51 -424 -220 -500 -442 -43 -128 -47 -275 -43
-1775 4 -1363 4 -1363 26 -1441 67 -243 244 -421 483 -487 75 -20 86 -20 1555
-18 l1479 3 81 31 c201 78 343 221 410 416 42 122 45 253 42 1759 l-4 1394
-23 75 c-37 124 -86 206 -176 296 -89 89 -151 129 -270 171 l-80 28 -1460 2
c-1184 1 -1471 -1 -1520 -12z m2920 -443 c68 -33 127 -92 159 -161 l21 -46 0
-1430 0 -1430 -27 -52 c-35 -66 -85 -116 -151 -151 l-52 -27 -1370 0 -1370 0
-52 24 c-61 27 -135 102 -163 164 -19 41 -20 83 -20 1475 0 1425 0 1432 21
1476 32 68 84 122 151 155 l61 31 1366 0 1366 0 60 -28z"/>
<path d="M1756 3544 c-62 -20 -137 -93 -154 -150 -52 -177 61 -336 238 -336
203 0 318 226 200 396 -57 84 -181 123 -284 90z"/>
<path d="M3407 3124 c-4 -4 -7 -479 -7 -1056 l0 -1048 235 0 235 0 -2 1053 -3
1052 -226 3 c-124 1 -228 -1 -232 -4z"/>
<path d="M2610 1755 l0 -735 230 0 230 0 0 735 0 735 -230 0 -230 0 0 -735z"/>
<path d="M1840 1435 l0 -415 230 0 230 0 0 415 0 415 -230 0 -230 0 0 -415z"/>
</g>
</svg>
