<svg width="184" height="54" viewBox="0 0 184 54" fill="none" xmlns="http://www.w3.org/2000/svg">
<path d="M44.2224 12.1688C41.8589 9.80529 38.7337 8.49658 35.3935 8.47705H22.287C20.6462 8.47705 19.0445 8.78958 17.5209 9.41463C15.9974 10.0397 14.6105 10.9577 13.4385 12.1297C12.2666 13.3017 11.3485 14.669 10.7235 16.2121C10.0789 17.7356 9.76636 19.3569 9.76636 21.0172V34.0652C9.76636 37.4053 11.0751 40.5501 13.4385 42.9136C15.802 45.2771 18.9468 46.5858 22.287 46.5858H35.3349C36.9952 46.5858 38.5969 46.2537 40.14 45.6286C41.6636 45.0036 43.0309 44.0855 44.2029 42.9136C45.3553 41.7416 46.2734 40.3743 46.8984 38.8507C47.543 37.3076 47.8555 35.7059 47.8555 34.0456V21.0172C47.8555 17.6771 46.5664 14.5323 44.2224 12.1688ZM24.2793 19.8061C24.1816 20.9195 23.6933 21.9743 22.912 22.7751C22.1893 23.4979 21.2908 23.9666 20.2946 24.162C20.0016 24.2206 19.7086 24.2401 19.4156 24.2401C18.7124 24.2401 18.0092 24.0838 17.3647 23.7909C16.4466 23.3611 15.7044 22.6775 15.1965 21.7985C14.6887 20.9195 14.4738 19.9233 14.5519 18.9076C14.6496 17.8919 15.0402 16.9543 15.7044 16.1925C16.3489 15.4112 17.2279 14.8838 18.2046 14.6299C19.1812 14.376 20.1969 14.4346 21.154 14.7862C22.0916 15.1573 22.8925 15.7824 23.4589 16.6223C24.1035 17.5599 24.377 18.6732 24.2793 19.8061ZM40.687 39.7102C39.2025 41.1751 37.2492 41.9955 35.1591 41.9955C33.616 41.9955 32.112 41.5463 30.8228 40.6673C29.5337 39.8078 28.5375 38.5968 27.932 37.1709C27.346 35.745 27.1897 34.1824 27.5022 32.6588C27.7952 31.1352 28.5375 29.7484 29.6313 28.6545C30.7252 27.5607 32.112 26.8185 33.6356 26.5255C35.1591 26.2129 36.7218 26.3692 38.1477 26.9552C39.5736 27.5607 40.8042 28.5569 41.6636 29.8461C42.523 31.1352 42.9723 32.6197 42.9723 34.1824C42.9723 36.2724 42.1519 38.2257 40.687 39.7102Z" fill="#242424"/>
<path d="M167.495 29.3383C167.651 26.2717 166.713 23.2245 164.819 20.8025C163.959 19.7868 162.807 18.9664 161.537 18.4195C160.267 17.8725 158.861 17.6186 157.474 17.6772C155.912 17.6577 154.388 17.9507 153.001 18.5757C151.634 19.1812 150.364 20.1188 149.388 21.2517C147.141 23.8105 145.969 27.0921 146.086 30.4908C145.891 33.9481 146.946 37.2492 149.075 39.8666C150.052 40.9409 151.341 41.8394 152.728 42.4254C154.134 43.0114 155.638 43.2653 157.181 43.2067C160.287 43.3434 163.197 42.5231 165.697 40.8432L165.873 40.726V35.9795L165.112 36.6046C163.139 38.2258 160.658 39.1243 158.119 39.1439C157.22 39.222 156.224 39.0853 155.306 38.7532C154.388 38.4016 153.528 37.8742 152.845 37.171C151.771 35.9795 151.145 34.5536 150.97 33.0105L150.852 31.9362H167.475L167.495 29.3383ZM150.989 27.6976L151.419 26.4084C151.771 25.3536 152.357 24.3575 153.138 23.5566C153.665 22.9902 154.31 22.5409 155.033 22.2284C155.755 21.9354 156.517 21.7596 157.318 21.7986C157.962 21.74 158.724 21.8572 159.408 22.1502C160.092 22.4237 160.717 22.8534 161.205 23.4199C161.967 24.3575 162.416 25.4318 162.572 26.5842L162.689 27.6781L150.989 27.6976Z" fill="#242424"/>
<path d="M113.33 18.2241V42.6403H108.603V40.394L107.04 41.5464C105.536 42.6598 103.661 43.2262 101.766 43.1872C95.926 43.1872 92.9766 39.6713 92.9766 32.7175V18.2241H97.684V32.2097C97.684 33.8895 97.684 39.0462 102.841 39.0462C103.661 39.0657 104.442 38.9095 105.165 38.5969C105.888 38.2649 106.532 37.7766 107.06 37.1515C108.193 35.7647 108.779 33.9872 108.681 32.1902V18.2241H113.33Z" fill="#242424"/>
<path d="M136.926 18.1266L136.828 18.7517L136.183 20.1385L135.226 19.4158C133.8 18.322 132.101 17.7164 130.304 17.6578C128.741 17.5992 127.198 17.9118 125.772 18.5368C124.366 19.1814 123.116 20.1581 122.139 21.3691C120.069 24.1623 118.994 27.6587 119.17 31.1551C119.014 34.3975 119.991 37.5033 121.944 39.984C122.823 41.0192 123.956 41.8982 125.225 42.4646C126.495 43.0311 127.921 43.3241 129.269 43.2655C131.476 43.1288 133.625 42.2498 135.304 40.7653L137.023 39.2612L136.926 41.5466C136.711 46.9377 134.054 49.5746 128.819 49.5746C126.241 49.516 123.721 48.7933 121.534 47.4846L120.811 47.0744V51.9772L121.084 52.1139C123.467 53.2859 126.202 53.8719 128.839 53.8328C137.277 53.8328 141.555 49.3012 141.555 40.3746V18.1266H136.926ZM136.926 31.6043C137.023 33.5967 136.359 35.5305 135.09 37.054C134.523 37.7377 133.8 38.2846 133 38.6362C132.199 38.9878 131.3 39.1636 130.421 39.1636H130.128C129.386 39.1636 128.585 38.9878 127.862 38.6557C127.042 38.2846 126.3 37.6986 125.753 36.9759C124.483 35.2179 123.878 33.0888 123.995 30.9598C123.839 28.6744 124.483 26.2523 125.811 24.26C126.456 23.4396 127.237 22.8145 128.116 22.4043C128.995 22.0137 129.972 21.8184 130.949 21.877C131.671 21.8379 132.511 22.0137 133.253 22.3262C133.996 22.6387 134.679 23.1271 135.226 23.7326C135.793 24.3186 136.262 25.0413 136.555 25.8421C136.867 26.643 137.004 27.4829 136.965 28.3423L136.926 31.6043Z" fill="#242424"/>
<path d="M87.4099 27.8342V42.6402H82.5853V28.7913C82.5853 25.8028 82.0775 21.8181 77.7216 21.8181C76.9208 21.8181 76.0809 21.9548 75.3386 22.3064C74.5768 22.6385 73.9127 23.1659 73.4049 23.7909C72.2133 25.1973 71.6078 26.9943 71.686 28.7913V42.6402H66.959V18.224H71.686V20.7828L73.2681 19.5523C74.8698 18.3022 76.9012 17.599 78.9522 17.6771H79.0303C80.2023 17.6185 81.3938 17.8138 82.4681 18.2826C83.5424 18.7514 84.5191 19.4546 85.2418 20.2945C86.8044 22.4627 87.5857 25.0996 87.4099 27.8342Z" fill="#242424"/>
<path d="M184 37.6985V42.2106L183.785 42.3278C182.613 42.9138 181.344 43.2068 179.996 43.1482C174.507 43.1482 173.355 39.144 173.355 35.7843V22.4043H169.311V18.2242H173.355V12.6183L178.121 11.0947V18.2242H183.98V22.4043L178.101 22.3652V34.9639C178.003 36.0187 178.218 37.054 178.804 38.1283C179.234 38.6752 179.976 38.9487 181.031 38.9487C181.812 38.9487 182.594 38.7338 183.199 38.265L184 37.6985Z" fill="#242424"/>
<path d="M4.3949 8.78981C6.82214 8.78981 8.78981 6.82214 8.78981 4.3949C8.78981 1.96767 6.82214 0 4.3949 0C1.96767 0 0 1.96767 0 4.3949C0 6.82214 1.96767 8.78981 4.3949 8.78981Z" fill="#242424"/>
</svg>
