<?xml version="1.0" encoding="UTF-8"?>
<svg width="225px" height="225px" viewBox="0 0 225 225" version="1.1" xmlns="http://www.w3.org/2000/svg" xmlns:xlink="http://www.w3.org/1999/xlink">
    <defs>
        <circle id="path-1" cx="112.5" cy="112.5" r="112.5"></circle>
    </defs>
    <g id="Main" stroke="none" stroke-width="1" fill="none" fill-rule="evenodd">
        <g transform="translate(-838.000000, -1147.000000)" id="OrangeCircle">
            <g transform="translate(838.000000, 1147.000000)">
                <mask id="mask-2" fill="white">
                    <use xlink:href="#path-1"></use>
                </mask>
                <use id="Mask" fill="#FF8C00" xlink:href="#path-1"></use>
                <g id="Page-1">
                    <g transform="translate(48.000000, 29.000000)">
                        <path d="M128.764455,167 L3.24284845,167 C1.51552039,167 0,165.599775 0,163.993236 C0,162.295378 1.51552039,161 3.24284845,161 L128.764455,161 C130.597687,161 132,162.295378 132,163.993236 C132,165.599775 130.597687,167 128.764455,167 Z" id="Fill-2" fill="#F08400"></path>
                        <path d="M109.744833,165 C109.524947,165 109.196983,165 108.865291,164.770193 C107.873943,164.444015 107.095027,163.676757 106.54345,162.472124 C105.116059,159.410502 93.551577,119.186873 93,117.544865 C93,117.437375 93,117.218687 93.1118061,117.10749 C93.1118061,117 93.3316915,117 93.4397708,117 L103.025284,117 C103.245169,117 103.353248,117.10749 103.465055,117.326178 L110.956066,164.332819 C111.067872,164.551506 110.956066,164.662703 110.736181,164.770193 C110.736181,164.770193 110.29641,165 109.744833,165 Z M93.9913478,117.874749 C95.4224663,122.808185 106.103679,159.299305 107.434173,162.145946 C107.873943,163.131892 108.42552,163.787954 109.085177,164.006641 C109.524947,164.114131 109.856639,164.114131 110.076524,164.114131 L102.581786,117.874749 L93.9913478,117.874749 Z" id="Fill-3" fill="#A80000"></path>
                        <path d="M19.2503366,165 C18.7001788,165 18.2615394,164.770193 18.2615394,164.770193 C18.0422197,164.662703 17.9344185,164.551506 18.0422197,164.332819 L25.6254767,117.326178 C25.6254767,117.10749 25.8447964,117 25.9525976,117 L35.513449,117 C35.7327687,117 35.8405699,117 35.9520884,117.10749 C35.9520884,117.218687 36.0598896,117.437375 35.9520884,117.544865 C35.513449,119.186873 23.8672019,159.410502 22.4434826,162.472124 C21.8933247,163.676757 21.1238472,164.444015 20.2391339,164.770193 C19.9082957,165 19.5774575,165 19.2503366,165 Z M18.9194985,164.114131 C19.4696563,164.225328 20.6777732,164.114131 21.674005,162.145946 C22.9899231,159.299305 33.5358545,122.808185 34.9632911,117.874749 L26.3949542,117.874749 L18.9194985,164.114131 Z" id="Fill-4" fill="#A80000"></path>
                        <path d="M64.5545555,120.099708 C40.6956282,120.099708 20.9174504,118.756268 16.0765614,117 L15,117 L15,119.06414 C15,121.243732 37.1422483,123 64.5545555,123 C91.8577517,123 114,121.243732 114,119.06414 L114,117 L112.923439,117 C108.198935,118.756268 88.3152829,120.099708 64.5545555,120.099708 Z" id="Fill-5" fill="#A80000"></path>
                        <path d="M114,117.001779 C114,119.207203 91.8577517,121 64.5545555,121 C37.1422483,121 15,119.207203 15,117.001779 C15,114.796354 37.1422483,113 64.5545555,113 C91.8577517,113 114,114.796354 114,117.001779 Z" id="Fill-6" fill="#D83B01"></path>
                        <polygon id="Fill-7" fill="#D1D1D1" points="60 117 61 117 61 116 60 116"></polygon>
                        <path d="M59.9557946,117.222222 C60.0622994,117.109228 59.9557946,117 59.85284,117 L40.9659969,117 C40.7565375,117 40.5470782,117.109228 40.4405734,117.222222 L39.0702123,118.777778 C38.9637075,118.890772 38.9637075,119 39.1731669,119 L58.06001,119 C58.1665147,119 58.3759741,118.890772 58.4789287,118.777778 L59.9557946,117.222222 Z" id="Fill-8" fill="#D1D1D1"></path>
                        <path d="M59.9557946,116.222222 C60.0622994,116 59.9557946,116 59.85284,116 L40.9659969,116 C40.7565375,116 40.5470782,116 40.4405734,116.222222 L39.0702123,117.777778 C38.9637075,117.887006 38.9637075,118 39.1731669,118 L58.06001,118 C58.1665147,118 58.3759741,117.887006 58.4789287,117.777778 L59.9557946,116.222222 Z" id="Fill-9" fill="#FFFFFF"></path>
                        <polygon id="Fill-10" fill="#FFFFFF" points="76 116.5 95 116.5 95 116 76 116"></polygon>
                        <path d="M91.106631,114 C91.106631,114 91.8818955,114 92.6571601,114.213075 L93.8706176,114.571429 L94.7582394,114.784504 C94.7582394,114.784504 95.5297587,115 94.3163011,115 L91.3276001,115 L91.106631,115 L76.492707,115 C76.492707,115 75.3841162,115 76.492707,114.714286 L77.8185218,114.355932 C77.8185218,114.355932 79.043215,114 80.2604178,114 L91.106631,114 Z" id="Fill-11" fill="#D1D1D1"></path>
                        <polygon id="Fill-12" fill="#FFFFFF" points="82 115 88 115 88 109 82 109"></polygon>
                        <path d="M109.59622,77 C109.59622,77 112,77 112,79.5677559 L112,107.54159 C112,107.54159 112,110 109.59622,110 L60.5221203,110 C60.5221203,110 58,110 58,107.54159 L58,79.5677559 C58,79.5677559 58,77 60.5221203,77 L109.59622,77 Z" id="Fill-13" fill="#001F50"></path>
                        <path d="M109.907893,78 C109.907893,78 111,78 111,78.9958688 L111,105.996643 C111,105.996643 111,107 109.907893,107 L61.9810455,107 C61.9810455,107 61,107 61,105.996643 L61,78.9958688 C61,78.9958688 61,78 61.9810455,78 L103.777284,78 L109.907893,78 Z" id="Fill-14" fill="#0078D7"></path>
                        <path d="M81,87.2496474 C81,87.6671368 80.5284353,88 79.9289886,88 L68.9471257,88 C68.475561,88 68,87.6671368 68,87.2496474 L68,86.7503526 C68,86.3328632 68.475561,86 68.9471257,86 L79.9289886,86 C80.5284353,86 81,86.3328632 81,86.7503526 L81,87.2496474 Z" id="Fill-15" fill="#FF8C00"></path>
                        <path d="M89,91.2766532 C89,91.6734143 88.5700156,92 88.0307132,92 L68.8636127,92 C68.4336283,92 68,91.6734143 68,91.2766532 L68,90.7179487 C68,90.3184885 68.4336283,90 68.8636127,90 L88.0307132,90 C88.5700156,90 89,90.3184885 89,90.7179487 L89,91.2766532 Z" id="Fill-16" fill="#FF8C00"></path>
                        <path d="M99,94.2514124 C99,94.6666667 98.5663717,95 98.1363873,95 L78.9692868,95 C78.4299844,95 78,94.6666667 78,94.2514124 L78,93.7514124 C78,93.3333333 78.4299844,93 78.9692868,93 L98.1363873,93 C98.5663717,93 99,93.3333333 99,93.7514124 L99,94.2514124 Z" id="Fill-17" fill="#FF8C00"></path>
                        <path d="M104,98.2461322 C104,98.6596343 103.563709,99 103.020193,99 L78.983504,99 C78.4362912,99 78,98.6596343 78,98.2461322 L78,97.6638537 C78,97.2475387 78.4362912,97 78.983504,97 L103.020193,97 C103.563709,97 104,97.2475387 104,97.6638537 L104,98.2461322 Z" id="Fill-18" fill="#FF8C00"></path>
                        <path d="M61.3220795,78 C61,78.3357617 61,78.7809288 61,78.7809288 L61,105.988942 C61,107 61.9698984,107 61.9698984,107 L109.352181,107 C109.674261,107 109.8902,106.890595 110,106.777416 L97.4462205,99.4170678 L80.4711682,99.4170678 C79.9294891,99.4170678 79.4976098,98.9605828 79.4976098,98.4060101 L79.4976098,97.6250813 C79.4976098,97.066736 79.9294891,96.734747 80.4711682,96.734747 L92.9078279,96.734747 L91.1766507,95.6180565 L80.4711682,95.6180565 C79.9294891,95.6180565 79.4976098,95.1728893 79.4976098,94.6183166 L79.4976098,93.9505659 C79.4976098,93.3922206 79.9294891,92.9470535 80.4711682,92.9470535 L86.6309382,92.9470535 L84.7936212,91.943541 L68.7811473,91.943541 C68.349268,91.943541 67.9137287,91.4870561 67.9137287,90.9324834 L67.9137287,90.1515546 C67.9137287,89.5932093 68.349268,89.1480421 68.7811473,89.1480421 L80.3613684,89.1480421 L78.5167314,88.1483023 L68.7811473,88.1483023 C68.349268,88.1483023 67.9137287,87.7031352 67.9137287,87.1447899 L67.9137287,86.4770392 C67.9137287,85.9186939 68.349268,85.4735267 68.7811473,85.4735267 L73.9746788,85.4735267 L61.3220795,78 Z" id="Fill-19" fill="#006FC8"></path>
                        <path d="M74.8595098,86 L68.9817052,86 C68.4929237,86 68,86.3328632 68,86.7503526 L68,87.2496474 C68,87.6671368 68.4929237,88 68.9817052,88 L80,88 L74.8595098,86 Z" id="Fill-20" fill="#DB7A00"></path>
                        <path d="M81.273634,90 L68.9249783,90 C68.4644406,90 68,90.3184885 68,90.7179487 L68,91.2766532 C68,91.6734143 68.4644406,92 68.9249783,92 L86,92 L81.273634,90 Z" id="Fill-21" fill="#DB7A00"></path>
                        <path d="M85.3293638,93 L79.0003134,93 C78.443748,93 78,93.3333333 78,93.7514124 L78,94.2514124 C78,94.6666667 78.443748,95 79.0003134,95 L90,95 L85.3293638,93 Z" id="Fill-22" fill="#DB7A00"></path>
                        <path d="M91.4486134,97 L78.9763458,97 C78.4331158,97 78,97.2475387 78,97.6638537 L78,98.2461322 C78,98.6596343 78.4331158,99 78.9763458,99 L96,99 L91.4486134,97 Z" id="Fill-23" fill="#DB7A00"></path>
                        <path d="M93.3062304,13.6563569 C93.4157848,13.1339826 93.5216873,12.6080548 93.5216873,11.9719663 C93.5216873,7.35232956 89.6398122,3.67083443 84.8851543,3.67083443 C82.9460426,3.67083443 81.218736,4.30336931 79.8200924,5.24506449 C77.8700253,2.20321137 74.4190639,0 70.4276345,0 C64.5956924,0 59.8519899,4.61608318 59.636533,10.2911292 C59.636533,10.2911292 59.636533,10.2911292 59.5306305,10.2911292 C54.7759726,10.2911292 51,14.0792314 51,18.6953146 C51,23.3185049 54.7759726,27 59.5306305,27 L93.0907736,27 C96.9726487,27 100,24.0540932 100,20.3832588 C100,16.7017636 96.9726487,13.7629639 93.3062304,13.6563569 Z" id="Fill-24" fill="#FFFFFF"></path>
                        <path d="M97,26.0305661 L60.24784,7 C59.92032,7.96219931 59.8136,8.92439863 59.7032,9.99149937 C59.7032,9.99149937 59.7032,9.99149937 59.59648,9.99149937 C54.80512,9.99149937 51,13.8475312 51,18.5463918 C51,23.2524869 54.80512,27 59.59648,27 L93.41568,27 C94.7184,27 95.9144,26.6816784 97,26.0305661 Z" id="Fill-25" fill="#E5E5E5"></path>
                        <path d="M53.4619319,38.9982753 L53.4619319,38.3877199 C53.4619319,36.6560883 52.0265591,35.3314936 50.1426323,35.3314936 C49.4810151,35.3314936 48.7072595,35.5350121 48.1540429,35.942049 C47.4924257,34.8244222 46.0570529,34 44.5132796,34 C42.307889,34 40.4314381,35.638496 40.3118237,37.7771645 L40.3118237,37.7771645 C38.4353728,37.7771645 37,39.2017937 37,40.8333908 C37,42.5719214 38.4353728,44 40.3118237,44 L53.3535314,44 C54.8973047,44 56,42.8789238 56,41.4508451 C56,40.1193515 54.8973047,38.9982753 53.4619319,38.9982753 Z" id="Fill-26" fill="#FFFFFF"></path>
                        <path d="M115.801668,6.00495254 L115.801668,5.5163021 C115.801668,4.14279818 114.596849,3.06974825 113.065802,3.06974825 C112.409639,3.06974825 111.860982,3.26454808 111.316033,3.55839868 C110.767377,2.5843995 109.562558,2 108.357739,2 C106.378128,2 104.847081,3.36359884 104.847081,5.02765167 L104.735867,5.02765167 C103.204819,5.02765167 102,6.19975237 102,7.56335122 C102,8.92695006 103.204819,10 104.735867,10 L115.694161,10 C116.895273,10 118,9.12505159 118,8.05200165 C118,6.97895171 117.006487,6.10070161 115.801668,6.00495254 Z" id="Fill-27" fill="#FFFFFF"></path>
                        <path d="M33.15,85.15 L33,85 C33,85 33.15,85 33.15,85.15 Z" id="Fill-28" fill="#F7CAA7"></path>
                        <path d="M41.5412895,82.7965743 C41.210818,82.6861916 37.7633995,81.8982872 37.3202673,81.4491436 C37.0987012,81.2245718 36.877135,81.114189 36.7644743,81 L36.7644743,81 C35.8782099,82.4616198 34.6577186,83.0249524 33.549888,83.359907 C32.3293967,83.5844787 31.2215661,83.359907 31.1089054,83.359907 L31,83.359907 L32.5509628,84.8215267 L32.6636235,84.9357158 C32.994095,85.2706703 33.549888,85.8416156 34.1056809,86.4049482 C34.6577186,86.8540918 35.1008508,87.3032354 35.2135115,87.4174244 C35.6566437,88.0911398 34.4361524,88.2015225 34.4361524,88.2015225 C34.4361524,88.2015225 33.1067558,88.0911398 32.2204913,88.4260943 C31.6646983,88.6506661 31.3304715,88.9894269 31.4431322,89.4385705 C31.5520376,90.0019032 32.2204913,90.5614295 32.994095,91.0105731 C33.4372272,91.3493339 33.8841148,91.5739057 34.2145863,91.6880947 C34.6577186,91.9126665 34.8792847,92.0230493 34.8792847,92.0230493 L34.8792847,92.0230493 L34.8792847,92.0230493 C34.8792847,92.0230493 36.5429082,93.8310425 36.2124367,95.4068513 L35.3224169,95.9663777 L36.4340028,99 C36.4340028,99 43.8733667,97.0892366 43.6480453,96.640093 C43.5391399,95.7418059 42.3186486,93.0355255 42.3186486,93.0355255 C42.9833469,92.4721929 43.5391399,92.0230493 43.8733667,91.6880947 C45.5332349,90.4510467 44.8685366,89.6631423 44.8685366,89.6631423 L41.4323841,84.8215267 C42.9833469,82.9107634 41.8755164,82.7965743 41.5412895,82.7965743 Z" id="Fill-29" fill="#9D6952"></path>
                        <path d="M31,84 L31.9987908,84.96 L32.0713422,85.035 C32.2841596,85.255 32.6420798,85.63 33,86 C32.8573156,85.5575 32.6420798,84.8125 32.6420798,84 C31.8561064,84.1475 31.1426844,84 31.070133,84 L31,84 Z" id="Fill-30" fill="#805443"></path>
                        <path d="M31.5721941,88 C31.1742368,88.2753792 30.9349247,88.6907818 31.0155917,89.2415403 C31.0935698,89.9323221 31.5721941,90.6184364 32.1261075,91.1691949 C32.4433977,91.5845974 32.7633768,91.8599767 33,92 C32.5240647,91.3092182 31.3328819,89.3815636 31.5721941,88 Z" id="Fill-31" fill="#805443"></path>
                        <path d="M39,93.9737477 C39.7140381,94.1444971 41.9740035,93.4586053 43,92.6048582 C43,92.2633593 42.7954939,92.0926099 42.6915078,92 C41.6689775,92.6916799 40.4315425,93.4586053 39,93.9737477 Z" id="Fill-32" fill="#805443"></path>
                        <path d="M41.6257928,86 L41,86.7781955 C41.0634249,86.887218 41.5010571,87 42,87 L41.6257928,86 Z" id="Fill-33" fill="#FFFFFF"></path>
                        <path d="M37.1049769,82.2431868 C37,82.2431868 37,82.3471648 37,82.3471648 C37,82.5516549 37,82.756145 37.2099538,82.856657 C37.3114314,82.960635 37.3114314,82.960635 37.4164083,82.960635 C37.6228628,83.0611471 37.8293173,82.960635 37.930795,82.756145 C38.0357718,82.5516549 38.0357718,82.2431868 37.8293173,82.1426747 C37.6228628,81.9381847 37.2099538,81.9381847 37.1049769,82.2431868 Z" id="Fill-34" fill="#212121"></path>
                        <path d="M34.006691,75 L25.8989802,79.1241809 C25.0359131,79.6490766 24.2789008,80.1775431 23.6316005,81.0202329 C22.8745883,81.7593718 22.3369998,82.7056124 21.9018092,83.5518729 C19.9525941,87.5653615 21.2545089,92.4143984 24.9262011,94.9567506 C28.2760717,97.4848199 32.6023784,97.5919415 36.0583039,95.6923188 C36.0583039,95.5887679 36.0583039,95.5887679 36.1680158,95.5887679 L36.1680158,95.5887679 C37.2468497,93.8998176 35.0855249,91.5717086 35.0855249,91.5717086 L35.0855249,91.5717086 L35.0855249,91.5717086 C35.0855249,91.5717086 34.8697581,91.4681578 34.4382246,91.2574853 C34.1164029,91.1503637 33.6812123,90.9396913 33.2496788,90.6218973 C32.4963236,90.2005524 31.8453662,89.6756566 31.7393113,89.1471902 C31.6295994,88.7258453 31.9550781,88.4080512 32.4963236,88.1973788 C33.3593907,87.8831555 34.6539913,87.9867064 34.6539913,87.9867064 C34.6539913,87.9867064 35.8425371,87.8831555 35.4110036,87.2511382 L31.3077778,83.4447513 L31.4138326,83.4447513 C31.5235446,83.4447513 32.6023784,83.6554238 33.7909242,83.4447513 C34.8697581,83.130528 36.0583039,82.6020615 36.921371,81.2309053 L36.921371,81.2309053 L36.921371,81.1273544 C37.5686713,78.4814514 34.006691,75 34.006691,75 Z" id="Fill-35" fill="#001F50"></path>
                        <path d="M34.5966728,75 L33.2453221,75.4943633 C34.3513507,76.4797495 36.80873,78.9549061 36.1933456,80.9290188 L36.1933456,81.0258873 L36.1933456,81.0258873 C35.2120571,82.2083507 34.1060286,82.702714 33,83 C33.3700622,83 33.8607064,83 34.3513507,82.8997912 C35.5779613,82.6058455 36.929312,82.1114823 37.9106005,80.82881 L37.9106005,80.82881 L37.9106005,80.7319415 C38.6465669,78.256785 34.5966728,75 34.5966728,75 Z" id="Fill-36" fill="#006FC8"></path>
                        <path d="M34.6550586,92.0290189 L34.6550586,92.0290189 L34.6550586,92.0290189 L34.6550586,92.0290189 C31.403714,93.7807729 27.4061592,93.5490386 24.4710656,90.9842508 C22.7903159,89.7116761 21.7420682,87.9717052 21.1131195,86 C20.5801122,89.7116761 21.9517177,93.5490386 24.7837632,95.7524781 C27.9320597,98.5332894 32.2423122,98.6511204 35.6002583,96.5615842 C35.6002583,96.4476809 35.6002583,96.4476809 35.7068597,96.4476809 L35.7068597,96.4476809 C36.7551074,94.589879 34.6550586,92.0290189 34.6550586,92.0290189 Z" id="Fill-37" fill="#00132E"></path>
                        <polygon id="Fill-38" fill="#FFFFFF" points="44.7313739 95 36 95.9972955 36.1230349 99.8005409 48 100"></polygon>
                        <polygon id="Fill-39" fill="#0078D7" points="40 133 46 133 46 131 40 131"></polygon>
                        <path d="M32.4013529,99 C32.4013529,99 27.8996618,103.79567 27,115 L33,115 L32.4013529,99 Z" id="Fill-40" fill="#006FC8"></path>
                        <path d="M58.1714243,164 L52.7349343,134.18721 L40,132.218721 L41.1359311,124 L56.8374868,126.517146 C58.4805921,126.843373 59.925691,128.266914 60.1306449,130.139018 L63,164 L58.1714243,164 Z" id="Fill-41" fill="#0078D7"></path>
                        <polygon id="Fill-42" fill="#0063B0" points="56.0051216 133.42354 42.3852204 131.562558 43.4644229 124.326228 41.1962685 124 40 132.218721 53.4113774 134.18721 59.136638 164 60 163.34013"></polygon>
                        <path d="M72.1210661,164 L62.4272753,135.722984 L39,133.234636 L39.8698611,125 L66.2384463,127.920786 C67.8675929,128.137004 69.28296,129.339034 69.7289481,130.958842 L78,164 L72.1210661,164 Z" id="Fill-43" fill="#0078D7"></path>
                        <path d="M72.1263146,164 L73,164 L65.1515776,136.559562 C64.7165781,134.916378 63.3009867,133.722675 61.6678955,133.505303 L39.2174997,131 L39,133.070559 L62.4309877,135.572178 L72.1263146,164 Z" id="Fill-44" fill="#0063B0"></path>
                        <path d="M65.8644689,126.88968 L48.2161172,125 L48,126.786477 L69,129 C68.3516484,127.836299 67.1611722,127.099644 65.8644689,126.88968 Z" id="Fill-45" fill="#409AE1"></path>
                        <path d="M47.7965325,100.561067 C47.1640581,99.806573 46.3254966,97 42.6550132,97 L37.1901501,97 C33.5161135,97 32.9937891,100.881819 32.6775519,101.636313 C31.5227532,104.756347 31.0004288,118.227898 31.0004288,123.833754 C31.0004288,129.330263 30.893832,132.668992 34.0419911,132.668992 L40.555056,132.668992 C43.7032151,132.668992 52,134.604433 52,129.115214 C52,123.618705 49.4736556,102.711558 47.7965325,100.561067 Z" id="Fill-46" fill="#001F50"></path>
                        <path d="M46,97.4555985 C45.4237796,97.1119691 44.6178497,97 43.6990117,97 L37.5980833,97 C34.4950584,97 33.459419,99.3938224 33,101 C33.6891285,99.972973 34.4950584,98.5945946 36.2159329,98.2509653 C37.3683738,98.1389961 42.2039533,97.7953668 43.3563941,97.6833977 C44.2752321,97.4555985 45.081162,97.5675676 45.8831986,97.6833977 L46,97.4555985 Z" id="Fill-47" fill="#006FC8"></path>
                        <path d="M69.9599622,162.554324 C68.7941803,162.062084 63.2469362,160.099778 63.2469362,160.099778 L63.2469362,160.099778 C63.1334876,160 63.016127,160 62.9026784,160 C62.5545087,160 62.2102509,160.196231 62.0928903,160.588692 L62.0928903,160.588692 C61.9794417,161.080931 61.2870142,162.161863 59.5539894,162.062084 L57.1168011,160.784922 L57.0033525,165.115299 C57.0033525,165.115299 56.8859919,166 58.0400378,166 L70.0734108,165.703991 C70.0734108,165.703991 70.8831989,165.803769 70.8831989,165.018847 L70.9966475,163.635255 C70.9966475,163.635255 71.1140081,163.046563 69.9599622,162.554324 Z" id="Fill-48" fill="#000000"></path>
                        <path d="M84.1235458,162.566828 C82.9407041,161.996779 77.1284019,160 77.1284019,160 C77.1284019,160 77.1284019,160 77.0192165,160 L76.6989393,160 C76.3750227,160 76.0547455,160.190016 76.0547455,160.476651 C76.0547455,160.476651 76.0547455,160.570048 75.9455601,160.570048 C75.9455601,161.046699 75.1921809,162.093398 73.4743308,162.093398 L71.1086473,160.760064 L71.0031015,165.143317 C71.0031015,165.143317 70.8939161,166 71.9712119,166 L84.2290917,165.713366 C84.2290917,165.713366 84.9824709,165.903382 84.9824709,165.049919 L84.9824709,163.613527 C84.9824709,163.613527 85.1972022,163.140097 84.1235458,162.566828 Z" id="Fill-49" fill="#000000"></path>
                        <path d="M79.1739725,46 C78.8112779,46 78.3304019,44.3071945 77.7272693,44.3071945 C77.0059553,44.1922982 76.0442033,41.1283968 76.0442033,41.1283968 C75.9219467,40.7913676 76.0442033,40.2245459 76.5250793,40.1134794 C76.8877739,39.8875167 77.3686499,39.9985831 77.6090879,40.4505086 L79.9034369,44.7591199 C80.1438749,45.2110454 79.9034369,45.6629708 79.5325919,45.8889336 C79.4144105,45.8889336 79.2921539,46 79.1739725,46 Z" id="Fill-50" fill="#805443"></path>
                        <path d="M87.3958889,32.06637 L81.249729,27.6501786 L81.6963096,26.980832 C81.9195999,26.6480284 81.9195999,26.2067832 81.4730193,25.8739796 L77.6657307,23.1143274 C77.3289029,22.8937048 76.8823223,23.0058858 76.5454946,23.33495 L76.098914,23.9968178 C75.4290432,23.7761952 74.7591723,23.9968178 74.3125917,24.550244 L68.2686155,32.6197962 C67.822035,33.393845 67.9317878,34.2763354 68.6016587,34.8372404 L79.452053,42.68617 C80.1219238,43.2395962 81.1361916,43.0189736 81.6963096,42.3533664 L87.7327166,34.2763354 C88.1792972,33.5022866 88.0657598,32.6197962 87.3958889,32.06637 Z" id="Fill-51" fill="#D6CA00"></path>
                        <path d="M81.3247471,42.5770333 C80.6833906,43.121052 79.6035926,43.121052 78.9622361,42.6873074 L68.5737099,34.9717999 C67.8272724,34.4204297 67.8272724,33.5529405 68.4686289,33.0089219 L74.6829025,27.4658131 C75.324259,26.9217945 76.3931865,26.8151962 77.0381665,27.3555391 L87.4230692,35.0820739 C88.1731302,35.6224168 88.1731302,36.4899059 87.5317737,37.0339246 L81.3247471,42.5770333 Z" id="Fill-52" fill="#FFF100"></path>
                        <path d="M77.4123506,42 C77.1772908,42 77,41.6830861 77,41.262908 L77.1175299,36.7335312 C77.1772908,36.3133531 77.3525896,36 77.5896414,36 C77.8247012,36 78,36.420178 78,36.8403561 L77.8247012,41.262908 C77.8247012,41.6830861 77.6474104,42 77.4123506,42 Z" id="Fill-53" fill="#9D6952"></path>
                        <path d="M79.4331751,42.9799599 C79.1841517,42.9799599 79,42.6597078 79,42.2351038 L79.1234654,37.6580167 C79.1234654,37.2334127 79.3703961,36.9131605 79.6173268,37.0211107 C79.8642576,37.0211107 80.050502,37.3377645 79.987723,37.7659669 L79.8642576,42.3430539 C79.8642576,42.7676579 79.6801058,43.0843118 79.4331751,42.9799599 Z" id="Fill-54" fill="#9D6952"></path>
                        <path d="M81.3814897,44 C81.1349214,44 80.95104,43.7082228 81.0116373,43.3169761 L81.0743242,39.6863395 C81.1349214,39.2950928 81.3208924,39 81.5674607,39 C81.814029,39.0994695 82,39.3912467 82,39.7824934 L81.8767159,43.3169761 C81.814029,43.7082228 81.6301476,44 81.3814897,44 Z" id="Fill-55" fill="#9D6952"></path>
                        <path d="M78.4138614,43 C78.1762376,43 78,42.6075388 78,42.2150776 L78.1762376,37.6884701 C78.1762376,37.2960089 78.350495,37 78.590099,37 C78.8237624,37.0997783 79,37.3924612 79,37.7849224 L78.8811881,42.3115299 C78.8237624,42.7039911 78.6475248,43 78.4138614,43 Z" id="Fill-56" fill="#9D6952"></path>
                        <path d="M80.8584021,44 C79.3390491,44 77,43.9076923 77,43.9076923 L77,42 L81.9730516,42.2738462 C81.9730516,42.2738462 82.2748644,44 80.8584021,44 Z" id="Fill-57" fill="#9D6952"></path>
                        <polygon id="Fill-58" fill="#FFFFFF" points="76 45 82 45 82 44 76 44"></polygon>
                        <path d="M74.8139198,47 C74.2881585,50.3198429 72.4927018,60.3953488 67.9504108,72.2938689 C63.2936684,84.6091815 56.4194297,97.6819692 43.9513775,98.7511326 L43,107 C70.9082649,104.647841 79.3633639,51.077318 80,47 L74.8139198,47 Z" id="Fill-59" fill="#001F50"></path>
                        <path d="M51.0999893,130.122326 C50.9879415,125.886933 49.5462597,112.538474 48,105.594486 C71.4105218,97.7806648 79.5713371,55.3533386 81.0130189,47 L83,47 C82.335183,50.9124161 74.6076193,98.323852 49.7666204,106.677191 C51.32035,113.621179 52.8628748,126.969638 52.8628748,131.20503 C52.8628748,133.697085 51.2083022,134.673354 49.1055384,135 C49.1055384,135 51.0999893,133.913626 51.0999893,130.122326 Z" id="Fill-60" fill="#006FC8"></path>
                        <path d="M76.2561262,42 C76.2561262,42 75.7846246,43.0042194 76.1210845,44 L77,44 L76.2561262,42 Z" id="Fill-61" fill="#9D6952"></path>
                        <path d="M43.0700935,161 C41.8271028,161 41,160.340537 41,159.349478 L41,137.650522 C41,136.771237 41.8271028,136 43.0700935,136 C44.1728972,136 45,136.771237 45,137.650522 L45,159.349478 C45,160.340537 44.1728972,161 43.0700935,161 Z" id="Fill-62" fill="#A80000"></path>
                        <path d="M52.2434457,133 L43.164794,133 L31.7677903,133 C29.1011236,133 27,135.205189 27,138 L57,138 C57,135.205189 54.8988764,133 52.2434457,133 Z" id="Fill-63" fill="#D83B01"></path>
                        <path d="M39.7049362,133.345912 L48.4328896,133.345912 C50.8879645,133.345912 52.8058791,135.437107 53.0185801,138 L56,138 C56,135.205189 53.9775374,133 51.4215197,133 L45.985025,133 L31.7124237,133 C31.0707155,133 30.5407654,133.113994 30,133.345912 L39.7049362,133.345912 Z" id="Fill-64" fill="#E26C41"></path>
                        <path d="M50.3984995,161.996326 C49.9730068,161.996326 49.547514,161.787955 49.2301974,161.473632 C47.3046623,159.389921 44.4271773,158.139694 41.5532983,158.139694 C38.5640313,158.139694 35.7947225,159.389921 33.7718289,161.473632 C33.23816,162.102278 32.1744281,162.204697 31.5361889,161.579584 C30.8979498,161.05689 30.7897737,160.015034 31.4280128,159.389921 C33.9845753,156.575145 37.7130458,155 41.5532983,155 C45.386339,155 49.0066334,156.575145 51.5704076,159.389921 C52.2086467,160.015034 52.1040765,161.05689 51.4658373,161.579584 C51.1449148,161.893906 50.8239923,161.996326 50.3984995,161.996326 Z" id="Fill-65" fill="#A80000"></path>
                        <path d="M35,164.055271 C35,165.152508 34.1238095,166 32.9978836,166 C31.8761905,166 31,165.152508 31,164.055271 C31,162.966223 31.8761905,162 32.9978836,162 C34.1238095,162 35,162.966223 35,164.055271 Z" id="Fill-66" fill="#A80000"></path>
                        <path d="M54,164.055271 C54,165.152508 53.1265823,166 52.0042194,166 C50.8860759,166 50,165.152508 50,164.055271 C50,162.966223 50.8860759,162 52.0042194,162 C53.1265823,162 54,162.966223 54,164.055271 Z" id="Fill-67" fill="#A80000"></path>
                        <path d="M37.7310345,110 L36,110 C37.3241379,110.418966 38.5448276,111.991863 38.5448276,113.671277 L38.5448276,122.284932 C38.5448276,124.067313 37.4275862,125.64021 36,125.952659 C36.8137931,126.059176 37.7310345,125.952659 37.7310345,125.952659 C39.5724138,125.952659 41,124.379762 41,122.284932 L41,113.671277 C41,111.679414 39.5724138,110 37.7310345,110 Z" id="Fill-68" fill="#A80000"></path>
                        <path d="M40,122.321389 C40,124.422435 38.4565529,126 36.4769143,126 C36.4769143,126 34.6053915,125.896728 33.5018641,125.896728 C32.5139088,125.896728 30.530542,126 30.530542,126 C28.6515629,126 27,124.422435 27,122.321389 L27,113.682172 C27,111.684398 28.6515629,110 30.530542,110 C30.530542,110 32.182105,110.210105 33.5018641,110.210105 C34.9334672,110.210105 36.4769143,110 36.4769143,110 C38.4565529,110 40,111.684398 40,113.682172 L40,122.321389 Z" id="Fill-69" fill="#D83B01"></path>
                        <path d="M37.0982659,110 C37.0982659,110 36.730801,110.106833 36.2436003,110.106833 C37.9488026,110.420209 39.2906689,111.997774 39.2906689,113.682172 L39.2906689,122.321389 C39.2906689,124.21233 37.8290669,125.686624 36,126 L37.0982659,126 C39.2906689,126 41,124.422435 41,122.321389 L41,113.682172 C41,111.684398 39.2906689,110 37.0982659,110 Z" id="Fill-70" fill="#E26C41"></path>
                        <path d="M32.0427099,136 C31.4329897,136 31,135.442586 31,134.673356 L31,117.319212 C31,116.549981 31.4329897,116 32.0427099,116 C32.5640648,116 33,116.549981 33,117.319212 L33,134.673356 C33,135.442586 32.5640648,136 32.0427099,136 Z" id="Fill-71" fill="#A80000"></path>
                        <polygon id="Fill-72" fill="#636363" points="75 107 75.5 107 75.5 78 75 78"></polygon>
                    </g>
                </g>
            </g>
        </g>
    </g>
</svg>