<svg xmlns="http://www.w3.org/2000/svg" width="225" height="225" xmlns:xlink="http://www.w3.org/1999/xlink"><defs><circle cx="112.5" cy="112.5" r="112.5"/></defs><g fill="none"><g transform="translate(-1313 -1147) translate(1313 1147)"><mask><use xlink:href="#a"/></mask><use fill="#854CC7" xlink:href="#a"/><g><path fill="#fff" d="M149.78 126c18.26 0 33.22-14.9 33.22-33.33 0-17.1-12.9-31.17-29.4-33.13C153.08 45.98 141.84 35 128.22 35c-9.9 0-18.26 5.5-22.6 13.56-2.67-1.03-5.26-1.55-8.04-1.55-13.3 0-23.94 11-23.94 24.34v.2c-1.34-.2-2.37-.2-3.4-.2C55.18 71.34 43 83.56 43 98.67 43 113.77 55.18 126 70.24 126h79.54z"/><path fill="#C7B8FF" d="M150 82.55c0-4.7 3.76-8.55 8.45-8.55 4.7 0 8.55 3.86 8.55 8.55 0 4.7-3.86 8.45-8.55 8.45-4.7 0-8.45-3.76-8.45-8.45z"/><path fill="#B4A0FF" d="M157.8 90c4.5 0 8.2-3.6 8.2-8.1 0-2.3-1-4.4-2.5-5.9L152 87.6c1.5 1.5 3.5 2.4 5.8 2.4z"/><path fill="#C7B8FF" d="M101 63.47c0-.27.25-.47.5-.47s.5.2.5.47c0 .33-.25.53-.5.53s-.5-.2-.5-.53z"/><path fill="#C7B8FF" d="M84 70.5c0-1.97 1.6-3.5 3.55-3.5C89.4 67 91 68.53 91 70.5c0 1.86-1.6 3.5-3.45 3.5C85.6 74 84 72.36 84 70.5z"/><path fill="#C7B8FF" d="M59 106.5c0-.25.2-.5.5-.5.25 0 .5.25.5.5 0 .3-.25.5-.5.5-.3 0-.5-.2-.5-.5z"/><path fill="#C7B8FF" d="M133 54.46c0-.77.68-1.46 1.45-1.46.86 0 1.55.7 1.55 1.46 0 .85-.7 1.54-1.55 1.54-.77 0-1.45-.7-1.45-1.54z"/><path fill="#C7B8FF" d="M119 113.95c0-.52.44-.95.96-.95.6 0 1.04.43 1.04.95 0 .6-.44 1.05-1.04 1.05-.52 0-.96-.44-.96-1.05z"/><path fill="#C7B8FF" d="M150 94.46c0-.23.23-.46.54-.46.23 0 .46.23.46.46 0 .3-.23.54-.46.54-.3 0-.54-.23-.54-.54z"/><path fill="#C7B8FF" d="M152 117c0-.55.45-1 1-1s1 .45 1 1-.45 1-1 1-1-.45-1-1z"/><path fill="#C7B8FF" d="M81 102.05c0-.62.45-1.05 1-1.05s1 .43 1 1.05c0 .52-.45.95-1 .95s-1-.43-1-.95z"/><path fill="#C7B8FF" d="M65 90.04c0-.6.46-1.04 1-1.04s1 .43 1 1.04c0 .52-.46.96-1 .96s-1-.44-1-.96z"/><path fill="#C7B8FF" d="M89 58c0-.54.45-1 1-1s1 .46 1 1-.45 1-1 1-1-.46-1-1z"/><path fill="#C7B8FF" d="M67 96.46c0-.23.23-.46.54-.46.23 0 .46.23.46.46 0 .3-.23.54-.46.54-.3 0-.54-.23-.54-.54z"/><path fill="#C7B8FF" d="M141 111c0-1.62 1.38-3 3-3s3 1.38 3 3-1.38 3-3 3-3-1.38-3-3z"/><path stroke="#5C2D91" stroke-width="14.788" d="M64 189h73" stroke-linecap="round"/><path fill="#5C2D91" d="M86.2 110.42c1.66.9 2.33 3.03 1.33 4.72-.9 1.7-3 2.36-4.68 1.46-1.68-.9-2.34-3.04-1.45-4.72.9-1.8 3-2.36 4.8-1.46z"/><path fill="#5C2D91" d="M97.4 99.73c-1.16 2.1-3.9 2.94-6.08 1.68-2.2-1.15-2.93-3.87-1.78-6.08 1.26-2.2 3.97-2.93 6.17-1.78 2.2 1.26 2.94 4 1.7 6.2z"/><path fill="#5C2D91" d="M89 95l-8 16.98 5.8 3.02L97 99.38z"/><path fill="#F7CAA7" d="M110 153.33c.1-1.65-1.16-3.2-2.92-3.3-1.76-.22-3.32 1.13-3.42 2.9L102 182.14c0 .93 3.53 1.24 3.63.2l4.36-29.02z"/><path fill="#F7CAA7" d="M111 153.73c-.12 1.97-1.85 3.48-3.8 3.25-1.93-.12-3.3-1.85-3.2-3.72.12-1.96 1.84-3.47 3.78-3.24 1.94.12 3.33 1.85 3.2 3.7z"/><path fill="#613D30" d="M109.72 152.8c.1 1.76-1.3 3.2-2.88 3.2-1.68.1-3.06-1.24-3.16-3L101 130.26c-.1-2.88 2.1-5.25 4.85-5.25 2.67-.2 5.05 2.07 5.15 4.85l-1.28 22.95z"/><path fill="#F7CAA7" d="M92.02 153.33c-.2-1.65 1.16-3.2 2.94-3.3 1.68-.22 3.26 1.13 3.47 2.9l1.57 29.22c0 .93-3.46 1.24-3.57.2l-4.4-29.02z"/><path fill="#F7CAA7" d="M92.02 153.73c.12 1.97 1.83 3.48 3.77 3.25 1.83-.12 3.3-1.85 3.2-3.72-.23-1.96-1.95-3.47-3.78-3.24-1.94.12-3.42 1.85-3.2 3.7z"/><path fill="#613D30" d="M91.9 152.7c-.1 1.75 1.18 3.3 2.86 3.3 1.6.1 3.07-1.24 3.07-2.9l3.17-22.73c.1-2.9-2.08-5.25-4.75-5.36-2.78-.2-5.15 1.97-5.25 4.85l.9 22.85z"/><path fill="#401467" d="M100.4 154.55l.3 27.45h-5.32l-4.28-26.92-.1-28.17 11.05-2.9c2.93 8.42-1.87 20.9-1.66 30.55z"/><path fill="#401467" d="M101.74 182h5.07l5.2-27.7-.42-30.3H101l1.5 30.5z"/><path fill="#625496" d="M102 184.06v2.63c.23.6.77.8 1.64.9l8.47.4c1.42 0 5.77-.4 5.77-.4 1.85-.3.97-1.1.54-1.2-1.5-.1-5-1.23-7.8-1.93-2.4-.7-8.6-.4-8.6-.4z"/><path fill="#F7CAA7" d="M102.24 182.08c0 .65-.32 1.3-.22 1.7.1.57 9.8 1.22 9.8 1.22.22 0 1.6-.24 1.06-.32-2.3-.5-7.06-1.95-6.85-2.68l-3.8.08z"/><path fill="#625496" d="M100.9 184l.1 2.4c-.1.56-.76.75-1.63.84l-8.48.64c-1.42.2-5.77.1-5.77.1-1.84-.28-.98-1.02-.54-1.1 1.4-.2 4.88-1.4 7.7-2.14 2.4-.74 8.6-.74 8.6-.74z"/><path fill="#F7CAA7" d="M100.68 182c0 .9.32 1.7.32 2.1 0 .7-9.8 1.9-9.8 1.9-.22 0-1.6-.1-1.08-.3 2.35-.7 6.94-2.8 6.83-3.6l3.73-.1z"/><path fill="#F7CAA7" d="M128.7 74.6c.5-3.43.1-4.6-.93-7.4-.62-1.72-1.24-2.04-1.34-1.08-.2-1.93-1.65-2.57-1.54-1.28-.22-.43-.73-1.07-1.25-.75-.4.2 0 1.17.2 1.5-.5 0-1.13.42-.5 1.7.4.97.3 1.82.3 1.82-.83-.85-1.44-.85-1.65-.32.62 1.2 1.13 3.12 2.07 4.62.1.32.3.53.5.75l.73 7.83 3.7-2.36-.3-5.04z"/><path fill="#001F50" d="M125.15 92.62c-.55-1.9.45-3.8 2.25-4.47 1.8-.55 3.83.45 4.4 2.24.66 1.88-.35 3.78-2.26 4.45-1.8.55-3.82-.45-4.4-2.23z"/><path fill="#5C2D91" d="M112.7 101l17.3-6.76-1.97-6.24L110 92.47z"/><path fill="#5C2D91" d="M127.95 88.03c1.9-.23 3.7 1 4.02 2.9.23 1.9-1 3.68-2.9 4.02-1.9.33-3.7-1-4.02-2.9-.33-1.9 1-3.7 2.9-4.02z"/><path fill="#5C2D91" d="M124 76.62L125.4 92l6.6-1.04L129.87 76z"/><path fill="#5C2D91" d="M101 91l-8.9 1.24-1.8 9.8 1.1 13.92-1.4 9.8c7.2 1.22 15.1-2.48 21.2-2.07l-.3-7.74 2.1-17.02-2.8-6.7L101 91z"/><path fill="#F7CAA7" d="M106 87l-6.95.53s-.1 4.7 0 6.3c0 1.28.34 4.17 3.3 4.17 2.86 0 3.08-2.9 3.2-4.17.1-1.7.45-6.83.45-6.83z"/><path fill="#DEB695" d="M100.02 89c-.35 2.9 4.03 3.2 5.75 2.9l.23-2.28-5.98-.62z"/><path fill="#F7CAA7" d="M104.95 79.94c-3.45-6.33-11.55-4.26-12.73.8-1.2 5.04 2.7 7.7 6.37 8.8 2.8 1 5.92.1 7.43-.2 1.62-.3 1.4-1 1.4-1-.2-.88-.97-3.75-.53-4.24 1.72-.7.97-1.1.75-1.28-.1-.2-2.37-1.9-2.48-2.38-.1-.1-.1-.3-.22-.5z"/><path fill="#DEB695" d="M97.8 83.04c-.4-.1-.68 0-.78.42-.1.42.1 1.06.4 1.6.2.4.38.73.58.94-.2-.63-.68-2.33-.2-2.96z"/><path fill="#353535" d="M103.9 80.32c-.1-.44-1.5-1.87-1.58-1.76-.1 0 1.5 1.76 1.2 1.98-.8.55-4.5-.44-3.1 3.2.2.55-.8.33-1.5.22-.4-.12-.7 0-.8.44-.1.43.1 1.1.4 1.64.2.44.4.78.6 1 .5.54.9 3.2-.5 3.96 0 0-3.48-1.33-4.88-3.3-2.1-2.97-2.98-7.7 1.3-11.12 3.8-3.1 8.87-1.44 9.96 3.08l-1.1.66z"/><path fill="#000" d="M103.53 82.67c.1 0 .32.1.42.1 0 0 .1-.1 0-.22 0-.33-.2-.55-.53-.55-.3.1-.42.33-.42.67 0 .1.1.22.1.33.1-.22.22-.22.43-.33z"/><path fill="#8A0000" d="M104 86.36s.46 0 .93-.15c.28 0 .47 0 .66-.13h.26c0-.15.1 0 .1 0 .1.14 0 .3 0 .3s0 0-.1 0h-.27c-.2.13-.4.13-.67.13-.47-.14-.93-.14-.93-.14z"/><path fill="#8A0000" d="M104 86H105.9c.1 0 .1 0 .1.15 0 0 0 .15-.1.15h-.28c-.2 0-.38 0-.67-.15-.48 0-.95-.15-.95-.15z"/><path fill="#353535" d="M91.6 83c-6.17 3.1-9.2 17.5 1.4 17-3.13-3.32-5.73-10.58-2.27-14.62.65-.83 1.4-.93 1.5-.93L91.6 83z"/><path fill="#F6F6F6" d="M145 59.2v.8l-3-6c1.73.8 2.9 2.77 3 5.2z"/><path fill="#8A79C7" d="M117 75.27L108.33 81 107 78.73l8.65-5.73z"/><path fill="#8A79C7" d="M126 69.37L117.07 75l-.4-.6-1.28-2.07-.4-.6 9.04-5.73z"/><path fill="#8A79C7" d="M141 60.52l-3.48 2.08-10.66 6.4-.4-.6-2.05-3.34-.4-.6 10.54-6.4 3.5-2.06z"/><path fill="#8A79C7" d="M147 59.77L143.1 62l-.33-.6-3.3-4.66-.47-.6 3.88-2.14z"/><path fill="#8A79C7" d="M107.87 80.85l-.2.1c-.1.1-.28 0-.37-.1l-1.24-2.25c-.1-.1-.1-.32.1-.42l.2-.1c.08-.12.27-.12.37.1l1.23 2.24c.1.1 0 .32-.1.43z"/><path fill="#F7CAA7" d="M123.73 72c-.73-1.14-1.2-2.72-1.73-3.7.18-.44.72-.44 1.46.27.54.62 1 1.94 1.54 1.58L123.73 72z"/><path fill="#401467" d="M90.94 140L104 127.2l-8.94-9.2L82 130.9z"/><path fill="#5C2D91" d="M90.94 140L104 127l-22 3.78z"/><path fill="#F7CAA7" d="M88.7 129.16c.62 3.44 1.36 4.4 3.14 6.77 1.16 1.5 1.8 1.5 1.7.65.72 1.7 2.3 1.82 1.88.64.32.43.95.86 1.37.43.3-.43-.32-1.18-.64-1.5.53-.1.95-.76 0-1.72-.74-.87-.84-1.73-.84-1.73.95.65 1.68.43 1.68-.2-1.05-.87-2.1-2.6-3.37-3.66-.2-.2-.53-.43-.74-.64l-3.05-7.2-2.85 3.43 1.7 4.73z"/><path fill="#5C2D91" d="M86.07 116.6c-1.67.9-3.78.23-4.68-1.45-.9-1.8-.23-3.93 1.56-4.83 1.67-.78 3.78-.1 4.67 1.57.9 1.78.1 3.8-1.56 4.7z"/><path fill="#5C2D91" d="M93 127.55L86.9 113l-5.9 3.08L87.53 130z"/></g></g></g></svg>