<svg xmlns="http://www.w3.org/2000/svg" viewBox="0 0 16 16"><defs><style>.icon-canvas-transparent,.icon-vs-out{fill:#f6f6f6}.icon-canvas-transparent{opacity:0}.icon-vs-blue{fill:#1ba1e2}.icon-white{fill:#fff}</style></defs><title>StatusOK_blue_16x</title><path class="icon-canvas-transparent" d="M16 16H0V0h16z"/><path class="icon-vs-out" d="M16 8a8 8 0 1 1-8-8 8.009 8.009 0 0 1 8 8z"/><path class="icon-vs-blue" d="M8 1a7 7 0 1 0 7 7 7 7 0 0 0-7-7zM6.3 12.389L3.043 9.132l1.414-1.414L6.3 9.561l5.243-5.243 1.414 1.414z"/><path class="icon-white" d="M6.3 12.389L3.043 9.132l1.414-1.414L6.3 9.561l5.243-5.243 1.414 1.414z"/></svg>