<svg width="96" height="97" viewBox="0 0 96 97" fill="none" xmlns="http://www.w3.org/2000/svg">
<g id="Rocket">
<path id="Shape" d="M52.2287 29.8891C56.1339 25.9838 62.4656 25.9839 66.3708 29.8891C70.2761 33.7943 70.2761 40.126 66.3708 44.0312C62.4656 47.9365 56.1339 47.9365 52.2287 44.0312C48.3235 40.126 48.3235 33.7943 52.2287 29.8891ZM62.1282 34.1317C60.5661 32.5696 58.0334 32.5696 56.4713 34.1317C54.9092 35.6938 54.9092 38.2265 56.4713 39.7886C58.0334 41.3507 60.5661 41.3507 62.1282 39.7886C63.6903 38.2265 63.6903 35.6938 62.1282 34.1317ZM86.0343 17.4547C84.9592 13.9954 82.25 11.2873 78.7903 10.2136L76.1421 9.39173C66.568 6.42042 56.1358 8.99811 49.0474 16.0866L45.0639 20.0701C39.5849 15.9555 31.7726 16.3909 26.7874 21.3761L21.8173 26.3462C20.6457 27.5178 20.6457 29.4173 21.8173 30.5889L28.1812 36.9528L27.4619 37.672C24.7282 40.4057 24.7282 44.8378 27.4619 47.5715L29.4433 49.5529L23.8611 52.7367C23.0485 53.2002 22.4986 54.0161 22.3741 54.9433C22.2495 55.8704 22.5646 56.8025 23.226 57.464L38.7825 73.0204C39.4435 73.6814 40.3748 73.9965 41.3013 73.8726C42.2279 73.7488 43.0437 73.2001 43.5079 72.3887L46.6995 66.8091L48.6882 68.7978C51.4219 71.5315 55.854 71.5315 58.5877 68.7978L59.2948 68.0906L65.6532 74.449C66.8248 75.6206 68.7243 75.6206 69.8959 74.449L74.866 69.4789C79.8493 64.4956 80.2863 56.6874 76.1768 51.2087L80.1685 47.217C87.2597 40.1258 89.8364 29.6885 86.8601 20.1119L86.0343 17.4547ZM77.0119 15.944C78.5845 16.432 79.816 17.663 80.3046 19.2354L81.1305 21.8926C83.4454 29.3411 81.4413 37.459 75.9259 42.9743L54.3451 64.5552C53.9545 64.9457 53.3214 64.9457 52.9308 64.5552L31.7046 43.3289C31.314 42.9384 31.314 42.3052 31.7046 41.9147L53.29 20.3292C58.8033 14.816 66.9172 12.8111 74.3637 15.1221L77.0119 15.944ZM71.8564 55.5291C73.6664 58.5922 73.2554 62.6042 70.6234 65.2363L67.7746 68.0851L63.5375 63.848L71.8564 55.5291ZM31.03 25.6188C33.6641 22.9847 37.6802 22.5751 40.7441 24.3898L32.4238 32.7101L28.1812 28.4676L31.03 25.6188ZM42.3025 62.4121L40.2491 66.0017L30.2484 56.001L33.8419 53.9515L42.3025 62.4121ZM26.7595 73.7428C27.931 72.5712 27.931 70.6717 26.7595 69.5002C25.5879 68.3286 23.6884 68.3286 22.5168 69.5002L12.6173 79.3997C11.4458 80.5712 11.4458 82.4707 12.6173 83.6423C13.7889 84.8139 15.6884 84.8139 16.86 83.6423L26.7595 73.7428ZM18.9811 61.722C20.1527 62.8936 20.1527 64.7931 18.9811 65.9646L14.7385 70.2073C13.5669 71.3789 11.6674 71.3789 10.4959 70.2073C9.32429 69.0357 9.3243 67.1362 10.4959 65.9646L14.7385 61.722C15.9101 60.5504 17.8096 60.5504 18.9811 61.722ZM34.5295 81.5294C35.7011 80.3578 35.7011 78.4583 34.5296 77.2867C33.358 76.1151 31.4585 76.1151 30.2869 77.2867L26.0525 81.521C24.8809 82.6925 24.8809 84.592 26.0525 85.7636C27.224 86.9352 29.1235 86.9352 30.2951 85.7637L34.5295 81.5294Z" fill="white"/>
</g>
</svg>
