<svg xmlns="http://www.w3.org/2000/svg" width="400" height="400"><g fill="none"><g><path fill="#F79A45" d="M0 0h400v400H0z"/><circle cx="100" cy="300" r="50" fill="#fff"/><path fill="#fff" d="M50 150v50c42.1.67 77.45 15.3 106.07 43.93C184.7 272.55 199.33 307.9 200 350h50c.2-55.04-19.34-102.18-58.58-141.42C152.18 169.34 105.04 149.8 50 150z"/><path fill="#fff" d="M50 50v50c71.46 2.42 130.38 26.82 176.78 73.22 46.4 46.4 70.8 105.32 73.22 176.78h50c-.6-83.43-29.88-154.14-87.87-212.13-58-58-128.7-87.28-212.13-87.87z"/></g></g></svg>