<svg width="96" height="97" viewBox="0 0 96 97" fill="none" xmlns="http://www.w3.org/2000/svg">
<g id="Search">
<path id="Shape" d="M18 40.165C18 28.0148 27.8497 18.165 40 18.165C52.1503 18.165 62 28.0148 62 40.165C62 52.3153 52.1503 62.165 40 62.165C27.8497 62.165 18 52.3153 18 40.165ZM40 12.165C24.536 12.165 12 24.7011 12 40.165C12 55.629 24.536 68.165 40 68.165C46.6513 68.165 52.761 65.8459 57.5644 61.9721L78.8787 83.2864C80.0503 84.4579 81.9497 84.4579 83.1213 83.2864C84.2929 82.1148 84.2929 80.2153 83.1213 79.0437L61.807 57.7294C65.6808 52.926 68 46.8163 68 40.165C68 24.7011 55.464 12.165 40 12.165Z" fill="white"/>
</g>
</svg>
