<?xml version="1.0" encoding="UTF-8" standalone="no"?>
<svg xmlns="http://www.w3.org/2000/svg" viewBox="0 0 24 24" version="1.1">
  <title>trusted-publisher</title>
  <defs>
    <style>
      @media screen and (-ms-high-contrast:active){
      .high-contrast-visible{fill: windowText;}
      }
    </style>
  </defs>

  <!-- Trusted Publisher Icon -->
  <path
    style="display:inline"
    class="high-contrast-visible"
    d="M3.75 5C3.33579 5 3 5.33579 3 5.75V11C3 16.0012 5.95756 19.6757 11.7251 21.9478C11.9018 22.0174 12.0982 22.0174 12.2749 21.9478C12.4188 21.8911 12.561 21.8335 12.7014 21.7751C12.0422 21.2996 11.4758 20.7036 11.0343 20.0194C6.6401 17.9615 4.5 14.9746 4.5 11V6.47793C7.07735 6.32585 9.58084 5.38829 12 3.67782C14.4192 5.38829 16.9227 6.32585 19.5 6.47793V10.7322C20.0407 11.014 20.5368 11.3696 20.975 11.7857C20.9917 11.5275 21 11.2656 21 11V5.75C21 5.33579 20.6642 5 20.25 5C17.5866 5 14.992 4.05652 12.45 2.15C12.1833 1.95 11.8167 1.95 11.55 2.15C9.00797 4.05652 6.41341 5 3.75 5Z         M16.5 22C19.5376 22 22 19.5376 22 16.5C22 13.4624 19.5376 11 16.5 11C13.4624 11 11 13.4624 11 16.5C11 19.5376 13.4624 22 16.5 22Z         M13.1911 18.7482C12.755 18.1075 12.5 17.3335 12.5 16.5C12.5 14.2909 14.2909 12.5 16.5 12.5C17.3335 12.5 18.1075 12.755 18.7482 13.1911L13.1911 18.7482Z         M14.2518 19.8089L19.8089 14.2518C20.245 14.8925 20.5 15.6665 20.5 16.5C20.5 18.7091 18.7091 20.5 16.5 20.5C15.6665 20.5 14.8925 20.245 14.2518 19.8089Z" />

  <!-- Stop Icon -->
  <path
    d="m 16.161074,21.969357 c -1.448242,-0.07432 -2.90576,-0.804235 -3.839341,-1.922719 -1.242253,-1.488291 -1.625881,-3.441537 -1.03282,-5.258614 0.116057,-0.355585 0.388141,-0.924193 0.592903,-1.239065 0.860724,-1.323571 2.161673,-2.182866 3.728922,-2.463004 0.32625,-0.05832 1.112861,-0.08125 1.450447,-0.04229 2.180865,0.251701 3.970551,1.693057 4.641107,3.737799 0.404072,1.232145 0.37343,2.508123 -0.08865,3.691528 -0.729383,1.867978 -2.394167,3.186593 -4.36532,3.457612 -0.367797,0.05057 -0.656439,0.06086 -1.087248,0.03875 z m 1.020134,-1.516995 c 0.874956,-0.138612 1.791527,-0.657101 2.361276,-1.335734 0.468355,-0.557861 0.762103,-1.169436 0.904289,-1.882703 0.06791,-0.340648 0.06825,-1.139806 6.35e-4,-1.474562 -0.05864,-0.290343 -0.180202,-0.677176 -0.288975,-0.919611 -0.08633,-0.192422 -0.320218,-0.598141 -0.344809,-0.598141 -0.0083,0 -1.269189,1.254169 -2.80201,2.787043 l -2.786947,2.787044 0.156123,0.09573 c 0.840948,0.515619 1.795888,0.700078 2.800418,0.540938 z m -1.181159,-4.479807 c 2.233443,-2.233963 2.770575,-2.784452 2.738206,-2.806293 -0.476775,-0.321706 -1.03418,-0.537456 -1.629893,-0.630869 -0.381284,-0.05979 -1.090134,-0.04146 -1.444553,0.03736 -0.818621,0.182043 -1.492283,0.56149 -2.069762,1.165815 -0.636484,0.666075 -1.004145,1.484582 -1.089036,2.424477 -0.06399,0.70849 0.07563,1.467637 0.383742,2.086493 0.1363,0.273765 0.274922,0.502143 0.304793,0.502143 0.01542,0 1.278342,-1.250605 2.806503,-2.779123 z"
    fill="#e81123"
    style="display:inline" />
</svg>
