<?xml version="1.0" encoding="UTF-8" standalone="no"?>
<svg xmlns="http://www.w3.org/2000/svg" viewBox="0 0 16 16" version="1.1">
  <title>trusted-publisher</title>
  <defs>
    <style>
      @media screen and (-ms-high-contrast:active){
      .high-contrast-visible{fill: windowText;}
      }
    </style>
  </defs>

  <!-- Trusted Publisher Icon -->
  <path
    style="display:inline"
    class="high-contrast-visible"
    d="M 8 0 L 1 3 L 1 7 C 1 12.25 5.5 15.5 8 16 C 8.4913861 15.901723 9.0596878 15.697645 9.65625 15.392578 A 4 4 0 0 1 8.8007812 14.212891 C 8.5080317 14.342274 8.2366597 14.437721 8 14.5 C 6.1 14 2 11.3 2 7 L 2 3.8007812 L 8 1.1992188 L 14 3.8007812 L 14 7 C 14 7.6094388 13.918265 8.1870177 13.771484 8.7304688 A 4 4 0 0 1 14.71875 9.2246094 C 14.899203 8.5298343 15 7.7872458 15 7 L 15 3 L 8 0 z M 11.029297 5.4707031 L 7.25 9.25 L 5.4707031 7.4707031 L 4.75 8.1894531 L 7.25 10.689453 L 11.75 6.1894531 L 11.029297 5.4707031 z" />

  <!-- Stop Icon -->
  <path
    d="m 12.48434,9.0178971 a 3.5,3.5 0 1 0 3.5,3.4999999 3.5,3.5 0 0 0 -3.5,-3.4999999 z m -2.5,3.4999999 a 2.483,2.483 0 0 1 0.416,-1.376 l 3.46,3.46 a 2.5,2.5 0 0 1 -3.876,-2.084 z m 4.584,1.377 -3.46,-3.46 a 2.5,2.5 0 0 1 3.46,3.46 z"
    fill="#e81123"
    style="display:inline" />
</svg>
