<svg xmlns="http://www.w3.org/2000/svg" viewBox="0 0 400 400"><defs><style>.cls-1{fill:#1da1f2;}.cls-2{fill:#fff;}.cls-3{fill:none;}</style></defs><path d="M0 0h400v400H0z" class="cls-1"/><g><path d="M153.62 301.6c94.34 0 145.94-78.17 145.94-145.95 0-2.22 0-4.43-.15-6.63a104.36 104.36 0 0 0 25.6-26.55 102.38 102.38 0 0 1-29.46 8.07 51.47 51.47 0 0 0 22.55-28.37 102.8 102.8 0 0 1-32.58 12.45 51.34 51.34 0 0 0-87.4 46.78A145.62 145.62 0 0 1 92.4 107.8a51.33 51.33 0 0 0 15.88 68.48A50.9 50.9 0 0 1 85 169.86c0 .2 0 .43 0 .65a51.3 51.3 0 0 0 41.15 50.3 51.2 51.2 0 0 1-23.16.87 51.35 51.35 0 0 0 47.9 35.62 102.92 102.92 0 0 1-63.7 22 104.4 104.4 0 0 1-12.2-.75 145.2 145.2 0 0 0 78.62 23" class="cls-2"/><path d="M0 0h400v400H0z" class="cls-3"/></g></svg>